<svg xmlns="http://www.w3.org/2000/svg" xmlns:xlink="http://www.w3.org/1999/xlink" width="49.932" height="51.748" viewBox="0 0 49.932 51.748">
  <defs>
    <path id="path-1" fill-rule="evenodd" d="M0 0h49.93196237v51.74784084H0V0z"/>
    <mask id="mask-2" maskContentUnits="userSpaceOnUse" maskUnits="userSpaceOnUse">
      <rect width="49.932" height="51.748" x="0" y="0" fill="black"/>
      <use fill="white" xlink:href="#path-1"/>
    </mask>
    <linearGradient id="linearGradient-11" x1="39.999" x2="11.698" y1="17.748" y2="25.748" gradientUnits="userSpaceOnUse">
      <stop offset="0" stop-color="rgb(111,187,70)"/>
      <stop offset="1" stop-color="rgb(192,26,26)"/>
    </linearGradient>
  </defs>
  <g>
    <g>
      <use fill="none" xlink:href="#path-1"/>
      <g mask="url(#mask-2)">
        <path fill="rgb(40,40,40)" fill-rule="evenodd" d="M3.5851782-.00002952h42.7612915c1.97717285 0 3.58551025 1.62890625 3.58551025 3.63128662v44.48529053c0 2.0024414-1.6083374 3.63134766-3.58551025 3.63134766H3.5851782c-1.97686768 0-3.58520508-1.62890625-3.58520508-3.63134766V3.6312571c0-2.00238037 1.6083374-3.63128662 3.58520508-3.63128662zm42.7612915 50.08740235c1.07312012 0 1.94598389-.8840332 1.94598389-1.9708252V3.63119607c0-1.08709717-.87286377-1.97106934-1.94598389-1.97106934H3.5851782c-1.07281495 0-1.94567871.88397217-1.94567871 1.97106934v44.48535156c0 1.086792.87286376 1.9708252 1.9456787 1.9708252H46.3464697z"/>
      </g>
    </g>
    <path fill="rgb(111,187,70)" fill-rule="evenodd" d="M25.17789839 41.74789529c.45389306 0 .82207473-.44761437.82207473-.99983604 0-.55222168-.36818167-1.00016396-.82207473-1.00016396h-6.35612008c-.45389306 0-.8218052.44794228-.8218052 1.00016396 0 .55222167.36791214.99983604.8218052.99983604h6.35612008z"/>
    <path fill="rgb(243,127,66)" fill-rule="evenodd" d="M6.80633089 41.74789529h8.38728446c.44536126 0 .80635777-.44761437.80635777-.99983604 0-.55222168-.36099651-1.00016396-.80635777-1.00016396H6.80633089c-.44536126 0-.80635777.44794228-.80635777 1.00016396 0 .55222167.3609965.99983604.80635777.99983604"/>
    <path fill="rgb(111,187,70)" fill-rule="evenodd" d="M42.16646898 43.74789529h-2.333265c-.4602036 0-.83323086.44761436-.83323086.99983604 0 .55222167.37302726 1.00016396.83323085 1.00016396h2.33326501c.4602036 0 .83350414-.44794229.83350414-1.00016396 0-.55222168-.37330054-.99983604-.83350414-.99983604"/>
    <path fill="rgb(243,127,66)" fill-rule="evenodd" d="M37.216485 43.74789529h-5.43302376c-.43273007 0-.78348812.44761436-.78348812.99983604 0 .55222167.35075805 1.00016396.78348812 1.00016396H37.216485c.43273008 0 .78348813-.44794229.78348813-1.00016396 0-.55222168-.35075805-.99983604-.78348813-.99983604"/>
    <path fill="rgb(243,127,66)" fill-rule="evenodd" d="M28.210588 43.74789529H15.78935824c-.43598705 0-.78938511.44761436-.78938511.99983604 0 .55222167.35339806 1.00016396.78938511 1.00016396h12.42122978c.43598705 0 .7893851-.44794229.7893851-1.00016396 0-.55222168-.35339805-.99983604-.7893851-.99983604"/>
    <path fill="rgb(111,187,70)" fill-rule="evenodd" d="M12.16671787 43.74789529h-5.3334895c-.46021707 0-.83325525.44761436-.83325525.99983604 0 .55222167.37303818 1.00016396.83325525 1.00016396h5.3334895c.46021707 0 .83325525-.44794229.83325525-1.00016396 0-.55222168-.37303818-.99983604-.83325525-.99983604"/>
    <path fill="url(#linearGradient-11)" fill-rule="evenodd" d="M36.61301023 25.35238748c-1.00915528-1.64379883-2.3203125-3.0279541-3.84313965-4.10644532-.04296875-.02490234-.08428955-.05371093-.12347412-.0871582-2.35644531-1.6307373-5.20855713-2.53479004-8.23840332-2.53479004-5.02648926 0-9.57489014 2.49230957-12.16638184 6.66674805-.12261963.1977539-.31896972.33398437-.5423584.37695312-.2230835.04333496-.4534912-.01086426-.63720703-.1496582l-5.7244873-4.32714844c-.35839844-.27087402-.44458008-.78649902-.19500733-1.16625976 2.027771-3.08447266 4.9052124-5.67675782 8.32104493-7.49731446C16.8746069 10.709199 20.65909177 9.7478953 24.40799314 9.7478953c3.80639648 0 7.44128418.90234375 10.8036499 2.6819458 3.3413086 1.76812744 6.24176025 4.31158447 8.62115479 7.55926514.13372802.18261718.19067382.41333007.15826416.63989257-.03265381.22644043-.15234375.42980957-.33166504.56433106l-5.86791993 4.39257812c-.14154052.10583496-.3106079.1619873-.48297119.1619873-.0515747 0-.10345459-.00500487-.1550293-.01513671-.22308349-.04431152-.41864013-.18200684-.5404663-.3803711zm-25.26489258-1.72814942l-4.3817749-3.31201172c3.89501953-5.40686035 10.64916992-8.86071777 17.44165039-8.86071777 3.54302978 0 6.925354.8392334 10.05297851 2.49450684.83520508.44189453 1.64013672.9378662 2.41534424 1.48303222l-3.81451416 3.97949219c-2.52093506-1.60473633-5.5024414-2.48791504-8.6538086-2.48791504-5.28552245 0-10.10272216 2.48925781-13.05987548 6.70361328zm30.65222168-3.29187012l-4.48571777 3.35803223c-.87329102-1.25817871-1.91217041-2.3626709-3.0779419-3.29638672l3.78155518-3.94506836c1.37243652 1.12414551 2.63684082 2.42028809 3.78210449 3.88342285z"/>
    <path fill="rgb(40,40,40)" fill-rule="evenodd" d="M31.7161175 20.93627658l-7.2170902 6.25629252c-.29251173.25404618-.47362718.62781838-.49652387 1.02537362-.02315396.3978255.11345442.79159708.37457966 1.08050704.25829532.28593708.62104074.44944553.99613494.44944553h.00282992c.375866-.00054053.73938322-.16621107.997164-.45349946l6.41339043-7.15761593c.28402195-.31674694.28453648-.81078568.00128633-1.1283434-.28325014-.31728746-.75224652-.3489081-1.0717712-.07215992"/>
    <path fill="rgb(40,40,40)" fill-rule="evenodd" d="M44.18935018 23.74789529c-.44757018 0-.81035717.39095315-.81035717.87391214v8.37797696H7.62068745v-8.37797696c0-.482959-.362787-.87391214-.81035717-.87391214-.44757017 0-.81035716.39095315-.81035716.87391214v9.25217572c0 .48295899.36278699.87391214.81035716.87391214h37.3790199c.44757017 0 .81062294-.39095315.81062294-.87391214v-9.25217572c0-.482959-.36305277-.87391214-.81062294-.87391214"/>
    <path fill="rgb(40,40,40)" fill-rule="evenodd" d="M44.18935018 4.74789529H6.81033028c-.44757017 0-.81035716.38019396-.81035716.84951763v9.30124326c0 .46904515.36278699.8492391.81035716.8492391.44757018 0 .81035717-.38019395.81035717-.8492391V6.44665203H43.378993v7.57240524c0 .46932367.36278699.84951763.81035717.84951763.44757017 0 .81062294-.38019396.81062294-.84951763V5.59741292c0-.46932367-.36305277-.84951763-.81062294-.84951763"/>
  </g>
</svg>
