<svg xmlns="http://www.w3.org/2000/svg" xmlns:xlink="http://www.w3.org/1999/xlink" width="51" height="55.401" viewBox="0 0 51 55.401">
  <defs>
    <path id="path-2" fill-rule="evenodd" d="M0 0h42.28072727v55.33162817H0V0z"/>
    <mask id="mask-3" maskContentUnits="userSpaceOnUse" maskUnits="userSpaceOnUse">
      <rect width="51" height="55.401" x="0" y="0" fill="black"/>
      <use fill="white" xlink:href="#path-2"/>
    </mask>
  </defs>
  <g>
    <path fill="rgb(255,255,255)" fill-rule="evenodd" d="M50.7354248 53.88860783l-9.50276891-9.33456796c1.99089002-2.24494372 3.19987148-5.17374141 3.19987148-8.3777962 0-1.12832009-.15003119-2.24884253-.44612448-3.32803742-.12939198-.47331742-.62473303-.75325308-1.1057854-.62615137-.48105238.1271017-.76603225.61367513-.63664028 1.08621277.25481488.93025976.38420685 1.89482919.38420685 2.86797603 0 6.06657244-5.02406018 11.0024855-11.2007409 11.0024855-6.1758869 0-11.19994707-4.93591306-11.19994707-11.0024855 0-6.06657245 5.02406018-11.0024855 11.19994708-11.0024855 3.55867621 0 6.86730045 1.64374482 8.97964429 4.42672644l-1.94246725 1.21019543c-.29688711-.17310785-.6429908-.27525708-1.01290896-.27525708-1.09864106 0-1.99168384.8780155-1.99168384 1.95643063 0 .15517325.02063921.30566792.05556711.45070422l-5.88693795 4.90238316c-.25243342-.11306594-.53106277-.17778644-.82556843-.17778644-.47628948 0-.91288817.16453043-1.25581659.43900775l-4.26040938-1.76226912c-.45882553-.19026268-.98750685.02105366-1.1811979.47253765-.19369106.451484.02143302.97080754.48105236 1.16107023l4.23024439 1.74979287c.05477329 1.03084946.92320777 1.8519421 1.98612712 1.8519421 1.09784725 0 1.99089002-.87723573 1.99089002-1.95565086 0-.1341196-.01349487-.2658999-.03969079-.39222184l5.92662874-4.93513329c.23735092.0982504.4977225.1520542.77079514.1520542 1.09784725 0 1.99168383-.87723574 1.99168383-1.95643063 0-.0623812-.00396908-.12476242-.00952579-.1855841l7.73176587-4.81972805c.29768092.17310785.6429908.27447731 1.01370277.27447731 1.09864106 0 1.99168383-.87723573 1.99168383-1.95643062 0-1.07841513-.89304277-1.95643063-1.99168383-1.95643063-1.09864106 0-1.99168384.8780155-1.99168384 1.95643063 0 .06316097.00396908.12476241.0095258.18636386l-4.26517228 2.65899897c-2.44892174-3.29606706-6.32750572-5.24859886-10.50456444-5.24859886-6.89190875 0-12.54546486 5.294605-12.9749192 11.96003704l-6.38942336 3.6859496c-.30958816-.19572103-.67712487-.3103465-1.07165132-.3103465-1.09864106 0-1.99168384.87723573-1.99168384 1.95643063 0 1.07841512.89304278 1.95643062 1.99168384 1.95643062 1.09784725 0 1.99168383-.8780155 1.99168383-1.95643062 0-.03976802-.00396908-.07875628-.00635052-.11774453l5.507494-3.176763c.6287021 6.4720503 6.19255703 11.55144013 12.94316657 11.55144013 3.2617891 0 6.24415505-1.18758225 8.52955073-3.14245334l9.5027689 9.3337882c.17622712.17388761.4064337.25966177.6374341.25966177.23100039 0 .46200079-.08577416.6382279-.25966177.3524542-.34543594.3524542-.90686681 0-1.25308251"/>
    <g>
      <use fill="none" xlink:href="#path-2"/>
      <g mask="url(#mask-3)">
        <path fill="rgb(255,255,255)" fill-rule="evenodd" d="M40.5036717 52.0103609c0-.49536133.39794922-.89685058.8881836-.89685058.4909668 0 .88891601.40148925.88891601.89685058v2.42456055c0 .49523926-.39794921.89672851-.88891601.89672851H5.21155745c-.4909668 0-.88891602-.40148925-.88891602-.89672851v-2.32128906H.8881932c-.4909668 0-.8881836-.40063477-.8881836-.8959961V.8964693c0-.49523926.3972168-.89672852.8881836-.89672852h34.83312988c.4909668 0 .88891602.40148926.88891602.89672852v2.86865234h4.7816162c.4909668 0 .88891602.40075684.88891602.8959961V23.421982c0 .49523925-.39794921.89672851-.88891601.89672851-.49023438 0-.8881836-.40148926-.8881836-.89672851V5.55796832H6.09974104v45.64465332c0 .00476075.00158691.00952149.00158691.01501465 0 .00476074-.00158691.00952149-.00158691.01501465v2.30627441H40.5036717V52.0103609zM1.7771092 1.7924654v48.5283203h2.5456543V4.66111775c0-.49536133.39794922-.8959961.88891602-.8959961h29.62145996V1.7924654H1.7771092z"/>
      </g>
    </g>
    <path fill="rgb(255,255,255)" fill-rule="evenodd" d="M35.99976545 11.40091217c0-.5516938-.40176175-.99956006-.89745208-.99956006H11.89721754c-.49569033 0-.89745209.44786626-.89745209.99956006 0 .55257369.40176176 1.00043994.8974521 1.00043994h23.20509582c.49569033 0 .89745208-.44786625.89745208-1.00043994"/>
    <path fill="rgb(255,255,255)" fill-rule="evenodd" d="M23.99976545 16.40135211c0-.55145118-.40059329-1-.89405497-1H11.89460745c-.4942487 0-.894842.44854882-.894842 1 0 .5523307.4005933 1 .894842 1h11.21110303c.49346168 0 .89405497-.4476693.89405497-1"/>
    <path fill="rgb(255,255,255)" fill-rule="evenodd" d="M11.90918357 19.40135211c-.50229954 0-.90941812.44786626-.90941812 1.00043995 0 .5525737.40711858.99956005.90941812.99956005h6.1819636c.5014997 0 .90861828-.44698636.90861828-.99956005 0-.5525737-.40711857-1.00043995-.90861827-1.00043995h-6.1819636z"/>
  </g>
</svg>
