<svg xmlns="http://www.w3.org/2000/svg" xmlns:xlink="http://www.w3.org/1999/xlink" width="57.887" height="43.572" viewBox="0 0 57.887 43.572">
  <defs>
    <path id="path-1" fill-rule="evenodd" d="M12.19655429 0h43.57225714v43.57191143H12.19655429V0z"/>
    <mask id="mask-2" maskContentUnits="userSpaceOnUse" maskUnits="userSpaceOnUse">
      <rect width="57.887" height="43.572" x="0" y="0" fill="black"/>
      <use fill="white" xlink:href="#path-1"/>
    </mask>
    <path id="path-4" fill-rule="evenodd" d="M0 16.99886494h1.83151429v6.66272727H0v-6.66272727z"/>
    <mask id="mask-5" maskContentUnits="userSpaceOnUse" maskUnits="userSpaceOnUse">
      <rect width="57.887" height="43.572" x="0" y="0" fill="black"/>
      <use fill="white" xlink:href="#path-4"/>
    </mask>
    <path id="path-13" fill-rule="evenodd" d="M56.05562857 13.18822571h1.83151429v10.47608572h-1.83151429V13.1882257z"/>
    <mask id="mask-14" maskContentUnits="userSpaceOnUse" maskUnits="userSpaceOnUse">
      <rect width="57.887" height="43.572" x="0" y="0" fill="black"/>
      <use fill="white" xlink:href="#path-13"/>
    </mask>
  </defs>
  <g>
    <g>
      <use fill="none" xlink:href="#path-1"/>
      <g mask="url(#mask-2)">
        <path fill="rgb(40,40,40)" fill-rule="evenodd" d="M44.43377686 16.11842156c0 4.08226014-1.5283661 7.81221009-4.0388794 10.65522767l15.07879639 15.0784912c.3934784.39349366.3934784 1.03147889 0 1.42497254-.19674683.1964264-.45477295.2947998-.7124939.2947998-.25770569 0-.51542663-.0983734-.71247864-.2947998l-15.0784912-15.07879639c-2.84303284 2.51051331-6.57296754 4.0388794-10.65522767 4.0388794-8.88768005 0-16.11845398-7.2310791-16.11845398-16.11877442 0-8.88768005 7.23077393-16.11845397 16.11845398-16.11845397 8.88769531 0 16.11877442 7.23077392 16.11877442 16.11845397zM28.31500244 2.01453973c-7.7769928 0-14.10388183 6.32688904-14.10388183 14.10388183 0 7.77700806 6.32688903 14.1038971 14.10388183 14.1038971 7.77700806 0 14.10388184-6.32688904 14.10388184-14.1038971 0-7.7769928-6.32687378-14.10388183-14.10388184-14.10388183z"/>
      </g>
    </g>
    <g>
      <use fill="none" xlink:href="#path-4"/>
      <g mask="url(#mask-5)"/>
    </g>
    <path fill="rgb(225,68,43)" fill-rule="evenodd" d="M19 14.88622857c-.5525741 0-1 .45821663-1 1.02269101v6.95461798c0 .56479348.4474259 1.02269101 1 1.02269101s1-.45789753 1-1.02269101v-6.95461798c0-.56447438-.4474259-1.022691-1-1.022691"/>
    <path fill="rgb(111,187,70)" fill-rule="evenodd" d="M24.00015598 12.88622857c-.5524879 0-1.00015598.43973034-1.00015598.9821155v9.035769c0 .54238516.44766807.9821155 1.00015598.9821155.55217595 0 .99984402-.43973034.99984402-.9821155v-9.035769c0-.54238516-.44766807-.9821155-.99984402-.9821155"/>
    <path fill="rgb(225,68,43)" fill-rule="evenodd" d="M29 5.88622857c-.55226209 0-1 .46494465-1 1.03843039v15.92313923c0 .57348573.44773791 1.03843038 1 1.03843038.5525741 0 1-.46494465 1-1.03843038V6.92465896c0-.57348574-.4474259-1.03843039-1-1.03843039"/>
    <path fill="rgb(111,187,70)" fill-rule="evenodd" d="M34 5.88622857c-.5525741 0-1 .46494465-1 1.03843039v15.92313923c0 .57348573.4474259 1.03843038 1 1.03843038.55226209 0 1-.46494465 1-1.03843038V6.92465896c0-.57348574-.44773791-1.03843039-1-1.03843039"/>
    <path fill="rgb(111,187,70)" fill-rule="evenodd" d="M40 22.8935929v-7.01472866c0-.54819505-.44773791-.99263567-1-.99263567-.55226209 0-1 .44444062-1 .99263567v7.01472866c0 .54819505.44773791.99263567 1 .99263567.55226209 0 1-.44444062 1-.99263567"/>
    <path fill="rgb(225,68,43)" fill-rule="evenodd" d="M47 22.88622857c.55226209 0 1-.42640122 1-.95234558v-6.09530884c0-.52594436-.44773791-.95234558-1-.95234558-.5525741 0-1 .42640122-1 .95234558v6.09530884c0 .52594436.4474259.95234558 1 .95234558"/>
    <path fill="rgb(225,68,43)" fill-rule="evenodd" d="M52 23.88622857c.5525741 0 1-.47486231 1-1.06058099V10.94680956c0-.58571867-.4474259-1.06058099-1-1.06058099s-1 .47486232-1 1.060581v11.87883801c0 .58571868.4474259 1.060581 1 1.060581"/>
    <g>
      <use fill="none" xlink:href="#path-13"/>
      <g mask="url(#mask-14)">
        <path fill="rgb(111,187,70)" fill-rule="evenodd" d="M56.97134286 13.18822571c-.50571429 0-.91571429.451-.91571429 1.00728572v8.46151428c0 .55628572.41 1.00728572.91571429 1.00728572.506 0 .916-.451.916-1.00728572v-8.46151428c0-.55628572-.41-1.00728572-.916-1.00728572"/>
      </g>
    </g>
  </g>
</svg>
