<svg xmlns="http://www.w3.org/2000/svg" xmlns:xlink="http://www.w3.org/1999/xlink" width="78.231" height="77.915" viewBox="0 0 78.231 77.915">
  <defs>
    <path id="path-1" fill-rule="evenodd" d="M32.2783 0h27.92581891v30.6768H32.2783V0z"/>
    <mask id="mask-2" maskContentUnits="userSpaceOnUse" maskUnits="userSpaceOnUse">
      <rect width="78.231" height="77.915" x="0" y="0" fill="black"/>
      <use fill="white" xlink:href="#path-1"/>
    </mask>
    <path id="path-5" fill-rule="evenodd" d="M51.60335 51.28825H78.2306V77.915H51.60335V51.28825z"/>
    <mask id="mask-6" maskContentUnits="userSpaceOnUse" maskUnits="userSpaceOnUse">
      <rect width="78.231" height="77.915" x="0" y="0" fill="black"/>
      <use fill="white" xlink:href="#path-5"/>
    </mask>
    <path id="path-9" fill-rule="evenodd" d="M0 6.77268438h31.10361641V34.8744H0V6.77268438z"/>
    <mask id="mask-10" maskContentUnits="userSpaceOnUse" maskUnits="userSpaceOnUse">
      <rect width="78.231" height="77.915" x="0" y="0" fill="black"/>
      <use fill="white" xlink:href="#path-9"/>
    </mask>
    <path id="path-14" fill-rule="evenodd" d="M33.1457 28.0003h1.449V40.553h-1.449V28.0003z"/>
    <mask id="mask-15" maskContentUnits="userSpaceOnUse" maskUnits="userSpaceOnUse">
      <rect width="78.231" height="77.915" x="0" y="0" fill="black"/>
      <use fill="white" xlink:href="#path-14"/>
    </mask>
    <path id="path-17" fill-rule="evenodd" d="M36.6222 28.0003h1.448V40.553h-1.448V28.0003z"/>
    <mask id="mask-18" maskContentUnits="userSpaceOnUse" maskUnits="userSpaceOnUse">
      <rect width="78.231" height="77.915" x="0" y="0" fill="black"/>
      <use fill="white" xlink:href="#path-17"/>
    </mask>
    <path id="path-20" fill-rule="evenodd" d="M40.1951 33.9871h1.4479v6.566h-1.4479v-6.566z"/>
    <mask id="mask-21" maskContentUnits="userSpaceOnUse" maskUnits="userSpaceOnUse">
      <rect width="78.231" height="77.915" x="0" y="0" fill="black"/>
      <use fill="white" xlink:href="#path-20"/>
    </mask>
  </defs>
  <g>
    <g>
      <g>
        <use fill="none" xlink:href="#path-1"/>
        <g mask="url(#mask-2)">
          <path fill="rgb(30,34,53)" fill-rule="evenodd" d="M43.9263 20.5568c2.855 2.298 4.88 5.517 5.702 9.063.139.601.673 1.006 1.264 1.006.097 0 .196-.01.294-.034.698-.162 1.133-.859.971-1.557-.952-4.111-3.298-7.84-6.604-10.5-3.039-2.447-6.792-3.893-10.679-4.145v-5.275c5.385.27 10.54 2.326 14.632 5.861 4.355 3.762 7.237 8.948 8.117 14.602.1.641.652 1.099 1.281 1.099.066 0 .134-.005.201-.016.709-.11 1.194-.773 1.083-1.482-.974-6.262-4.165-12.004-8.985-16.168-4.563-3.942-10.32-6.225-16.329-6.498v-5.215c0-.717-.581-1.298-1.298-1.298-.717 0-1.298.581-1.298 1.298v18.346c0 .717.581 1.299 1.298 1.299.717 0 1.298-.582 1.298-1.299v-2.655c3.323.24 6.431 1.46 9.052 3.568"/>
        </g>
      </g>
      <path fill="rgb(30,34,53)" fill-rule="evenodd" d="M54.2046 50.8c3.809-4.439 6.014-10.055 6.277-15.926h5.2c.717 0 1.298-.581 1.298-1.298 0-.716-.581-1.297-1.298-1.297h-18.346c-.717 0-1.298.581-1.298 1.297 0 .717.581 1.298 1.298 1.298h2.67c-.499 6.873-5.295 12.557-12.254 14.346-.694.179-1.112.887-.934 1.581.151.586.679.975 1.257.975.107 0 .215-.014.324-.041 4.024-1.036 7.641-3.337 10.185-6.481 2.411-2.979 3.787-6.547 4.024-10.38h5.275c-.252 5.305-2.191 10.205-5.648 14.236-3.601 4.196-8.63 7.068-14.16 8.086-.705.129-1.172.806-1.042 1.511.115.625.661 1.064 1.275 1.064.078 0 .157-.007.237-.022 6.112-1.125 11.674-4.303 15.66-8.949"/>
      <g>
        <use fill="none" xlink:href="#path-5"/>
        <g mask="url(#mask-6)">
          <path fill="rgb(30,34,53)" fill-rule="evenodd" d="M76.9136 70.2385l-18.57-18.57c-.507-.507-1.329-.507-1.836 0-.507.507-.507 1.329 0 1.836l18.571 18.57c.358.359.556.836.556 1.344 0 .508-.198.985-.556 1.343-.359.36-.837.557-1.344.557-.508 0-.985-.197-1.344-.557l-18.571-18.57c-.507-.507-1.328-.507-1.836 0-.507.507-.507 1.329 0 1.836l18.571 18.57c.849.85 1.979 1.318 3.18 1.318s2.33-.468 3.179-1.318c.85-.849 1.317-1.978 1.317-3.179 0-1.201-.467-2.33-1.317-3.18"/>
        </g>
      </g>
      <path fill="rgb(30,34,53)" fill-rule="evenodd" d="M33.5766 46.0383c-.717 0-1.298.581-1.298 1.298v2.366c-3.451-.199-6.621-1.398-9.219-3.504-2.826-2.29-4.713-5.429-5.458-9.076-.143-.703-.828-1.156-1.531-1.013-.702.144-1.155.829-1.012 1.532.853 4.183 3.114 7.938 6.366 10.574 3.065 2.484 6.799 3.885 10.854 4.088v5.271c-5.473-.225-10.661-2.239-14.708-5.729-4.264-3.68-7.072-8.824-7.906-14.485-.105-.71-.765-1.2-1.473-1.094-.71.104-1.2.763-1.095 1.472.925 6.279 4.043 11.986 8.778 16.072 4.517 3.897 10.307 6.133 16.404 6.36v5.512c0 .716.581 1.297 1.298 1.297.717 0 1.298-.581 1.298-1.297v-18.346c0-.717-.581-1.298-1.298-1.298"/>
      <g>
        <use fill="none" xlink:href="#path-9"/>
        <g mask="url(#mask-10)">
          <path fill="rgb(30,34,53)" fill-rule="evenodd" d="M20.9419 33.5764c0-.717-.581-1.298-1.298-1.298h-2.351c.445-7.432 5.532-13.521 12.682-14.998.702-.144 1.154-.831 1.009-1.533-.145-.702-.832-1.154-1.534-1.009-8.368 1.728-14.308 8.86-14.758 17.54h-5.271c.238-5.46 2.313-10.69 5.904-14.829 3.784-4.362 8.996-7.237 14.675-8.096.708-.106 1.196-.768 1.089-1.476-.107-.709-.768-1.197-1.478-1.09-6.288.95-12.058 4.132-16.247 8.961-4.001 4.61-6.299 10.444-6.54 16.53h-5.526c-.717 0-1.298.581-1.298 1.298 0 .717.581 1.298 1.298 1.298h18.346c.717 0 1.298-.581 1.298-1.298"/>
        </g>
      </g>
    </g>
    <g>
      <path fill="rgb(30,34,53)" fill-rule="evenodd" d="M26.7242 34.1802c-.4 0-.724.324-.724.724v4.925c0 .4.324.724.724.724.4 0 .724-.324.724-.724v-4.925c0-.4-.324-.724-.724-.724"/>
      <path fill="rgb(30,34,53)" fill-rule="evenodd" d="M30.2969 32.4419c-.4 0-.724.324-.724.724v6.663c0 .4.324.724.724.724.4 0 .724-.324.724-.724v-6.663c0-.4-.324-.724-.724-.724"/>
      <g>
        <use fill="none" xlink:href="#path-14"/>
        <g mask="url(#mask-15)">
          <path fill="rgb(30,34,53)" fill-rule="evenodd" d="M33.8697 28c-.4 0-.724.324-.724.725v11.104c0 .4.324.724.724.724.4 0 .725-.324.725-.724V28.725c0-.401-.325-.725-.725-.725"/>
        </g>
      </g>
      <g>
        <use fill="none" xlink:href="#path-17"/>
        <g mask="url(#mask-18)">
          <path fill="rgb(30,34,53)" fill-rule="evenodd" d="M37.3462 28c-.4 0-.724.324-.724.725v11.104c0 .4.324.724.724.724.4 0 .724-.324.724-.724V28.725c0-.401-.324-.725-.724-.725"/>
        </g>
      </g>
      <g>
        <use fill="none" xlink:href="#path-20"/>
        <g mask="url(#mask-21)">
          <path fill="rgb(30,34,53)" fill-rule="evenodd" d="M41.6431 39.8291v-5.118c0-.4-.324-.724-.724-.724-.4 0-.724.324-.724.724v5.118c0 .4.324.724.724.724.4 0 .724-.324.724-.724"/>
        </g>
      </g>
    </g>
  </g>
</svg>
