<svg xmlns="http://www.w3.org/2000/svg" xmlns:xlink="http://www.w3.org/1999/xlink" width="71.876" height="71.676" viewBox="0 0 71.876 71.676">
  <defs>
    <path id="path-1" fill-rule="evenodd" d="M0 2.4469h69.2289v69.2289H0V2.4469z"/>
    <mask id="mask-2" maskContentUnits="userSpaceOnUse" maskUnits="userSpaceOnUse">
      <rect width="71.876" height="71.676" x="0" y="0" fill="black"/>
      <use fill="white" xlink:href="#path-1"/>
    </mask>
  </defs>
  <g>
    <g>
      <use fill="none" xlink:href="#path-1"/>
      <g mask="url(#mask-2)">
        <path fill="rgb(30,34,53)" fill-rule="evenodd" d="M60.7979 16.2089c-.531.399-.638 1.153-.238 1.685 4.097 5.441 6.263 12.069 6.263 19.168 0 17.759-14.449 32.209-32.209 32.209-17.759 0-32.208-14.45-32.208-32.209 0-17.76 14.449-32.209 32.208-32.209 6.41 0 12.599 1.877 17.902 5.428.552.37 1.299.222 1.668-.33.37-.552.222-1.299-.329-1.669-5.701-3.817-12.353-5.835-19.241-5.835-9.246 0-17.938 3.601-24.475 10.138-6.538 6.538-10.139 15.23-10.139 24.477 0 9.246 3.601 17.938 10.139 24.476 6.537 6.537 15.229 10.138 24.475 10.138 9.247 0 17.939-3.601 24.477-10.138 6.537-6.538 10.138-15.23 10.138-24.476 0-7.624-2.333-14.753-6.747-20.616-.4-.531-1.154-.637-1.684-.237"/>
      </g>
    </g>
    <path fill="rgb(30,34,53)" fill-rule="evenodd" d="M5.0352 36.0644c-.664 0-1.202.538-1.202 1.203 0 .664.538 1.202 1.202 1.202h.802c.665 0 1.203-.538 1.203-1.202 0-.665-.538-1.203-1.203-1.203h-.802z"/>
    <path fill="rgb(30,34,53)" fill-rule="evenodd" d="M64.2178 38.4697c.664 0 1.203-.538 1.203-1.202 0-.665-.539-1.203-1.203-1.203h-1.123c-.664 0-1.202.538-1.202 1.203 0 .664.538 1.202 1.202 1.202h1.123z"/>
    <path fill="rgb(30,34,53)" fill-rule="evenodd" d="M35.8291 66.8583v-.963c0-.664-.538-1.202-1.202-1.202-.665 0-1.203.538-1.203 1.202v.963c0 .664.538 1.203 1.203 1.203.664 0 1.202-.539 1.202-1.203"/>
    <path fill="rgb(30,34,53)" fill-rule="evenodd" d="M33.4239 7.6757v.963c0 .664.538 1.202 1.203 1.202.664 0 1.202-.538 1.202-1.202v-.963c0-.664-.538-1.203-1.202-1.203-.665 0-1.203.539-1.203 1.203"/>
    <path fill="rgb(30,34,53)" fill-rule="evenodd" d="M13.419 56.7734l-.567.567c-.47.47-.47 1.232.001 1.702.234.234.542.351.849.351.309 0 .616-.117.851-.351l.567-.568c.47-.47.47-1.231 0-1.701s-1.231-.47-1.701 0"/>
    <path fill="rgb(30,34,53)" fill-rule="evenodd" d="M55.5508 59.3935c.308 0 .615-.117.851-.352.469-.469.469-1.231 0-1.701l-.681-.68c-.47-.47-1.232-.47-1.701 0-.47.469-.47 1.231 0 1.701l.68.68c.235.235.543.352.851.352"/>
    <path fill="rgb(30,34,53)" fill-rule="evenodd" d="M15.2334 16.1728l-.681-.681c-.468-.469-1.23-.469-1.7 0-.471.47-.471 1.232-.001 1.702l.681.68c.235.236.543.353.85.353.308 0 .617-.117.851-.353.47-.47.47-1.231 0-1.701"/>
    <path fill="rgb(30,34,53)" fill-rule="evenodd" d="M71.5235.3525c-.47-.47-1.231-.47-1.701 0l-35.387 35.387-10.645-9.95c-.486-.454-1.246-.427-1.701.058-.453.485-.427 1.246.058 1.7l11.495 10.743c.232.217.527.325.821.325.309 0 .617-.118.851-.353l36.209-36.209c.47-.47.47-1.231 0-1.701"/>
  </g>
</svg>
