<svg xmlns="http://www.w3.org/2000/svg" xmlns:xlink="http://www.w3.org/1999/xlink" width="60.773" height="66.591" viewBox="0 0 60.773 66.591">
  <defs>
    <path id="path-1" fill-rule="evenodd" d="M15.64750243 29.7339769H60.7725477v36.85677284H15.64750243V29.7339769z"/>
    <mask id="mask-2" maskContentUnits="userSpaceOnUse" maskUnits="userSpaceOnUse">
      <rect width="60.773" height="66.591" x="0" y="0" fill="black"/>
      <use fill="white" xlink:href="#path-1"/>
    </mask>
    <path id="path-5" fill-rule="evenodd" d="M0 0h56.59266485v45.84327778H0V0z"/>
    <mask id="mask-6" maskContentUnits="userSpaceOnUse" maskUnits="userSpaceOnUse">
      <rect width="60.773" height="66.591" x="0" y="0" fill="black"/>
      <use fill="white" xlink:href="#path-5"/>
    </mask>
  </defs>
  <g>
    <g>
      <use fill="none" xlink:href="#path-1"/>
      <g mask="url(#mask-2)">
        <path fill="rgb(255,255,255)" fill-rule="evenodd" d="M58.6618702 58.40049624c-.22564697.57177734-.51904296 1.08618164-.86621093 1.53466797 1.66729736.1586914 2.97698974 1.58666992 2.97698974 3.3203125 0 1.83935547-1.47460937 3.33520508-3.2859497 3.33520508H46.13684579c-.54418945 0-.98425293-.4465332-.98425293-.99902344 0-.55126953.44006348-.9987793.98425293-.9987793h11.34985352c.72644043 0 1.31665039-.60009766 1.31665039-1.33740234 0-.73730469-.59020996-1.33642578-1.3166504-1.33642578h-8.38586425c-.54333496 0-.98425293-.44750977-.98425293-.99975586 0-.55151368.44091797-.99902344.98425293-.99902344h4.79870605c1.50671387 0 2.50396729-1.1682129 2.93444825-2.26245117.272583-.69140625.31158447-1.4675293.1085205-2.18457032L54.2554371 45.9808185c-.39056397.23095704-.81585693.40893555-1.2645874.5234375-.10412598.05273438-.22045899.08984375-.34454346.10302735l-9.06463623.93896484c-.03381348.00366211-.0668335.0053711-.09979248.0053711-.2855835 0-.55895996-.12597657-.74731445-.3479004l-2.1272583-2.51245117c-.052063.07470703-.10852051.14794922-.168396.21826172l-1.0388794 1.2097168 3.50378418 3.83374023 8.55950928-.71972656c.54156494-.04394531 1.01721192.36401367 1.0623169.91357422.04510498.54980469-.35760498 1.03344726-.89916993 1.0793457L43.7049 51.8912189l-2.54296875 11.57226563c-.059021.27026367.00518799.55126953.17614746.7680664.1710205.21679688.42614746.3400879.69958496.3400879.40270996 0 .75854492-.27490235.86529541-.66870118l2.4397583-9.0024414c.08154297-.30029297.29504395-.5444336.57885742-.6616211.284729-.11621093.60583497-.09326171.86883545.06518555l3.41003418 2.03417969c.46868897.27929687.62579346.89160156.348938 1.3671875-.2751465.47583008-.87750245.6352539-1.3470459.35595703l-2.30169678-1.37426758-2.09954834 7.74536133c-.34020996 1.25878906-1.47717286 2.13793945-2.76342774 2.13793945-.87402344 0-1.68988037-.39624023-2.2357788-1.08886718-.54681397-.69311524-.75250245-1.58642579-.56158448-2.45336914l2.50482178-11.4038086-3.64611817-3.98999023-3.42572021 3.98901367 2.5057373 11.40478516c.19091797.8659668-.01391601 1.7602539-.56072998 2.45263671-.54675293.69335938-1.36260986 1.08959961-2.2366333 1.08959961-1.28625488 0-2.42321777-.87915039-2.76342773-2.13793945l-2.09954834-7.74536133-2.30084229 1.37426758c-.46868896.27929688-1.0727539.11987305-1.34790039-.35595703-.27600097-.47558594-.11975097-1.08789063.348938-1.3671875l3.41003417-2.03417969c.26385498-.15844726.58502197-.18139648.86877441-.06518555.28381348.1171875.4973755.36132813.57891846.6616211l2.4397583 9.0024414c.1067505.39379883.46343994.66870118.86529541.66870118.2734375 0 .52856446-.12329102.69958496-.3400879.17095948-.21679687.23608399-.49780273.17529297-.7680664l-2.54125976-11.57226563-7.92156983-.66503906c-.54156494-.04589844-.9442749-.52954101-.90002441-1.0793457.04510498-.54956055.51989746-.9584961 1.0623169-.91357422l8.54125976.71801758 5.45666504-6.35424805c.31243896-.36376953.27600097-.91967773-.07989502-1.23852539-.17614746-.1586914-.40270996-.23706055-.63702393-.21850586-.23522949.01757813-.44787597.12768555-.59973144.3100586l-3.94647217 4.74658203c-.21087647.25268554-.53027344.3840332-.85314941.34960937l-9.06549073-.93896484c-.12408447-.0131836-.23956299-.05029297-.34368896-.10302735-.44873047-.11450195-.87310791-.29248046-1.2645874-.5234375l-2.68707276 9.49243164c-.203125.71704102-.1640625 1.49316407.109375 2.18457032.43048096 1.09326172 1.42773438 2.26245117 2.93359375 2.26245117h4.79870606c.54418945 0 .98510742.44750976.98510742.99902344 0 .55224609-.44091797.99975586-.98510742.99975586h-8.38500977c-.72644043 0-1.31750488.59912109-1.31750488 1.33642578 0 .73730468.59106445 1.33740234 1.31750488 1.33740234h11.34899902c.54418946 0 .98510743.44750977.98510743.9987793 0 .55249023-.44091797.99902344-.98510743.99902344H18.93347665c-1.81219482 0-3.2859497-1.49584961-3.2859497-3.33520508 0-1.73364258 1.30883788-3.1616211 2.97613525-3.3203125-.34716797-.44848633-.64056397-.96289063-.86706543-1.53466797-.43395996-1.10205078-.49475098-2.33789063-.171875-3.47875977l2.85809326-10.09765625c.0321045-.11450195.08502197-.21923828.15014648-.31079101-.55633545-.80786133-.88439941-1.7902832-.88439941-2.84985352 0-2.7512207 2.2053833-4.9897461 4.91674805-4.9897461 2.71057129 0 4.91595459 2.2385254 4.91595459 4.9897461 0 1.31079102-.50079346 2.50439453-1.31750489 3.3959961l4.2970581.44482421 3.6114502-4.34399414c.49645997-.59643554 1.19256592-.95654297 1.96063233-1.01391601.76727295-.05810547 1.5076294.19555664 2.08477783.71264648.40447998.36303711.67871094.81933594.82714844 1.30908203.08502197.05297852.16314697.11889649.23168945.19995118L43.8924 45.50523257l4.30316162-.44580078c-.69952392-.76464844-1.1673584-1.75048829-1.28625488-2.84204102l-4.20159912-.92041016c-.53118897-.11645507-.86968994-.6484375-.75512696-1.18774414.11541748-.5390625.63879395-.88183593 1.1708374-.76538086l3.96728516.86865235c.15014649-.49951172.37579346-.96655274.66308594-1.38574219l-4.85083008-1.15673828c-.36975097-.08813477-.65704345-.38330078-.73773193-.7602539l-1.2767334-5.96411134c-.11627197-.5390625.22045898-1.07128906.75250244-1.18847656.53118897-.11791992 1.05627442.22460938 1.1708374.76391602l1.14562989 5.3474121 5.6241455 1.34082032c.66748047-.34179688 1.4173584-.53564453 2.21240235-.53564453 2.71136474 0 4.91674805 2.23852539 4.91674805 4.9897461 0 1.0595703-.32806397 2.04199218-.88439942 2.8498535.065979.09155274.118042.19628907.15014649.31079102l2.85809326 10.09667969c.32287597 1.1418457.26208496 2.37768555-.1727295 3.47973633zM21.6787159 41.66319155c0-1.64892578 1.3209839-2.99072266 2.94659425-2.99072266 1.62475586 0 2.94750976 1.34179688 2.94750976 2.99072266 0 1.65014649-1.3227539 2.99194336-2.94750976 2.99194336-1.62561036 0-2.94659424-1.34179687-2.94659424-2.99194336zm30.11523438 2.99194336c-1.62475586 0-2.94744873-1.34179687-2.94744873-2.99194336 0-1.64892578 1.32269287-2.99072266 2.94744873-2.99072266 1.62567139 0 2.94750977 1.34179688 2.94750977 2.99072266 0 1.65014649-1.32183838 2.99194336-2.94750977 2.99194336z"/>
      </g>
    </g>
    <path fill="rgb(255,255,255)" fill-rule="evenodd" d="M42.27704354 28.74107241c-.7312622 0-1.42333984-.17700195-2.04205322-.49023437l-.06921386.09423828c-.90557862 1.2392578-1.35418702 2.78173828-1.26245118 4.34326172l.34436035 5.84179687c.03253174.55029297-.36273193 1.0246582-.88470459 1.05810547-.02001953.00170898-.04003906.00268555-.05999755.00268555-.49536133 0-.911438-.4074707-.94226075-.9375l-.34521484-5.84082032c-.12091064-2.04589843.46612549-4.0661621 1.65264893-5.68774414l.06091308-.08374023c-.73046875-.87841797-1.17492676-2.02807617-1.17492676-3.28613281 0-2.75 2.11883545-4.98681641 4.7229004-4.98681641.94061279 0 1.81695556.29296875 2.55407714.7956543V13.5901935c0-.55200195.4227295-.99926757.94555664-.99926757.5220337 0 .94561768.44726562.94561768.99926757v8.19555664c0 .07495118-.00836182.14794922-.02337647.21826172.1942749.54492188.3010254 1.13476563.3010254 1.75097657 0 2.74926757-2.11877442 4.98608398-4.7229004 4.98608398zm2.83172608-4.98608398c0-1.64868164-1.27075195-2.98950196-2.83172608-2.98950196-1.56097412 0-2.83172607 1.34082032-2.83172607 2.98950196 0 1.64794921 1.27075195 2.98876953 2.83172607 2.98876953 1.56097413 0 2.83172608-1.34082032 2.83172608-2.98876953z"/>
    <g>
      <use fill="none" xlink:href="#path-5"/>
      <g mask="url(#mask-6)">
        <path fill="rgb(255,255,255)" fill-rule="evenodd" d="M29.39886972 27.83433413c-.38409424.3864746-1.01019287.39355469-1.40216065.01489258l-4.79156494-4.62329102L1.71442147 45.53867983c-.19555664.20263672-.45776367.3046875-.7199707.3046875-.24725342 0-.49456787-.09057617-.6875-.27416992-.3963623-.3762207-.41125488-1.00097656-.03070068-1.39526367l22.1843872-23.03271485c.18328858-.19042968.43585206-.30029296.7006836-.30541992.26043701-.00268554.52087402.09667969.71118164.28027344l4.80377197 4.63378906 17.078125-17.19506836c.16394043-1.22021484 1.12945557-2.18969726 2.3536377-2.36987304l1.66351318-1.67456055-1.2224121-1.57373047c-.20874024-.2680664-.26397706-.62329101-.14648438-.94165039.11663818-.3178711.3894043-.55444336.72351074-.62670898L55.3873951.02183413c.37445068-.08007813.76379394.06079101.9979248.36206055.23413086.30200195.2736206.7109375.09997559 1.04956054l-2.90002442 5.67041016c-.1552124.30297851-.45507812.50488281-.7935791.53613281-.0324707.00268555-.06317138.00439453-.09387207.00439453-.30603027 0-.59716797-.14013672-.78747558-.38378906l-.91107178-1.17333984-.6998291.70507812c.61560058.50830078 1.0076294 1.27416992 1.0076294 2.12890625V33.4795978c0 .54589844-.44549561.98803711-.9944458.98803711-.54986573 0-.99444581-.44213867-.99444581-.9880371V8.92124818c0-.3071289-.17712402-.5727539-.4331665-.70581055L29.39886972 27.83433413zM52.5233204 4.81651186l1.23999023-2.42480468-2.67724609.57617187 1.43725586 1.84863281z"/>
      </g>
    </g>
  </g>
</svg>
