<svg xmlns="http://www.w3.org/2000/svg" xmlns:xlink="http://www.w3.org/1999/xlink" width="71" height="70" viewBox="0 0 71 70">
  <defs>
    <path id="path-1" fill-rule="evenodd" d="M0 .3496h9.29177778v1.991H0V.3496z"/>
    <mask id="mask-2" maskContentUnits="userSpaceOnUse" maskUnits="userSpaceOnUse">
      <rect width="71" height="70" x="0" y="0" fill="black"/>
      <use fill="white" xlink:href="#path-1"/>
    </mask>
    <path id="path-5" fill-rule="evenodd" d="M61.32033333 52.2752h9.2918889v1.991h-9.2918889v-1.991z"/>
    <mask id="mask-6" maskContentUnits="userSpaceOnUse" maskUnits="userSpaceOnUse">
      <rect width="71" height="70" x="0" y="0" fill="black"/>
      <use fill="white" xlink:href="#path-5"/>
    </mask>
  </defs>
  <g>
    <g>
      <use fill="none" xlink:href="#path-1"/>
      <g mask="url(#mask-2)">
        <path fill="rgb(30,34,53)" fill-rule="evenodd" d="M1.10622222 2.3406h7.0788889c.6111111 0 1.10666666-.446 1.10666666-.996S8.79622222.3496 8.1851111.3496H1.10622222c-.6111111 0-1.10666666.445-1.10666666.995s.49555555.996 1.10666666.996"/>
      </g>
    </g>
    <path fill="rgb(30,34,53)" fill-rule="evenodd" d="M61.07186416 2h6.85627168C68.5200287 2 69 1.55198393 69 .99949774S68.5200287 0 67.92813584 0h-6.85627168C60.4799713 0 60 .44701155 60 .99949774S60.4799713 2 61.07186416 2"/>
    <g>
      <use fill="none" xlink:href="#path-5"/>
      <g mask="url(#mask-6)">
        <path fill="rgb(30,34,53)" fill-rule="evenodd" d="M69.50588889 52.2752h-7.08c-.61 0-1.10555556.446-1.10555556.996s.49555556.995 1.10555556.995h7.08c.61111111 0 1.10666667-.445 1.10666667-.995s-.49555556-.996-1.10666667-.996"/>
      </g>
    </g>
    <path fill="rgb(30,34,53)" fill-rule="evenodd" d="M61.59845813 64.74650279h-8.1742191l-5.61757992-7.1724821c3.63097157-2.07579804 6.75084197-4.9653904 9.10009417-8.42429923.00226653-.00226368.00453305-.00339552.00566631-.0056592l.00339979-.00679106c.17565562-.26032364.3490447-.52291096.51676749-.7888938.33091252-.52743832.17225583-1.22238925-.35584428-1.55401892-.45330482-.28409232-1.03126846-.20486339-1.39504557.15732602L37.66169734 34.7787249l21.69403521-1.03110796c0 .02263684.00113326.04414184.00113326.06791052 0 3.24838624-.50203508 6.07799098-1.56276835 8.81478468l-1.25565434-1.28237687c-.43630588-.44368202-1.15026097-.45160491-1.59563295-.01584578-.44537198.43462728-.45330481 1.14768768-.01699893 1.59250154l6.91856475 7.0615616.0056663.00339552c.05213006.05319657.10879316.10073393.17112258.14261208.01926545.0135821.04079743.02037315.06006288.03282341.04419722.02603236.08726118.05206473.13485819.07243788.03513112.0135821.07026224.021505.10539337.03282342.03513112.01018657.07026224.02376868.10765989.03169157.07252877.01471395.1461908.02263684.21985284.02263684H69.871271C70.49456513 50.32457335 71 49.81977186 71 49.19839066c0-.62251304-.50543487-1.12731453-1.128729-1.12731453h-6.74517565l-3.61397264-3.6875409c1.42904343-3.29705544 2.10106782-6.66088955 2.10106782-10.56800777 0-5.04688302-1.38711273-9.97945-4.01174762-14.26233973-.3252462-.52970201-1.01993583-.69721461-1.55143573-.37350783-.5314999.32483863-.69922268 1.01978955-.37397647 1.54949156 2.00360728 3.27102308 3.21846419 6.9540366 3.57090868 10.76721195l-23.97302517 1.14089663V8.73843841c6.55025459.26371916 12.77639623 2.98127156 17.24598171 7.55730834L50.0697834 20.3737731c-.32071315.53422938-.14732406 1.22578477.38644236 1.54609603.18245519.10865682.3819093.16072155.58023016.16072155.38304257 0 .75701904-.1946768.96893905-.54781148l9.7800514-16.27928199h6.58198591c.62216086 0 1.12759573-.50480148 1.12759573-1.12618268C69.49502801 3.50593333 68.98959314 3 68.36743228 3h-7.22001245c-.01019935 0-.01926545.00226368-.02833155.00339553-.04079743.00113184-.08272813.00679105-.12352556.01245026-.03399786.00452736-.06686246.00792289-.09972706.01471394-.03513112.0079229-.07026225.02037316-.1042601.03282342-.03513113.01131842-.07026225.021505-.10312685.03621894-.0328646.01471394-.06346268.03282341-.09519401.05093288-.03173134.01810947-.06346268.03395526-.0929275.05546026-.0294648.02037315-.0566631.04527367-.08386138.06904235-.02833155.02376868-.0566631.04640552-.08159487.07243788-.0237985.02376868-.04306396.05206473-.06459593.07922893-.02606503.03169158-.05213006.06338315-.07366204.0973384-.0056663.00905474-.01246588.0158458-.01699893.02376869l-6.46525993 10.7604209C48.61240842 9.3134141 41.55671897 6.457777 34.22111379 6.457777c-.01586567 0-.03173134.00113184-.047597.00113184-.0090661 0-.0181322-.00339552-.0271983-.00339552-.0147324 0-.02833155.00452737-.04306395.00452737-6.22387512.0271642-12.27322788 2.18445485-17.10092417 6.08478203l-7.7945763-9.1475462C8.99356754 3.14487576 8.67965396 3 8.34874144 3H1.128729C.50543487 3 0 3.50593333 0 4.12731453c0 .6213812.50543487 1.12618268 1.128729 1.12618268h6.6987119L19.5238384 18.9793439c.22211937.26258732.53943274.39614466.85901263.39614466.25838375 0 .51790075-.08715183.73095402-.26824653.47370353-.40406756.5314999-1.11486427.1280586-1.58910602l-2.77649199-3.25630914c4.1375397-3.32874701 9.2485515-5.2653285 14.55221784-5.51886108V33.3978778L16.96493272 52.0415775c-4.84696174-4.5794323-7.87957095-11.05356795-7.87957095-18.22605004 0-5.5516845 1.77695487-10.81248563 5.13934334-15.21421877.37850952-.49348306.28331551-1.20088425-.21192-1.57891944-.49523551-.37690335-1.20352428-.28182863-1.5820338.21278627-3.66496944 4.7978778-5.60171426 10.530657-5.60171426 16.58035194 0 15.08405694 12.28796028 27.35775046 27.39207674 27.35775046 2.90681713 0 5.76943704-.4538686 8.50739813-1.34689186.59269604-.19354496.91567572-.82850826.72302118-1.42046158-.19378781-.59082146-.83068108-.9133964-1.42337712-.72098328-2.51130868.81832169-5.13821009 1.2348395-7.8070422 1.2348395-5.86803083 0-11.26802444-2.02486515-15.54948843-5.4034132l15.70247881-18.23736847 20.01227435 13.5187196c-2.13393242 2.86016447-4.85942762 5.24608719-7.98609759 6.97893713l-1.81321926-2.31574852c-.38417583-.4889557-1.09359787-.57610752-1.58430033-.19354496-.49070246.3836944-.57683038 1.09109559-.19378781 1.58231497l9.17602273 11.71795915c.01133262.0135821.02606503.02376868.03739765.03735078.03513112.0407463.0713955.07809709.11219294.11318419.02266524.02037315.04533048.03961446.07026224.05772393.04079744.03055974.08499466.05772394.13032514.08149262.02493176.0135821.04873027.02942789.0747953.0407463.05213005.02376869.10765989.04074632.16432299.0565921.02039872.00565921.03966417.01471395.06006289.01924132.07706182.01584578.15752342.02603236.23911829.02603236H61.59845813c.62329412 0 1.12759572-.50366964 1.12759572-1.12618269 0-.62251304-.5043016-1.12731452-1.12759572-1.12731452"/>
    <path fill="rgb(30,34,53)" fill-rule="evenodd" d="M60.87036846 68h-8.74073692C51.5052121 68 51 68.44801607 51 69.00050226S51.5052121 70 52.12963154 70h8.74073692C61.4947879 70 62 69.55298845 62 69.00050226S61.4947879 68 60.87036846 68"/>
  </g>
</svg>
