<svg xmlns="http://www.w3.org/2000/svg" xmlns:xlink="http://www.w3.org/1999/xlink" width="51.121" height="55" viewBox="0 0 51.121 55">
  <defs>
    <path id="path-7" fill-rule="evenodd" d="M48.5432 11.26506667h2.57813333v1.78266666H48.5432v-1.78266666z"/>
    <mask id="mask-8" maskContentUnits="userSpaceOnUse" maskUnits="userSpaceOnUse">
      <rect width="51.121" height="55" x="0" y="0" fill="black"/>
      <use fill="white" xlink:href="#path-7"/>
    </mask>
    <path id="path-16" fill-rule="evenodd" d="M0 23.401h1.9339v1.337H0v-1.337z"/>
    <mask id="mask-17" maskContentUnits="userSpaceOnUse" maskUnits="userSpaceOnUse">
      <rect width="51.121" height="55" x="0" y="0" fill="black"/>
      <use fill="white" xlink:href="#path-16"/>
    </mask>
  </defs>
  <g>
    <path fill="rgb(255,255,255)" fill-rule="evenodd" d="M26.34375 46.28613281c-1.5354004-6.15014648 2.21759033-12.40405273 8.36657715-13.94189453 6.15142822-1.5366211 12.4052124 2.2163086 13.94189453 8.36791992.74481201 2.97802735.28442383 6.06933594-1.29559326 8.70288086-1.58007813 2.63330078-4.09173584 4.49291992-7.07098389 5.23779297C39.35522461 54.88671875 38.41394043 55 37.47747803 55c-2.05847168 0-4.08441162-.55688477-5.89465332-1.64282227-2.63458252-1.58105468-4.4942627-4.09155273-5.23907471-7.07104492zm13.55145264 6.8034668c2.56225586-.63989258 4.72076416-2.23925781 6.08026123-4.50390625 1.35827636-2.26464844 1.75360107-4.92211914 1.11480713-7.4831543-1.12200928-4.48828125-5.16308594-7.49169922-9.59222413-7.49169922-.7906494 0-1.59454345.09643555-2.39599609.29638672-5.28845215 1.32226563-8.51599121 6.69995117-7.19506836 11.9885254.63995362 2.56225585 2.23925781 4.72192382 4.50384522 6.08032226 2.2645874 1.3581543 4.9220581 1.75463867 7.484375 1.11352539z"/>
    <path fill="rgb(255,255,255)" fill-rule="evenodd" d="M37.79216238 42.33486355c-1.45477894-.22315603-1.75066618-.47071974-1.86386546-.94260176-.1053538-.43701388.08517966-.98328124.93697626-1.205275.84955504-.21850694 1.45926208-.04184175 1.7192842.03486814.09974986.02905677.20622444.01046044.2914041-.04765311.08630045-.05927582.1423397-.15458204.15354755-.26151097l.12104478-1.05882886c.01905334-.17666518-.0896628-.34170766-.2544182-.39284758-.56599643-.17085384-1.19363603-.19758607-1.8011015-.10576666l-.2611429-1.08788563c-.04819376-.1964238-.22976093-.304515-.4191736-.25569961l-.87533309.22664283c-.18941266.04881539-.2768339.22780511-.22976092.42306664l.28692096 1.19016547c-1.27433255.68225306-1.824638 1.90147531-1.5096974 3.20554334.38667082 1.60625848 1.77756501 2.0095665 3.22674002 2.20482803 1.3382173.19526152 1.61617198.62413951 1.7192842 1.05650431.15578912.64738493-.27907547 1.2215468-1.07931596 1.4295933-.64893452.16736702-1.37184084.13366116-1.98378946-.09298168-.10199143-.03719267-.21519072-.0244077-.30709509.0360304-.09078358.06043809-.15130597.1603934-.16251382.2719714l-.10311222 1.0692893c-.0145702.1638802.05491846.32311133.2017413.38238715.57720427.235941 1.38529026.30102818 2.16535663.17434064l.27459232 1.14251237c.04819376.1964238.27907547.30567726.46848813.25686188l.8899033-.23129192c.18941266-.04881538.29588724-.24523918.24881427-.44166297l-.29700803-1.23433177c1.26984941-.69620031 1.8907643-2.01072878 1.56573665-3.35780083-.22303621-.92865451-.77782479-2.03978556-3.12250702-2.38846685"/>
    <path fill="rgb(255,255,255)" fill-rule="evenodd" d="M27.21346447 52.39772556H9.30768137v-3.9379759h14.70524406c.44166003 0 .80073322-.35832466.80073322-.80053802 0-.44221337-.3590732-.80173642-.80073322-.80173642H9.30768137v-3.84929356h14.2133138c.44166002 0 .8007332-.35952306.8007332-.80173643 0-.44221336-.35907318-.800538-.8007332-.800538H6.60026951v-3.85049198h19.13620723c.44166002 0 .80073321-.35952306.80073321-.80173642s-.35907319-.80053801-.80073321-.80053801h-8.3496486v-2.03969416c0-.3163803-.25613887-.57164167-.57212327-.57164167-.3147875 0-.57092638.25526138-.57092638.57164167v2.03969416H9.30768137v-3.8073492h1.15980641v1.76765504c0 .3163803.25613888.57164166.57092637.57164166.31598441 0 .57212329-.25526137.57212329-.57164166v-1.76765504h1.8576053v1.76765504c0 .3163803.25494197.57164166.57092637.57164166.31598441 0 .57212329-.25526137.57212329-.57164166v-1.76765504H31.224312c.44166003 0 .80073322-.35952306.80073322-.80173643 0-.44341177-.35907319-.80053801-.80073321-.80053801h-4.69787424v-11.8091341c0-1.20919589.15081074-2.33450307.3949805-3.3723263.34111954.04194436.76961354.07789666 1.25795308.07789666.26810798 0 .55536654-.01078569.85339729-.03715071 2.17119589-.19653927 3.91150395-1.14328333 5.03420613-2.7371689C37.30701185 8.05774662 35.5128428.90323773 35.4338467.60003995c-.10772196-.41824516-.53023141-.67590335-.95274087-.58003053-.1244787.02876184-3.08802943.72024453-5.91872308 2.37884424-3.92586689 2.3033444-5.65899349 5.34490949-5.01146483 8.79752927.08258683.4350229.50030864.72264135.93598411.63875264.43328165-.08029349.7193433-.49973706.63795337-.93475996-.5182623-2.75874028.90127371-5.1471718 4.21791308-7.10177884 1.78579067-1.05220415 3.67810638-1.69694884 4.70984335-2.00254344.13046326.71065725.29683383 1.83716284.33393806 3.13144585.05745172 1.97138478-.17833968 4.75289485-1.62779846 6.8153588-.84741273 1.20320384-2.13289475 1.89588494-3.82532639 2.06006713-.59007694.0575237-1.13227746.03715072-1.55359-.00239682 1.39440089-3.95235683 4.00965063-6.25570124 4.04555794-6.28566149.33513498-.28761845.37463303-.79334755.08737448-1.13010082-.28606164-.33675326-.79115793-.37510239-1.12868673-.08748394-.17235513.14740445-3.38486327 2.95408114-4.79841473 7.81003926-.0215444.0455396-.03949805.093476-.05146716.14380923-.00718146.02996025-.00837837.0599205-.01316602.08988076-.36386083 1.32184645-.59486458 2.78870053-.59486458 4.3933718v3.89722996c-.55895727-.81252212-1.12150527-1.52317937-1.66849343-2.14635267.22262538-.84487919.89409225-4.20282457-1.69123472-6.28925672-3.43513353-2.77072438-10.68841197-1.99894821-10.996018-1.96539273-.23698831.02636503-.4488415.15699174-.58050166.35712624-.13046326.1989361-.16517367.4458086-.09575285.67470494.13285708.43142767 3.20412976 10.20326444 9.24972538 10.20326444.22621611 0 .45961368-.01318252.69540508-.04314277.4392662-.05392846.75165988-.45299906.6977989-.89161719-.05386098-.43861813-.45243222-.7514032-.89050151-.69867315-2.10895654.25645979-4.11737259-1.13129922-5.96779643-4.12972154-.90965208-1.47644137-1.55598382-3.00321596-1.91745083-3.95475366.7085711-.0359523 1.72594513-.06111892 2.84984422.00239682 2.70860876.1533965 4.76729506.73822069 5.95103967 1.69335361 1.27830056 1.03063278 1.41235455 2.5717883 1.32258625 3.6180004-1.60026951-1.50760004-2.81872454-2.15114631-2.91088666-2.19908272-.39258669-.20133291-.87494167-.0479364-1.07721957.34514214s-.04787643.87603785.34471026 1.07856918c.03710423.02037297 3.74992102 1.98336888 6.6847459 7.4145639v4.8427756H8.50814507c-.44166002 0-.80073321.35712625-.80073321.80053802v4.60908563H5.8007332c-.44166002 0-.80073321.35832465-.80073321.800538v5.45276641c0 .44221337.35907319.80173643.80073321.80173643h1.90667865v10.19008192c0 .44221336.35907319.80173642.80073321.80173642h18.7053194c.44166002 0 .7995363-.35952306.7995363-.80173642 0-.44221337-.35787628-.80053802-.7995363-.80053802"/>
    <path fill="rgb(255,255,255)" fill-rule="evenodd" d="M48 10c.55239521 0 1-.30920372 1-.69079628V8.6918304C49 8.31023785 48.55239521 8 48 8s-1 .31023785-1 .6918304v.61737332C47 9.69079628 47.44760479 10 48 10"/>
    <path fill="rgb(255,255,255)" fill-rule="evenodd" d="M48 15c.55239521 0 1-.31023785 1-.6918304v-.61737332C49 13.30920372 48.55239521 13 48 13s-1 .30920372-1 .69079628v.61737332C47 14.68976215 47.44760479 15 48 15"/>
    <path fill="rgb(255,255,255)" fill-rule="evenodd" d="M44.69079628 13h.61737332C45.68976215 13 46 12.5512341 46 11.99925206 46 11.44727 45.68976215 11 45.3081696 11h-.61737332C44.30920372 11 44 11.44727 44 11.99925206 44 12.5512341 44.30920372 13 44.69079628 13"/>
    <g>
      <use fill="none" xlink:href="#path-7"/>
      <g mask="url(#mask-8)">
        <path fill="rgb(255,255,255)" fill-rule="evenodd" d="M49.4352 13.04773333h.796c.492 0 .89066667-.4.89066667-.892S50.7232 11.26506667 50.2312 11.26506667h-.796c-.492 0-.892.39866666-.892.89066666 0 .492.4.892.892.892"/>
      </g>
    </g>
    <path fill="rgb(255,255,255)" fill-rule="evenodd" d="M40 24c.55239521 0 1-.31023785 1-.6918304v-.61737332C41 22.30920372 40.55239521 22 40 22s-1 .30920372-1 .69079628v.61737332C39 23.68976215 39.44760479 24 40 24"/>
    <path fill="rgb(255,255,255)" fill-rule="evenodd" d="M40 29c.55239521 0 1-.30920372 1-.6918304v-.61737332C41 27.30920372 40.55239521 27 40 27s-1 .30920372-1 .69079628v.61737332C39 28.69079628 39.44760479 29 40 29"/>
    <path fill="rgb(255,255,255)" fill-rule="evenodd" d="M36.69079628 26h.61737332C37.68976215 26 38 25.55273 38 25.00074794 38 24.4487659 37.68976215 24 37.3081696 24h-.61737332C36.30920372 24 36 24.4487659 36 25.00074794 36 25.55273 36.30920372 26 36.69079628 26"/>
    <path fill="rgb(255,255,255)" fill-rule="evenodd" d="M41.6918304 26h.61737332C42.69079628 26 43 25.55273 43 25.00074794 43 24.4487659 42.69079628 24 42.30920372 24h-.61737332C41.31023785 24 41 24.4487659 41 25.00074794 41 25.55273 41.31023785 26 41.6918304 26"/>
    <path fill="rgb(255,255,255)" fill-rule="evenodd" d="M4.00074794 21C3.4487659 21 3 21.31023785 3 21.6918304v.61737332C3 22.69079628 3.4487659 23 4.00074794 23 4.55273 23 5 22.69079628 5 22.30920372v-.61737332C5 21.31023785 4.55273 21 4.00074794 21"/>
    <path fill="rgb(255,255,255)" fill-rule="evenodd" d="M4.00074794 26C3.4487659 26 3 26.30920372 3 26.69079628v.61737332C3 27.68976215 3.4487659 28 4.00074794 28 4.55273 28 5 27.68976215 5 27.3081696v-.61737332C5 26.30920372 4.55273 26 4.00074794 26"/>
    <g>
      <use fill="none" xlink:href="#path-16"/>
      <g mask="url(#mask-17)">
        <path fill="rgb(255,255,255)" fill-rule="evenodd" d="M1.2649 23.401h-.597c-.369 0-.668.3-.668.669 0 .369.299.668.668.668h.597c.369 0 .669-.299.669-.668 0-.369-.3-.669-.669-.669"/>
      </g>
    </g>
    <path fill="rgb(255,255,255)" fill-rule="evenodd" d="M6.30920372 25C6.69079628 25 7 24.55273 7 24.00074794 7 23.4487659 6.69079628 23 6.30920372 23h-.61840744C5.30920372 23 5 23.4487659 5 24.00074794 5 24.55273 5.30920372 25 5.69079628 25h.61840744z"/>
    <path fill="rgb(255,255,255)" fill-rule="evenodd" d="M50.00058514 25C50.55295494 25 51 24.55204678 51 24.0011696 51 23.44795321 50.55295494 23 50.00058514 23 49.44704506 23 49 23.44795322 49 24.0011696 49 24.55204677 49.44704506 25 50.00058514 25"/>
    <path fill="rgb(255,255,255)" fill-rule="evenodd" d="M50.00058514 33C49.44704506 33 49 33.44821533 49 33.99941486 49 34.55178466 49.44704506 35 50.00058514 35 50.55295494 35 51 34.55178467 51 33.99941486 51 33.44821533 50.55295494 33 50.00058514 33"/>
    <path fill="rgb(255,255,255)" fill-rule="evenodd" d="M4 12c-.55386417 0-1 .44795322-1 1s.44613583 1 1 1c.5526932 0 1-.44795322 1-1s-.4473068-1-1-1"/>
    <path fill="rgb(255,255,255)" fill-rule="evenodd" d="M20.023 32.65612105v.6877579C20.023 33.70701513 20.236 34 20.5 34c.263 0 .477-.29298487.477-.65612105v-.6877579C20.977 32.29298487 20.763 32 20.5 32c-.264 0-.477.29298487-.477.65612105"/>
    <path fill="rgb(255,255,255)" fill-rule="evenodd" d="M12.023 38.5750452v.84870405c0 .31826401.214.57625075.478.57625075.263 0 .476-.25798674.476-.57625075v-.84870404C12.977 38.25678119 12.764 38 12.501 38c-.264 0-.478.2567812-.478.5750452"/>
    <path fill="rgb(255,255,255)" fill-rule="evenodd" d="M9.0225 38.5750452v.84870405c0 .31826401.214.57625075.478.57625075.263 0 .477-.25798674.477-.57625075v-.84870404C9.9775 38.25678119 9.7635 38 9.5005 38c-.264 0-.478.2567812-.478.5750452"/>
    <path fill="rgb(255,255,255)" fill-rule="evenodd" d="M15.023 39.4049236v.1901528c0 .22325976.213.4049236.477.4049236.263 0 .477-.18166384.477-.4049236v-.1901528C15.977 39.18081494 15.763 39 15.5 39c-.264 0-.477.18081494-.477.4049236"/>
  </g>
</svg>
