<svg xmlns="http://www.w3.org/2000/svg" xmlns:xlink="http://www.w3.org/1999/xlink" width="499" height="260" viewBox="0 0 499 260">
  <defs>
    <path id="path-10" fill-rule="evenodd" d="M0 260h499V0H0v260z"/>
    <mask id="mask-11" maskContentUnits="userSpaceOnUse" maskUnits="userSpaceOnUse">
      <rect width="499" height="260" x="0" y="0" fill="black"/>
      <use fill="white" xlink:href="#path-10"/>
    </mask>
  </defs>
  <g>
    <path fill="rgb(12,29,38)" fill-rule="evenodd" d="M447.27530327 245H97.72543296C91.80244366 245 87 240.20491545 87 234.29009558V10.70990442C87 4.79508455 91.80244366 0 97.72543296 0h349.54987031C453.19829257 0 458 4.79508455 458 10.70990442v223.58019116C458 240.20491545 453.19829258 245 447.27530327 245"/>
    <path fill="rgb(55,90,100)" fill-rule="evenodd" d="M464.88652361 251H82.11273823C76.52784936 251 72 246.74003125 72 241.48486602V239h403v2.48486602C475 246.74003125 470.47141248 251 464.88652361 251"/>
    <path fill="rgb(26,46,53)" fill-rule="evenodd" d="M438.52572278 229H104.47427722C99.79382442 229 96 225.2056872 96 220.52463192V17.47536808C96 12.79431279 99.79382443 9 104.47427722 9h334.05144556C443.20617558 9 447 12.7943128 447 17.47536808v203.04926384C447 225.20568721 443.20617557 229 438.52572278 229"/>
    <path fill="rgb(26,46,53)" fill-rule="evenodd" d="M236 236l5.06193955 5h71.2370475L317 236h-81z"/>
    <path fill="rgb(236,236,236)" fill-rule="evenodd" d="M439.58635514 216H107.41438253C106.08141913 216 105 214.92416554 105 213.5964463V19.4035537C105 18.07583446 106.08141912 17 107.41438253 17h332.1719726C440.92005622 17 442 18.07583446 442 19.4035537v194.19362696C442 214.92416554 440.92005621 216 439.58635514 216"/>
    <path fill="rgb(26,46,53)" fill-rule="evenodd" d="M132 23.99958887C132 25.65643415 130.65643415 27 129.00041113 27 127.34274359 27 126 25.65643415 126 23.99958887 126 22.3427436 127.3427436 21 129.00041113 21 130.65643415 21 132 22.3427436 132 23.99958887"/>
    <path fill="rgb(26,46,53)" fill-rule="evenodd" d="M116 23.99958887C116 25.65643415 114.65661825 27 113 27c-1.6557961 0-3-1.34356585-3-3.00041113C110 22.3427436 111.3442039 21 113 21c1.65661825 0 3 1.3427436 3 2.99958887"/>
    <path fill="rgb(26,46,53)" fill-rule="evenodd" d="M124 23.99958887C124 25.65643415 122.65661825 27 121 27s-3-1.34356585-3-3.00041113C118 22.3427436 119.34338175 21 121 21s3 1.3427436 3 2.99958887"/>
    <path fill="rgb(26,46,53)" fill-rule="evenodd" d="M456 226.4995c0 .181-82.61058434.327-184.49076737.327C169.59211909 226.8265 87 226.6805 87 226.4995c0-.18 82.59211909-.326 184.50923263-.326C373.38941566 226.1735 456 226.3195 456 226.4995"/>
    <use fill="none" xlink:href="#path-10"/>
    <g mask="url(#mask-11)">
      <path fill="rgb(245,245,245)" fill-rule="evenodd" d="M241 103h182V51H241v52z"/>
      <path fill="rgb(162,237,201)" fill-rule="evenodd" d="M441 217H104l.36071893-186H441v186z"/>
      <path fill="none" stroke="rgb(21,39,53)" stroke-linecap="butt" stroke-linejoin="miter" stroke-width="2" d="M441 217H104l.36071893-186H441v186z"/>
      <path fill="rgb(208,247,228)" fill-rule="evenodd" d="M241 103h182V51H241v52z"/>
      <path fill="rgb(208,247,228)" fill-rule="evenodd" d="M241 216h182v-27H241v27z"/>
      <path fill="rgb(225,225,225)" fill-rule="evenodd" d="M222.5005 214c-.145 0-.261-38.50609767-.261-85.99631224C222.2395 80.49872215 222.3555 42 222.5005 42c.144 0 .26 38.49872215.26 86.00368776 0 47.49021457-.116 85.99631224-.26 85.99631224"/>
      <path fill="rgb(26,46,53)" fill-rule="evenodd" d="M287 44.5005c0 .144-10.07413117.26-22.49889295.26C252.0726551 44.7605 242 44.6445 242 44.5005c0-.144 10.07265511-.261 22.50110705-.261C276.92586883 44.2395 287 44.3565 287 44.5005"/>
      <path fill="rgb(26,46,53)" fill-rule="evenodd" d="M287 113.4995c0 .144-10.07413117.261-22.49889295.261C252.0726551 113.7605 242 113.6435 242 113.4995c0-.144 10.07265511-.26 22.50110705-.26 12.42476178 0 22.49889295.116 22.49889295.26"/>
      <path fill="rgb(26,46,53)" fill-rule="evenodd" d="M407 72.4995c0 .144-20.82004124.261-46.49777.261-25.68590543 0-46.50223-.117-46.50223-.261 0-.144 20.81632457-.26 46.50223-.26 25.67772876 0 46.49777.116 46.49777.26"/>
      <path fill="rgb(26,46,53)" fill-rule="evenodd" d="M367 88.4995c0 .144-11.41741888.261-25.49890217.261C327.41522323 88.7605 316 88.6435 316 88.4995c0-.144 11.41522323-.26 25.50109783-.26 14.08148329 0 25.49890217.116 25.49890217.26"/>
      <path fill="rgb(208,247,228)" fill-rule="evenodd" d="M241 179h182v-52H241v52z"/>
      <path fill="rgb(26,46,53)" fill-rule="evenodd" d="M407 148.5c0 .144-20.82004124.26-46.49777.26-25.68590543 0-46.50223-.116-46.50223-.26 0-.144 20.81632457-.26 46.50223-.26 25.67772876 0 46.49777.116 46.49777.26"/>
      <path fill="rgb(26,46,53)" fill-rule="evenodd" d="M409 156.5005c0 .144-20.82101664.26-46.4977868.26-25.68709842 0-46.5022132-.116-46.5022132-.26 0-.144 20.81511478-.261 46.5022132-.261 25.67677016 0 46.4977868.117 46.4977868.261"/>
      <path fill="rgb(26,46,53)" fill-rule="evenodd" d="M367 164.5c0 .144-11.41741888.26-25.49890217.26C327.41522323 164.76 316 164.644 316 164.5c0-.144 11.41522323-.26 25.50109783-.26C355.58258112 164.24 367 164.356 367 164.5"/>
      <path fill="rgb(26,46,53)" fill-rule="evenodd" d="M407 209.5c0 .144-20.82004124.26-46.49777.26-25.68590543 0-46.50223-.116-46.50223-.26 0-.144 20.81632457-.26 46.50223-.26 25.67772876 0 46.49777.116 46.49777.26"/>
      <path fill="rgb(26,46,53)" fill-rule="evenodd" d="M201 132.4995c0 .144-8.50708463.261-18.9992763.261-10.49508646 0-19.0007237-.117-19.0007237-.261 0-.144 8.50563724-.26 19.0007237-.26 10.49219167 0 18.9992763.116 18.9992763.26"/>
      <path fill="rgb(225,225,225)" fill-rule="evenodd" d="M183 137.5c0 .144-4.70107343.26-10.49961.26-5.79931657 0-10.50039-.116-10.50039-.26 0-.144 4.70107343-.26 10.50039-.26 5.79853657 0 10.49961.116 10.49961.26"/>
      <path fill="rgb(26,46,53)" fill-rule="evenodd" d="M201 104.4995c0 .144-8.50708463.261-18.9992763.261-10.49508646 0-19.0007237-.117-19.0007237-.261 0-.144 8.50563724-.26 19.0007237-.26 10.49219167 0 18.9992763.116 18.9992763.26"/>
      <path fill="rgb(225,225,225)" fill-rule="evenodd" d="M183 108.4995c0 .144-4.70107343.261-10.49961.261-5.79931657 0-10.50039-.117-10.50039-.261 0-.144 4.70107343-.26 10.50039-.26 5.79853657 0 10.49961.116 10.49961.26"/>
      <path fill="rgb(26,46,53)" fill-rule="evenodd" d="M200 163.5c0 .144-8.50724665.26-18.99963814.26C170.5050755 163.76 162 163.644 162 163.5c0-.144 8.50507551-.26 19.00036186-.26C191.49275335 163.24 200 163.356 200 163.5"/>
      <path fill="rgb(225,225,225)" fill-rule="evenodd" d="M182 166.5005c0 .144-4.70124805.26-10.49921997.26-5.80031201 0-10.50078003-.116-10.50078003-.26 0-.144 4.70046802-.261 10.50078003-.261 5.79797192 0 10.49921997.117 10.49921997.261"/>
      <path fill="rgb(26,46,53)" fill-rule="evenodd" d="M201 193.5005c0 .144-8.50708463.26-18.9992763.26-10.49508646 0-19.0007237-.116-19.0007237-.26 0-.144 8.50563724-.261 19.0007237-.261 10.49219167 0 18.9992763.117 18.9992763.261"/>
      <path fill="rgb(225,225,225)" fill-rule="evenodd" d="M183 197.4995c0 .144-4.70107343.261-10.49961.261-5.79931657 0-10.50039-.117-10.50039-.261 0-.144 4.70107343-.26 10.50039-.26 5.79853657 0 10.49961.116 10.49961.26"/>
      <path fill="rgb(138,219,179)" fill-rule="evenodd" d="M341.37221432 223l-12.69929469 15.44995085S308.62639284 230.79390564 306 233.42210026L335.22075036 259 356 235.73402687 341.37221432 223z"/>
      <path fill="none" stroke="rgb(21,39,53)" stroke-linecap="butt" stroke-linejoin="miter" stroke-width="2" d="M341.37221432 223l-12.69929469 15.44995085S308.62639284 230.79390564 306 233.42210026L335.22075036 259 356 235.73402687 341.37221432 223z"/>
      <path fill="rgb(225,225,225)" fill-rule="evenodd" d="M338.75667855 244.64984142c.439449.6526556.26683524 1.63384888-.38216234 2.09056047-.64975136.4567116-1.67186602.29317938-2.12337537-.3521099-.45226313-.64528928-.28191068-1.82905626.41608207-2.21136806.69723898-.38304843 1.886691-.12743726 2.16784791.60551118"/>
      <path fill="rgb(26,46,53)" fill-rule="evenodd" d="M308.00052353 233.00088616c-.0673379.07803705 6.36972075 5.29020242 14.37701027 11.6395804 8.00950945 6.3522157 14.5553447 11.43668409 14.6219426 11.35864704.0673379-.07803705-6.36898076-5.28878357-14.37849021-11.64099926-8.00654955-6.34937799-14.55312476-11.43526523-14.62046266-11.35722818"/>
      <path fill="rgb(26,46,53)" fill-rule="evenodd" d="M328.0180538 237.03137994c-.14897268.18344162.66220168 1.04653447 1.0300915 2.38840996.40331626 1.33270342.17894889 2.50030936.4024079 2.57368601.19257442.11006498.85659285-1.18686731.38151537-2.80390525-.4596352-1.62162397-1.7104606-2.35539047-1.81401478-2.15819072"/>
      <path fill="rgb(26,46,53)" fill-rule="evenodd" d="M324.14335712 236.01494296c-.15253714.11338316.24769126.92685022.20120375 1.9921953-.01525371 1.06610603-.46124325 1.8521785-.31524342 1.97545415.11258694.1453435.93556113-.62931455.96897402-1.95490821.04285568-1.3248327-.733631-2.15047514-.85493435-2.01274124"/>
      <path fill="rgb(26,46,53)" fill-rule="evenodd" d="M318.0304242 238.97340474c.14850805.16670442 1.33025292-.455035 1.78946929-1.7316846.4708021-1.27324748-.10321836-2.31429952-.34019928-2.23775158-.26331214.05358356-.17062627.97896316-.56770097 2.02171627-.36758375 1.0504079-1.06588753 1.78781976-.88156904 1.94771991"/>
      <path fill="rgb(26,46,53)" fill-rule="evenodd" d="M331.00259812 235.06755062c-.05549715.188928.78820943.57968268 1.56141964 1.36726202.7889594.7724044 1.18568898 1.62144226 1.37167941 1.56226.17624093-.03110863.02549869-1.13205047-.8977038-2.0470993-.91645284-.92263631-2.00614676-1.061487-2.03539525-.88242272"/>
      <path fill="rgb(26,46,53)" fill-rule="evenodd" d="M333.0540513 231.30223653c-.05998232.06248354.49068868.69048265 1.6653424 1.3762197.5848276.3408912 1.32960804.68336427 2.202684.9427896.43570488.12892173.9039002.23727925 1.39542196.31479048.2382631.03480096.50651735.09174798.8430848.04824678.32740348-.0102821.80642894-.33219096.83058848-.75454804.0541507-.38281054-.1491227-.73714757-.38322036-.94199866-.23659692-.21117854-.47735928-.32902724-.69729444-.43738477-.44653503-.2230425-.89973477-.39546543-1.34127127-.5251781-.88557227-.25467973-1.71866002-.3385184-2.41095593-.32349072-1.3929227.0332191-2.18602224.38755613-2.15769726.46348549.02665881.11152125.84475097-.0561561 2.14270168.03875561.645643.04824679 1.40958446.17716852 2.21018178.44371222.39988212.13524917.80809512.30529931 1.2096434.51568692.43153946.20643296.73145105.45320338.68479813.67545496-.0199941.08383867-.03582277.10993939-.19994105.1463222-.15828668.02610073-.38238728-.00474558-.61815111-.03796467-.46069752-.06248354-.90140094-.1510678-1.31544555-.25547067-.8289223-.21038761-1.55287555-.48563155-2.14270168-.75533898-1.18048533-.54020578-1.84362317-1.01950988-1.91776798-.93408935"/>
      <path fill="rgb(26,46,53)" fill-rule="evenodd" d="M333.2409497 231.98836702c.03572966.07920944.86332852-.23498802 1.84049343-1.28495323.48359692-.52278234.98131953-1.23742756 1.36686759-2.12633356.19028126-.44621321.34981839-.93379136.46199293-1.4556936.09306333-.52630275.24096754-1.20838409-.3207361-1.8667026-.31575057-.31683778-.8109804-.30011578-1.09598684-.15489847-.30494857.13465606-.49606075.3177179-.70296047.48405773-.39967374.35204198-.72456446.75865047-.97965768 1.17846053-.51517198.84050023-.7411829 1.72764602-.7960238 2.46605407-.107189 1.50673968.39551913 2.33755875.45617648 2.2917933.12630023-.0352042-.16286082-.8880259.0664738-2.21874459.1138364-.65567819.36726777-1.4231297.84421731-2.1324943.235982-.35380219.5268049-.6926426.87080683-.98307723.35978946-.32299851.7411829-.50077971.84006269-.3397205.1661845.14961784.21271617.68912217.10220347 1.11157255-.09140148.47173625-.22268724.91794946-.37890068 1.33071868-.31741241.82377824-.72955 1.51378052-1.13088558 2.0453639-.8068258 1.06844742-1.50978627 1.54722451-1.44414338 1.65459732"/>
      <path fill="rgb(138,219,179)" fill-rule="evenodd" d="M387.02673966 237s-6.76538342 2.43811613-13.07820144 2.24604952c-5.91871802-.18001537-18.82729767 2.39367719-17.90123484 10.38892053 1.03288848 8.91791627 18.13653997 4.53578478 24.74673748 2.2724116C387.4035166 249.64476168 394 247.51696494 394 247.51696494L387.02673966 237z"/>
      <path fill="none" stroke="rgb(21,39,53)" stroke-linecap="butt" stroke-linejoin="miter" stroke-width="2" d="M387.02673966 237s-6.76538342 2.43811613-13.07820144 2.24604952c-5.91871802-.18001537-18.82729767 2.39367719-17.90123484 10.38892053 1.03288848 8.91791627 18.13653997 4.53578478 24.74673748 2.2724116C387.4035166 249.64476168 394 247.51696494 394 247.51696494L387.02673966 237z"/>
      <path fill="rgb(26,46,53)" fill-rule="evenodd" d="M371.98864104 250.99934325c-.0831237.0370757-.59285746-1.50027275-1.13900077-3.43252058-.54614332-1.93311005-.92123043-3.52908985-.83810673-3.56616556.08243673-.0370757.59217049 1.49941052 1.1383138 3.43252058.54614332 1.93224783.92123043 3.52908985.8387937 3.56616556"/>
      <path fill="rgb(26,46,53)" fill-rule="evenodd" d="M374.97944563 249.99963618c-.11086168.0275891-.63924277-1.51740078-1.1801405-3.4503102-.54179179-1.93290943-.88957562-3.52220909-.77871394-3.54896216.11086169-.0275891.63834873 1.51740078 1.18014052 3.4503102.54089773 1.93290943.88957561 3.52220909.77871392 3.54896216"/>
      <path fill="rgb(26,46,53)" fill-rule="evenodd" d="M376.96938425 248.99966364c-.13418076.02455051-.67847852-1.29790384-1.21303736-2.95424519-.53564095-1.6571597-.86027182-3.01971322-.72609106-3.04508209.13526287-.02455051.67847853 1.29790384 1.21411947 2.95506354.53455884 1.65634134.86027182 3.01971322.72500895 3.04426374"/>
      <path fill="rgb(26,46,53)" fill-rule="evenodd" d="M379.98869498 246.9983267c-.08739778.0486996-.78822903-.97085032-1.3348774-2.37292784-.55324444-1.39972108-.72639098-2.60778563-.6274501-2.62506614.10801046-.02277885.44440946 1.12716036.98528628 2.4970333.53592978 1.37222936 1.07350858 2.4506901.97704122 2.50096067"/>
      <path fill="rgb(26,46,53)" fill-rule="evenodd" d="M381.34797208 243.85253143c-.00427083-.01640827.36814556-.09781854 1.06514504-.14830553.69529116-.04733155 1.7254154-.05427351 2.95456031.16092728.3092081.0555357.63464537.13379052.9455618.274523.3066456.1350527.61414538.37234156.6764995.69104068.11702075.66074848-.78668692 1.2243095-1.69808207 1.1649873-.91822849-.04670047-1.6801446-.47205336-2.32845661-.93842693-.65856201-.47773314-1.17618663-1.08673246-1.5187072-1.7594716-.67735367-1.3543135-.57656208-2.82600925.27504146-3.94997586.12897907-.13694596.3143331-.274523.56631208-.32564109.24429148-.05364242.5253121-.00567978.70981197.09718746.37412472.20636557.54154126.49414141.64745785.7692955.1836457.53957971.216104 1.06338223.1383749 1.52912471-.14691656.93842692-.66112451 1.62568107-1.07539504 2.03967439-.21183317.20762774-.3997497.3546711-.5355621.44617877-.13752073.09150767-.2135415.1350527-.2237915.12747965-.02562498-.01893262.25624981-.21583188.63208286-.63866042.36558307-.42219745.81829106-1.09809203.92249932-1.99549827.0580833-.44554769.01025-.94032019-.1759582-1.444559-.09139577-.23539559-.26564564-.48656836-.52702044-.62098997-.25795815-.13694596-.58424957-.06310874-.7772911.16913141-.73714528 1.00153566-.8550202 2.42779313-.20414568 3.69438548.32287476.63550499.8071869 1.2097945 1.42133228 1.6597598.60474955.44491659 1.32395735.83303532 2.07562346.87090057.72262447.06563308 1.43926977-.40894462 1.35129067-.8601721-.0375833-.22529818-.25283315-.41146896-.51591629-.53516208-.2639373-.1255864-.56204125-.20573449-.85074937-.26442561-1.18387412-.23413342-2.18922754-.25937691-2.87597703-.24738625-.68845782.014515-1.06941587.05742895-1.07454087.03407871"/>
      <path fill="rgb(26,46,53)" fill-rule="evenodd" d="M392.99997255 246.0732937c.00148191.00588612-.0570535.03163791-.1726424.07799115-.13485374.05076782-.30601424.1155152-.51940915.19644941-.48236142.17069762-1.1544072.40982144-2.00946875.7144284-1.75235752.60700662-4.29309069 1.47005967-7.4591895 2.47805855-3.16683976 1.00358428-6.95311754 2.17271582-11.22249768 3.27783576-2.12876243.5474096-4.41534818 1.08599003-6.84049244 1.16250965-1.20849688.05591818-2.45181862-.00294306-3.68698986-.25383913-.61351037-.13979547-1.23220742-.2972493-1.8227482-.5562388-.59128174-.2589895-1.16552152-.5496169-1.6664068-1.03448644l.02963819.02648757c-.24599692-.18541294-.50607196-.4002565-.70983447-.6651321-.86839873-1.0698032-1.0662336-2.50307459-.82468242-3.76859142.24896073-1.29347593 1.02177633-2.39270974 1.9272228-3.24031171.9180427-.84833774 1.9761258-1.48845382 3.05569658-1.98656713.54904733-.22808734 1.07882983-.48854836 1.6271362-.68205471.5527521-.1795268 1.08846224-.39510613 1.63676861-.53858042 4.3842281-1.23461468 8.49208015-1.36337366 11.869351-1.76583745 1.69678593-.17143338 3.2201885-.39878495 4.55094288-.64085184 1.32630865-.25972525 2.45626434-.5474096 3.3617108-.83582972.44753656-.15083195.84765202-.28547705 1.19886448-.40393532.33194764-.13832393.61647419-.2567822.85506155-.35611055.21784064-.08829187.39196496-.15892537.52904155-.21484355.12003464-.04635324.18301578-.06769044.1859796-.06327585.00222286.00588613-.05483064.03752405-.1711605.09491377-.13337183.0640116-.30305042.14494582-.51570438.24648147-.23562354.10815755-.51718627.23691653-.8461701.38774848-.3489896.12728745-.74762314.27223327-1.19367778.43483747-.90544647.30975732-2.03614312.6180431-3.3668975.89763403-1.33297724.26046102-2.86230744.5069425-4.56057528.69382696-3.38097563.43189441-7.48290004.59008402-11.80711082 1.826906-.54163778.14347429-1.06771551.35831784-1.6123171.53710888-.53941492.1927706-1.05956502.45028855-1.59972089.6761686-1.0580831.49149141-2.08504611 1.11909947-2.96604108 1.9357993-.86839874.81596404-1.5930523 1.86001543-1.82200725 3.0607849-.2267321 1.18531838-.03186104 2.52514754.75577365 3.48973625.18375673.24059535.41863932.4318944.63944378.60038473l.01259622.00882918.01704196.01692261c.4156755.40246379.98695147.7100138 1.54414929.94840186.56386642.24795301 1.16329865.40099226 1.75680325.53784466 1.20034638.24500994 2.4177347.30607849 3.60696677.25310337 2.38661462-.07136927 4.64282123-.59376285 6.77380653-1.13234327 4.26419346-1.08525426 8.054176-2.22936977 11.22842531-3.20278766 3.1727674-.97856825 5.72535584-1.80630455 7.48882768-2.37505136.86395301-.27885517 1.54340834-.49737755 2.03021548-.65483139.21784064-.06695467.39196496-.12140132.5297825-.16407573.12003465-.03531675.18227483-.05076783.1844977-.04561747"/>
      <path fill="rgb(26,46,53)" fill-rule="evenodd" d="M367.97847458 252.99995291c-.06283093.00658799-.22131493-.67856258-.49514527-1.77948827-.27383034-1.1016577-.67988697-2.61762652-1.22660987-4.27340705-.54859845-1.65504854-1.13470791-3.13514944-1.57921332-4.2024032-.44356764-1.06652177-.72958905-1.72605239-.66957145-1.74435235.05157764-.01610397.43887877.61268272.96028174 1.66456451.5204652 1.0511498 1.15721451 2.5305187 1.70956406 4.19727922.55141178 1.6674925.9124552 3.2017613 1.1084502 4.31879095.19787056 1.11702966.24851042 1.8138922.19224391 1.8190162"/>
      <path fill="rgb(26,46,53)" fill-rule="evenodd" d="M357.29051947 251.99889411c.01993035-.0260121-.2369497-.21604494-.59200515-.65752809-.34693569-.44148314-.81123898-1.13152635-1.13381536-2.07807778-.15427565-.47038547-.28493016-1.009414-.24580762-1.57589973.05167127-.57371132.1933982-1.19005358.4377295-1.7984477.4849718-1.22184615 1.398077-2.41334485 2.59685053-3.38085047 1.1972972-.97906655 2.55625167-1.616363 3.83769924-2.05134312 1.28218572-.43859291 2.48907902-.68426275 3.50405044-.87285047 1.01718592-.1820847 1.84761708-.30130683 2.41969189-.3937943.57281296-.09104235.88874589-.1510147.88505508-.1770268-.00295264-.02528953-.3240527-.0137286-.90277095.0332377-.57945641.0484114-1.41653103.12789282-2.44700384.2774624-1.02825832.1560726-2.25582013.377898-3.57343759.80782022-1.310974.4248643-2.72529055 1.07372169-3.96687742 2.08891615-1.24158686 1.00218842-2.18864747 2.25365946-2.68026273 3.54559377-.2480221.64452204-.3845819 1.28759896-.42665708 1.90394122-.0265738.63151599.12991635 1.19366637.307075 1.67994813.36908052.97545376.8828406 1.6597165 1.27628043 2.08530337.40008328.42558686.69460954.57949179.70420563.5635955"/>
      <path fill="rgb(0,0,0)" fill-rule="evenodd" d="M386 235.1614665s18.3360658-28.24946732 22.98369026-29.66029509c4.64762445-1.41155914 12.90375833-2.516671 19.86708268 0 6.96406184 2.51593961 27.03764005 10.96189039 27.03764005 10.96189039l12.66260105 4.17836134C479.62507446 224.29684936 487.83400936 233.61460246 490 244.98898993c0 0-15.9886541 13.03388368-28.08560488 10.74028291-12.09842575-2.29360076-45.03225074-16.98990617-45.03225074-16.98990617-3.51189902 2.07053054-9.25542477 2.977439-11.88529287 4.0971784-7.40802723 3.15370106-11.36241668 3.99405414-11.36241668 3.99405414L386 235.1614665z"/>
      <path fill="rgb(55,90,100)" fill-rule="evenodd" d="M406.00036734 235.00432964c-.0204678.05033851.81578787.4472103 2.16227646 1.09869283 1.44297963.70473923 3.2521866 1.58894622 5.25437566 2.56580525 2.05335855 1.0031226 3.92908587 1.88222279 5.30920012 2.47023502 1.37865227.59093041 2.25365055.90244558 2.27338735.85648432.0211988-.05033851-.81651886-.4472103-2.16227646-1.09869283-1.44224863-.70473923-3.2529176-1.58821667-5.25510665-2.5665348-2.05335855-1.00239306-3.92908587-1.8807637-5.30846913-2.46950547-1.37865227-.5909304-2.25438154-.90171603-2.27338735-.85648432"/>
      <path fill="rgb(55,90,100)" fill-rule="evenodd" d="M402.0062648 222.9998039c.05824882.0164169.33264993-.99919213.8975934-2.59163129.56353987-1.5909467 1.4583261-3.74603775 2.70751784-5.97351238 1.25340251-2.22523597 2.61347758-4.08407662 3.66546546-5.36534092 1.0505843-1.28350297 1.76220252-2.02151718 1.72149852-2.06778299-.01754483-.01940179-.21194152.14551342-.5502058.46340427-.34036966.31415974-.80776388.79845825-1.36147865 1.42155417-1.10883313 1.2446994-2.5187355 3.09980892-3.78687567 5.35041646-1.26252582 2.25359243-2.1320475 4.45196439-2.63663675 6.08022223-.2547509.8133827-.43440994 1.48050575-.53266097 1.94838736-.1031636.46713539-.14807835.7275671-.12421738.7342831"/>
      <path fill="rgb(55,90,100)" fill-rule="evenodd" d="M406.01547737 227.00146064c-.09730547.0143713.25000019 1.42754827 1.4468574 2.60998619 1.18562966 1.1968092 2.52994208 1.47225895 2.5366786 1.3684663.0404192-.11816396-1.16841407-.5493027-2.27245684-1.66946502-1.12050984-1.1010006-1.60329465-2.35928699-1.71107916-2.30898747"/>
      <path fill="rgb(0,0,0)" fill-rule="evenodd" d="M331 229.00408185s53.70988857-57.80243459 56.6969263-59.41737898c1.36813704-.73984776 9.36085997-8.57258392 11.37729483-8.58647434 2.6853838-.01681473 5.29037571.89483564 7.3938403 2.54925807l34.4239504 32.48238754L451 217.85299686l-21.43144257 11.44570816-29.01630578-24.88871287L350.53006398 245 331 229.00408185z"/>
      <path fill="rgb(55,90,100)" fill-rule="evenodd" d="M403.00079863 210.98670705c.01112725.00753733.137236-.14245558.36571537-.43415033.22551212-.29320222.57490753-.71529282 1.0600553-1.22180154.95842649-1.00623384 2.52069134-2.38481188 4.83589959-3.29833653 1.15352414-.44394886 2.49101868-.7650392 3.9420111-.70549429 1.45247606.03994786 2.98877734.35802328 4.5614276.83664387 1.5733921.48012805 3.19648587 1.10572662 4.89301944 1.71398932 1.69430812.6127851 3.44721972 1.2481822 5.24389847 1.89865396 7.18003867 2.57098398 13.67834829 4.89700467 18.42745538 6.5974268 2.33523729.81629306 4.23799576 1.48108575 5.59922842 1.95744514.63573645.2133065 1.14462234.38440394 1.52888312.51329232.35087904.11305998.5370749.16657504.5415258.15376157.0044509-.01205973-.17284317-.09044798-.51556224-.22762742-.37832624-.14622425-.87905215-.34068742-1.505145-.58263578-1.35084723-.50424752-3.240253-1.20898807-5.55768671-2.07352006-4.73946349-1.72831025-11.22516222-4.0920176-18.39036457-6.70521064-1.79742057-.64745683-3.5518158-1.28059273-5.24686574-1.89111663-1.69653357-.60223284-3.3225946-1.22180154-4.91824118-1.69816093-1.59342112-.47485192-3.16384595-.78840493-4.65415462-.81553933-1.49698503-.0474852-2.87750491.30149328-4.047349.7718228-2.35526633.96779345-3.91159665 2.40290148-4.84702683 3.45134438-.4725369.52685952-.80635417.96779344-1.01257907 1.2775778-.20993397.30903061-.31527187.47409818-.30414463.48163552"/>
      <path fill="rgb(21,39,53)" fill-rule="evenodd" d="M418.119314 186.17604276l-45.15968785-14.37423227c-2.81027671-.89479338-4.46888523-3.7938354-3.81899953-6.673698l1.27619278-5.64686176 38.30420423 1.94007138 32.40218103-22.96587157c2.002709-1.42001422 4.3016244-2.3634938 6.72285388-2.75962244l6.41927916-1.05044169L474.02569452 129l21.94727377 21.89993881c1.8015539 1.77188269 2.85964445 4.16562095 2.95764308 6.69213976l1.01093331 26.06260907c.1525242 3.94136935.0066315 7.88937772-.43841495 11.80861697l-4.20657309 37.09224682s-1.17893097 19.0857288-9.43439513 16.13431223c0 0-9.28260777-17.81988756-19.89519704-24.31285648-10.6133261-6.4937066-25.504698-11.69427816-25.504698-11.69427816l2.32102037-35.39265577-.30799572-7.51611683-24.35597712 16.40208634z"/>
      <path fill="rgb(250,250,250)" fill-rule="evenodd" d="M399.44799362 179.99996278c-.02887835.0037307-.09385462-.27308763-.18770924-.78046356-.1010742-.50588364-.18690707-1.248294-.23343329-2.16828593-.05695451-.92073807-.02246093-2.02055.09545897-3.23526766.14118302-1.21322537.38584677-2.5383719.78051748-3.89858706.80458276-2.72266875 2.06480163-5.01929094 3.1421243-6.56081838.53986461-.77150986 1.01234641-1.37439184 1.3709192-1.7661159.35375971-.3962009.55831465-.60661269.58077558-.58945144.06016322.04327618-.69628897.93491475-1.69981143 2.49957256-1.0027203 1.5624194-2.19796289 3.83964192-2.99131518 6.51978063-.3882533 1.33857707-.64013664 2.64133937-.80137406 3.83441893-.13636996 1.19531798-.20054406 2.27871481-.182094 3.18975305.01925223 1.82133034.20134623 2.94576492.12594167 2.95546476"/>
      <path fill="rgb(250,250,250)" fill-rule="evenodd" d="M384.74894569 175.99988136c-.02828054.00602624-.10665805-.21769812-.22462832-.62898936-.12605042-.41053797-.25290885-1.01843547-.36199095-1.77472926-.22220427-1.51108102-.26745314-3.64964484.19553976-5.95091728.47107305-2.29976588 1.35019393-4.27562107 2.14932128-5.60666802.39754364-.66740667.75387848-1.18943017 1.0310278-1.52840647.27230124-.34349599.4322883-.52503663.45733679-.50921773.06060116.03841731-.50581772.81655624-1.22414351 2.16568192-.72155786 1.34611255-1.53765354 3.2963562-2.00064643 5.55167853-.4524887 2.2560756-.45652877 4.34944258-.312702 5.8484711.13978668 1.5005351.36279896 2.41803095.29088558 2.43309657"/>
      <path fill="rgb(26,46,53)" fill-rule="evenodd" d="M366 143.67881865l1.79943101-.58688968c.3178063-.1039591.65253284-.12017967.9769601-.04644981 2.05764862.4674473 9.99397805 2.27309155 13.0182875 2.98311009.7952514.18653654 1.4580835.72550181 1.8075233 1.4650123l12.23112838 25.5518199c.31486364.65914493.17508773 1.44584252-.3472328 1.95457855L366 143.67881865z"/>
      <path fill="rgb(55,90,100)" fill-rule="evenodd" d="M366 144l13.66507822 27.6197348L396 176l-13.9188144-27.2703931c-.30837554-.60797451-.86749333-1.04952444-1.52915347-1.20995174L366 144z"/>
      <path fill="rgb(199,137,118)" fill-rule="evenodd" d="M364.1710876 155.47029452c.33735686-.43197862-2.94541496-14.86392401-1.99909376-15.26324445.94710394-.39932044 1.38856395-.23751402 2.01005199.62941214.6207053.86692616 4.38016002 9.3691857 4.38016002 9.3691857l1.6515614-.58265157c.44302548-.1566108.91657745-.2063403 1.38543304-.14325065 2.48282122.33400409 10.61147773 1.45477335 10.56294844 1.79619975 0 0 .1588943 2.97931644-2.68085205 2.38107801l4.01853851 1.21206371s1.3666475 2.20591143-1.06999262 2.5681203h-2.79356525L384 158.2373328s-.43284998 2.28384571-2.01318291 2.43600313c-1.5615474.15067295-5.8336906-.41936069-5.8336906-.41936069l-.9768477 2.03148707L379.73020499 171l-7.66841096-2.46123899s-4.10307342-1.99511773-3.78763301-3.99023547c0 0-2.94541497-1.5957973-2.94541497-3.79057525 0 0-2.94541497-2.99341883-1.15765845-5.28765577"/>
      <path fill="rgb(191,101,78)" fill-rule="evenodd" d="M367.00130674 154.9968941c.04109614.04803219.6321334-.46736077 1.70661074-1.10778988.53798587-.3171649 1.19328256-.67092575 1.9539348-.97284233.76364106-.29429243 1.62217685-.55275132 2.55916892-.51996745 1.88818097.01219865 3.58806689.39950578 4.80152391.68083714 1.21644584.2927676 1.95916522.51996745 1.97709809.46736078.01868006-.04955702-.69714003-.37205882-1.90760825-.7372559-1.2082266-.35223602-2.91857336-.790625-4.87101375-.80434848-.98854905-.03507112-1.91881629.25464682-2.69067657.57714862-.77933232.33088838-1.4361234.71819551-1.96663725 1.07271877-1.05953329.71438344-1.59378315 1.3128797-1.56240064 1.34413873"/>
      <path fill="rgb(191,101,78)" fill-rule="evenodd" d="M370.0047168 158.99867853c.0536734.03516095.32490291-.63624573 1.04484195-1.42736707.35925388-.38174743.8365892-.80953897 1.4355842-1.01045868.60328889-.17245608 1.33968776-.16408442 2.0818118-.06111307 1.49355147.24780097 2.85256164.67391817 3.84015197.88237237.97542437.22854616 1.6302397.3557953 1.58801663.28882207.06727065-.04939276-.56750662-.28212475-1.52790243-.58685297-.97971824-.28463625-2.30509309-.75512322-3.85589617-1.01380734-.77862194-.10464568-1.53291195-.11050584-2.2213626.10799434-.68272549.25617262-1.16793291.7459144-1.5243242 1.17621744-.70848872.89158118-.89956598 1.63163543-.86092114 1.64419291"/>
      <path fill="rgb(191,101,78)" fill-rule="evenodd" d="M365.0117183 154.99938161c.05852483.02233338.27230303-.5619077.6267034-1.48650938.36171597-.909415.8729954-2.20832403 1.8638533-3.22136588.9981735-1.0067885 2.23044633-1.43201595 3.08799767-1.7375365.8729954-.29301388 1.42329138-.46632086 1.40947302-.53332098-.01219268-.05717344-.5795584.00089333-1.48588043.21797373-.8876266.23048042-2.19955824.61372112-3.29446028 1.71341646-1.08108369 1.10952203-1.561475 2.4959779-1.85816339 3.44469963-.28855993.96926843-.39991967 1.58388289-.3495233 1.60264292"/>
      <path fill="rgb(199,137,118)" fill-rule="evenodd" d="M409 166.31517104l-12.02700567-11.7749025-9.93256723-3.31010603-3.0772192 1.09702748-7.20580282-1.30417332c-1.13276034-.20503211-2.04545014 1.00402322-1.35283088 1.8671309.07084463.08877679.14847225.15641625.23514387.19728175.69111193.32269659 10.10591045 3.14875774 10.10591045 3.14875774l-12.09182096-.8877679s-1.28650826.58198118-.2502172 1.47045366c1.03704474.88847247 5.11814737 1.93829325 7.77029882 2.42092897 1.35886021.24801135 4.69006494 1.77342207 4.69006494 1.77342207s-10.05089282 1.6015051-9.96497487 2.32792471c.08591795.72712419-.08591795 1.05052535.77702988 1.13084721.8637015.08102644 9.32812691-.24237473 10.62367916.08102644 1.29555224.32269658 5.7866493 5.97481888 8.20516423 7.18598794 2.41851492 1.21116907 4.83702985 0 4.83702985 0L402.58705407 174l5.52738811-7.18598795"/>
      <path fill="rgb(191,101,78)" fill-rule="evenodd" d="M408.11891003 167.48813977c-.00374839-.00290816-.0382336.03635194-.10345563.11632622-.07196914.09233394-.1641796.2093872-.28337848.35988426-.25564038.33589197-.6177351.80992133-1.0855345 1.42208809-.95509045 1.27013696-2.33974669 3.11099946-4.10673897 5.46078919l.1536841-.00945151c-.6807081-.71686036-1.4281376-1.50424349-2.22279683-2.34251934-.03448521-.03635195-.08771239-.04507641-.13119374-.02471932l-.0067471.00218111c-.9948234.45149116-2.23554137.67905434-3.456018.4260448-.60873897-.1272318-1.20398372-.38024135-1.73700515-.7495771-.53676982-.37442504-1.04205315-.82518916-1.55033519-1.29194813-1.00456922-.9495128-1.9933952-2.00590033-3.0302006-3.09645868-.51952721-.54527918-1.04954993-1.10146394-1.6163069-1.6481972-.28712687-.27045846-.57725246-.54237101-.91160908-.78738312l-.25938877-.17957861-.31711402-.14104555c-.2166571-.0428953-.42881612-.07343093-.63422803-.08579059-1.65678954-.11050991-3.34731462-.07415797-5.09181654-.06107127-.87112645.0130867-1.75499743.0261734-2.64936391.0392601-.4468084.00508928-.89661552.01017855-1.34867167.01599486-.4400613-.01017855-.94009687.03707898-1.26770638-.1046936-.13569182-.05525496-.1574325-.20575201-.1746751-.43476927l-.02174068-.33734605c-.00074967-.04144121-.02024132-.15267816-.00749678-.13741035-.02249036.05307384.01124518.00218112.03073682-.01163262.32161209-.20866016.80365538-.3402542 1.23397085-.47184825.89211744-.25300953 1.8149717-.45948858 2.74832147-.65869724 1.86894857-.392601 3.78962495-.7437608 5.7462859-1.07310942.10195628-.0167219.17167638-.11050991.15518345-.21011424-.0104955-.06034423-.0524775-.10978288-.10420531-.13522924-1.02106215-.4783916-2.06086627-.9400613-3.14265238-1.35447347-.5412679-.1999357-1.09378097-.40714179-1.68752636-.51619762-.56825632-.1083288-1.13726232-.23337949-1.70626832-.3664276-1.13651265-.26827736-2.27752336-.57290666-3.39829276-.94805873-.5585105-.18975716-1.117021-.39260101-1.64179597-.64633759-.25639005-.130867-.52477496-.26391512-.7256888-.43695038-.20241321-.17158118-.38908316-.38969285-.38008702-.59399078-.0142439-.25082842.26088813-.50892723.5375195-.64997278l-.09970724.01817598c4.11723446.31262672 8.14000942.61798306 12.02784225.91316086.10420532.00727038.1956661-.06834166.20391256-.16940007.0067471-.08651763-.04947878-.16358375-.13119374-.18903011-1.82996528-.57508777-3.62919374-1.14072404-5.39468667-1.69545472-.88087226-.28281813-1.75274839-.5627281-2.6148787-.83972993-.42956579-.14322666-.85688255-.28499925-1.2812006-.4260448-.20841062-.07197685-.4258174-.14613482-.61923445-.2224739-.10945307-.04216826-.16942735-.06470646-.2271526-.1272318-.06222331-.05816312-.1079537-.14613483-.15968152-.22247391-.17392542-.3271675-.11994857-.7343093.10420531-1.03821155.22115517-.30608338.59749379-.49075126.97233305-.48420791.80140634.1177803 1.68227861.3046293 2.50242692.45003708 1.66353664.30971857 3.28434162.61143971 4.85716716.90370935.03073682.00581631.06222332.00290816.08996142-.00727039 1.05254865-.39187396 2.06611402-.76920715 3.0579387-1.13854292l-.10945306.00145408c3.62544535 1.24323652 6.93527604 2.37814425 9.88900943 3.39090944l-.05022847-.03198971c3.74539392 3.76824262 6.74710673 6.78908926 8.82671496 8.88150721 1.02930861 1.02439781 1.82996528 1.82050541 2.38622674 2.37450905.26463652.25882585.4715478.46021563.62373254.60853156.14168924.13522924.21665709.20211682.22115516.19775459.00449807-.0036352-.06072396-.07924724-.19416674-.22320095-.14543763-.15413224-.34410244-.36351945-.59749378-.63252384-.54501629-.56490923-1.32843035-1.37628464-2.33599829-2.4203125-2.0593669-2.11132097-5.03259193-5.15906805-8.7412516-8.9614815-.01424389-.01454078-.03298585-.02544636-.05097814-.03126267-2.94848564-1.028033-6.25156922-2.17966263-9.87101714-3.44107512-.03598456-.0130867-.07496785-.01163262-.10870338.00072704-.99332405.36570056-2.00913845.73939856-3.06318645 1.12618326l.08996142-.0072704c-1.57207587-.2973589-3.19138148-.60416932-4.85416845-.91897716-.8448877-.1512241-1.64254565-.33152974-2.5586528-.46385082-.4962872-.01090559-.98657695.23265244-1.27145479.62670753-.29237462.38533062-.37483926.94660465-.13494213 1.39664173.06822075.10542064.12519631.2130224.22265452.30753745.09221046.10323953.24289584.1701271.34110373.20502497.22040549.08797171.42731676.15776745.64172482.23265245.4258174.14249963.85463352.28572629 1.28569867.43040703.86287998.2784559 1.73550578.56127403 2.61637805.84554624 1.76474325.55763884 3.56472139 1.12618326 5.39393699 1.70345215l.0734685-.35843018c-3.88783284-.29735891-7.9106078-.60489636-12.02709258-.92043125h-.00674711c-.03373553-.00290815-.06597171.00436224-.09370982.01890301-.19491641.09960433-.35384826.21447648-.50153493.373698-.14168924.15631336-.25938877.37660615-.25339134.61725603.00749679.40277955.27888041.66669467.51352979.8746278.25414102.21374943.5307724.34679755.80515474.4878431.55251307.26682327 1.12001971.47257528 1.68902571.6652406 1.13876168.38096838 2.28801886.68705175 3.435027.95678319.57350408.13377515 1.14625847.25955288 1.7212619.36860872.55326275.10033137 1.0892829.29881299 1.62380368.49656757 1.0645435.40641474 2.10359794.86663037 3.11491427 1.33847861l.05172782-.34534347c-1.96340805.33298381-3.88483411.68705176-5.76127946 1.08546908-.93784784.20138977-1.86370082.41077698-2.77231119.67032986-.4573039.1475889-.89811487.24355803-1.35391941.5343736-.05772525.06688757-.13419246.08288243-.16642864.25519065-.0104955.12359661.00674711.12650477.00749679.1963005l.02249035.33298382c.00899615.11487215.01649293.23701468.062973.37442503.04123232.13959147.16942735.28427221.30436948.3438894.53002272.2093872.97908016.11923438 1.4348847.14031851.45280583-.00727039.9041123-.0130867 1.35167038-.01963005.89511616-.01599485 1.77823746-.03198971 2.64861423-.04725753 1.7385045-.01817597 3.44027475-.05889015 5.05883068.0428953.20466224.01163262.39508059.03998714.5795015.07415797l.23539906.10614768.23464938.16140263c.3103669.22538206.59974282.49220534.88162195.7568475.56075953.5365547 1.0922816 1.0876502 1.61330818 1.63002121 1.04205315 1.08546908 2.03912559 2.13967549 3.05868838 3.09282349.51727819.46966713 1.03080797.9233394 1.58931848 1.30939706.5652576.38533062 1.19648692.6485187 1.8397111.77793163 1.2946948.25519065 2.56390055.01454077 3.6164492-.4725753l-.13719117-.02181116c.8029057.83100547 1.5570823 1.61257229 2.24378783 2.3228893.03673424.0392601.09970724.04216825.14018988.0058163l.01349421-.01526781c1.73400643-2.3716009 3.0931736-4.23063937 4.03027175-5.513136.44980712-.62525345.79840763-1.10946135 1.04505187-1.45116964.10870338-.1570404.19491641-.27918294.2616378-.37515207.05772525-.08506355.08471368-.12941293.08096528-.13159404"/>
      <path fill="rgb(191,101,78)" fill-rule="evenodd" d="M392.99974965 154.99270834c.01533583-.05368173-.67477645-.38809252-1.82934524-.898509-1.1545688-.51217652-2.77505466-1.1994787-4.62265685-1.96070326l-.02190832-.00704023c-.44473902-.11000355-.90554415-.22440724-1.37730345-.34233105-2.23976122-.55001775-4.27212362-1.02435305-5.74655397-1.34468339-1.47443036-.32121036-2.39165895-.48841576-2.40188284-.42681377-.01095416.06160199.8880175.34057099 2.34857258.74186394 1.46128536.40129295 3.48415415.92402982 5.72464565 1.4749276.47175929.11528371.9332947.22792735 1.37730344.33617084l-.02190832-.00704023c1.85271412.74274397 3.48780554 1.37812447 4.66428266 1.81373853 1.17501656.43649409 1.89141883.67322172 1.90675466.62042002"/>
      <path fill="rgb(21,39,53)" fill-rule="evenodd" d="M473.80920813 155.82939144l-31.71975821 27.38894852-32.66983144-18.62472012s-10.30475378 5.4372309-8.11397935 14.5174065l28.91600953 22.8062446c8.37215142 6.60182697 20.14922364 6.79066053 28.72865036.45996034l11.05197752-8.15437683 25.0567059-20.95097323s4.13149076-13.32635903-4.9192844-17.44248978c-9.05077516-4.11613074-16.3304899 0-16.3304899 0"/>
      <path fill="rgb(26,46,53)" fill-rule="evenodd" d="M468.86612288 160s-.17468971.1328157-.5011226.40660895c-.33457522.28418108-.81423172.692274-1.44119014 1.22502077-1.26946126 1.0907211-3.12294872 2.68376749-5.50198574 4.72868404-4.76769678 4.12322254-11.63611138 10.06208761-20.0782138 17.36249908l.1672876-.01632372c-9.29926637-5.34750131-20.47866777-11.7760779-32.76542431-18.84127944l-.08956549-.0519391-.0903057.05045512c-2.55076589 1.41200153-4.9645928 3.33449021-6.64191014 5.91215353-1.64252742 2.56653352-2.41456713 5.8505686-1.59145289 8.96839857l.0133238.05045512.0488539.03858333c2.88015963 2.28680437 5.92834707 4.70642443 9.0172461 7.15794994 5.63522366 4.4719565 11.1372094 8.83632485 16.44674038 13.04858585l-.00962274-.00816186c4.41831735 3.980761 9.77374139 6.59181375 15.20244628 7.60759415 2.71657307.45706407 5.48200005.53571471 8.06607542-.0927484 2.56853095-.66704644 4.9283225-1.7251201 7.1260079-2.91823542 4.40129251-2.39884442 8.10012512-5.37866478 11.4769661-8.17150437 3.35019338-2.83439088 6.45315641-5.46028337 9.27557961-7.84799798 5.62782156-4.78210712 10.13274356-8.61001877 13.24162827-11.251493 1.53889794-1.31702717 2.73063708-2.33725948 3.54708943-3.03695336.39527248-.34279806.69801864-.6062035.91193951-.79170028.20429814-.17956088.30348637-.27824517.30348637-.27824517s-.11399244.0808766-.32495247.25153364c-.21910236.18030287-.52925062.43480446-.93414584.76647271-.8268153.68856407-2.03187823 1.69173068-3.587801 2.98798222-3.12590957 2.62218255-7.65525852 6.42041472-13.31342871 11.16616447-2.83130573 2.3765848-5.9438915 4.9906055-9.30370763 7.81089862-3.38128224 2.77948383-7.07567358 5.73704457-11.44883808 8.1069515-2.17695952 1.17753358-4.53527064 2.22447744-7.04828579 2.87223221-2.52781936.61065542-5.24735328.52977882-7.92469519.0749407-5.3532034-1.00687655-10.65681269-3.6001216-15.01221214-7.53265344l-.00592168-.00519391-.00518148-.00370994c-5.30805055-4.21448696-10.80855587-8.58182326-16.44229911-13.05452174-3.08889903-2.45152551-6.13782669-4.87040359-9.01872653-7.15646597l.0621777.08903846c-.3960127-1.44984287-.39379207-3.02730753-.11695329-4.50163598.277579-1.48545825.87344857-2.88707196 1.66473375-4.14399818 1.626983-2.50643256 3.98825497-4.39849976 6.50349075-5.79343559l-.17987119-.00148397c12.30156075 7.04071597 23.49354574 13.44629095 32.80391526 18.7752426l.08882528.05045512.07772212-.06752083c8.40657232-7.3397368 15.24685891-13.31273327 19.99457-17.45821542 2.3568307-2.0708861 4.19329332-3.68322416 5.45091121-4.78804302.61437484-.54610253 1.08588902-.96458328 1.41380234-1.25618422.31681016-.28492306.4729946-.43925639.4729946-.43925639"/>
      <path fill="rgb(26,46,53)" fill-rule="evenodd" d="M474.00058863 154.89442364c.04258713.06816982 1.178751-.71119479 3.3780722-1.18903903 2.16814134-.48636546 5.39335615-.63188181 8.69614038.21171974 1.644928.4195066 3.11114214 1.09137264 4.24502455 1.91268791 1.15289452.8075502 1.9734573 1.7409524 2.63051592 2.53146014.64641184.8016509 1.12779853 1.47941625 1.47457947 1.94021803.34678094.46080178.5498303.7105393.57264484.6980852.0243355-.01179862-.13460576-.28382243-.44108102-.76559954-.30647526-.48112163-.75211918-1.17855136-1.37647697-2.0070769-.63500456-.81738239-1.45024396-1.7874914-2.62747398-2.63633679-1.1589784-.86195497-2.67690548-1.56725044-4.36442061-1.9972447-3.38947947-.86588785-6.68313789-.67579892-8.88169861-.11864172-1.10574448.27726765-1.95672665.62139416-2.50047307.91504878-.28290024.13240677-.47302137.2753012-.61142955.35723609-.13536624.0878342-.2015284.1376506-.19392355.14748279"/>
      <path fill="rgb(26,46,53)" fill-rule="evenodd" d="M441.01080743 150.00000826c-.0203418.0022524-.01162389.4654971.02324777 1.29963788.03719643.89870974.08776032 2.09023217.14820452 3.5332732.12379437 2.9829355.25630666 7.10483729.35859684 11.66070252.09357227 4.52883636.17900782 8.6252109.242358 11.67346614.04068359 1.44454263.07439285 2.63756667.0999654 3.5370272.03138449.83489159.05870062 1.29663469.07904242 1.29588389.02092299-.0007508.03312807-.4632447.03777762-1.2988871-.00116239-.90021133-.00290597-2.09398617-.00464955-3.5392796-.01685464-2.9889419-.05346987-7.11835172-.15459767-11.67872176-.10170899-4.56037004-.26851173-8.68602584-.44635716-11.66821053-.08776033-1.49034154-.1720335-2.6961292-.24410158-3.52726678-.0703245-.83113758-.11914481-1.28987747-.13948661-1.28762506"/>
      <path fill="rgb(26,46,53)" fill-rule="evenodd" d="M444.99379683 139.0013075c-.04411244-.02594573-.46911887.33529865-1.03664242.99059464-.56752356.65396543-1.25635633 1.61395742-1.81624504 2.74292928-.55819208 1.13030241-.87631066 2.20339116-1.01882779 2.98641997-.14506207.78435935-.1416688 1.27533239-.08822488 1.27865876.13657891.01530133.40549515-1.92597144 1.51509277-4.14067229 1.08584477-2.22135359 2.55852174-3.79672505 2.44484736-3.85793036"/>
      <path fill="rgb(250,250,250)" fill-rule="evenodd" d="M460.9931519 201c-1.22043006-1.57790137-4.0000032-5.17163056-8.07139433-10.43737357-2.1872051-2.86815261-4.16404358-5.46155761-5.66015262-7.4227395-.67590713-.91152455-1.24093511-1.67429073-1.6844517-2.2731191-.39035535-.54190552-.59692472-.8492889-.57566023-.86598627.02202394-.01745634.2696034.25805025.69717162.77187383.4700972.57757717 1.06854082 1.3152973 1.78393916 2.196463 1.49155236 1.86631047 3.52914654 4.46275135 5.75280505 7.35215516 2.22213962 2.88864484 4.2088509 5.52455223 5.61686418 7.45613423 1.40801328 1.92702818 2.23201242 3.16946423 2.14087888 3.22259222"/>
      <path fill="rgb(250,250,250)" fill-rule="evenodd" d="M475.99894443 190.99910546c-.02003734.01835124-.30518405-.2462125-.8007228-.74169603-.49785076-.49395427-1.20224022-1.2226515-2.06230437-2.13409652-1.71935763-1.8221254-4.04831271-4.38441755-6.53525448-7.28544305-2.48771244-2.9033194-4.66253415-5.5948349-6.19847309-7.57218121-.7683548-.98867316-1.38026424-1.7961278-1.79180032-2.3627224-.4130774-.56506533-.6311761-.88544743-.60882677-.9022694.02234934-.01682197.28129338.27144546.73213346.80745465.49476809.59718 1.12979754 1.36334435 1.89044567 2.28167108 1.59065628 1.93146822 3.797846 4.59086903 6.2817051 7.49036526 2.48462977 2.89720232 4.7750515 5.48472744 6.44046247 7.35349557.7914748.89309378 1.45116559 1.63784835 1.96597101 2.21897101.46085875.52683357.7059308.82733516.68666412.84645104"/>
      <path fill="rgb(250,250,250)" fill-rule="evenodd" d="M489.99911495 177.99878457c-.01777566.02035705-.32691756-.21563393-.87023446-.66047314-.5448626-.44257733-1.3153988-1.10380443-2.25209877-1.93693551-1.87494565-1.66550819-4.3921336-4.04728291-7.02370405-6.8150876-2.6307976-2.77157451-4.87439497-5.40064968-6.43401588-7.35040259-.7805833-.97487645-1.39809426-1.77483308-1.80925299-2.33804476-.41270444-.56245772-.63064948-.88063086-.6082367-.89721808.02163994-.01583327.28131914.27067335.73189346.80372645.49926418.59035441 1.13996077 1.34808901 1.9066327 2.25661657 1.61449359 1.90149916 3.88436802 4.49513798 6.50820992 7.25841888 2.62384191 2.76026504 5.10161427 5.16541267 6.92323294 6.87992857.87023446.81503592 1.59594508 1.49586611 2.16244762 2.02590335.51008414.47876763.78367472.7532108.7651262.77356786"/>
      <path fill="rgb(250,250,250)" fill-rule="evenodd" d="M439.01997412 204.9999849c-.10939646-.00972775.24158385-4.71945587.78324828-10.51719554.54090472-5.79998453 1.06889458-10.49250201 1.17677165-10.48277426.10939646.00972775-.24082416 4.71870758-.78248858 10.51869211-.54166442 5.79773967-1.06889458 10.49100545-1.17753135 10.4812777"/>
      <path fill="rgb(250,250,250)" fill-rule="evenodd" d="M430.99829251 178.00125966c.03849121.03975871-.57669285.83268245-1.5511282 2.1304668-.97376006 1.29703419-2.29529157 3.1094313-3.67624811 5.17913478-1.37893069 2.07120382-2.5539255 4.00512755-3.38655112 5.41918738-.83262563 1.41405983-1.33571249 2.29850362-1.38163183 2.26924721-.02093381-.01350296.07900827-.25130506.27821716-.67064694.19718304-.42084221.50241158-1.01722288.89272594-1.74563248.78062874-1.45531887 1.92861217-3.42375017 3.31497098-5.50470612 1.3870341-2.07870546 2.74503097-3.87309862 3.77146321-5.1281236.51254084-.62713742.93661943-1.12524656 1.24184796-1.45756937.3025274-.33382314.47877662-.5093616.49633401-.49135766"/>
      <path fill="rgb(250,250,250)" fill-rule="evenodd" d="M415.9985466 169.0018089c.03622818.04350846-.60767668.69395996-1.61181282 1.77877095-1.0048197 1.08408583-2.35619964 2.61993454-3.73765583 4.41538373-1.38077264 1.79689947-2.5277709 3.50895744-3.3268418 4.77142797-.800438 1.26102025-1.2727716 2.0608508-1.31925306 2.03184517-.02119008-.01305254.07108928-.22841943.2583822-.60766819.18387517-.3799739.47301716-.91657826.84828656-1.56920519.74985524-1.3045287 1.87224567-3.05501915 3.26395512-4.8656963 1.39170945-1.8077766 2.78273535-3.3262219 3.83745425-4.36679929.52633413-.5213764.9644902-.9296308 1.27824002-1.19720784.31306627-.2704776.49284013-.41042982.50924535-.39085101"/>
      <path fill="rgb(250,250,250)" fill-rule="evenodd" d="M431.99416148 174.9998414c-.0709803.0172684-.35707437-1.37696747-1.11757759-3.5265083-.373733-1.07589661-.90029094-2.32522806-1.55939373-3.67216353-.67938287-1.33717507-1.50145063-2.76519695-2.48213763-4.18120604-.9944485-1.40699948-2.04901295-2.66083573-3.06446581-3.74424034-1.02993864-1.06763782-2.01279851-1.9753552-2.88339362-2.67735334-1.73467162-1.41675988-2.92467808-2.13152162-2.88629077-2.19609043.0130372-.0240256.3165142.14265202.85538504.46324369.27233258.15766803.59898682.35888247.96257979.62016092.36576583.25752445.7938205.5345697 1.23129091.89345218.89956666.68022494 1.9106738 1.57592951 2.96668683 2.64206573 1.04080297 1.08190301 2.1170961 2.34474886 3.12385749 3.76976755.99299991 1.43327748 1.81724054 2.88532497 2.48575908 4.24652565.65041132 1.37171187 1.15668917 2.64581972 1.50217492 3.74424034.19266081.5413269.31361704 1.04961861.43602184 1.4895875.12675054.43921809.21004375.82437856.27015971 1.14121623.12675054.63067212.18469364.9820466.15934354.9873022"/>
      <path fill="rgb(250,250,250)" fill-rule="evenodd" d="M440.81300155 167.99998945c-.07363813-.0051514.05750788-1.39235025-.09678154-3.61849163-.06872892-1.11343865-.25177227-2.4299897-.54842874-3.86943848-.31979988-1.43429737-.76723919-2.98707698-1.38579948-4.55825445-.6367945-1.56381833-1.38159159-2.98634107-2.13340183-4.22930067-.77355103-1.22971314-1.54149153-2.2879582-2.25052152-3.11880568-1.4089429-1.6734696-2.44548725-2.54479237-2.39639516-2.60440144.01542894-.0198697.2798249.18913002.7447971.58652386.235642.19575326.51616822.44375645.81983784.75946377.30577357.31129184.67045764.65054842 1.02251804 1.07664292.74269314.8168651 1.54149153 1.8714306 2.34099123 3.10703105.77775891 1.24884692 1.54289415 2.68755978 2.18810444 4.27492737.6283787 1.5932549 1.07231144 3.17326336 1.37878632 4.63111.28192884 1.46299803.44112747 2.8001547.47759588 3.92757572.04348156.56223868.01893551 1.07369926.01753288 1.52039937.00280527.44743602-.02454604.8323193-.05680655 1.14581889-.05470261.62699916-.09678155.97140714-.1220289.9691994"/>
      <path fill="rgb(250,250,250)" fill-rule="evenodd" d="M461.9999698 163.98313655c-.00231109.02805893-.30198144.02026479-.84277472-.01714713-.54079328-.03273542-1.3203984-.1208093-2.27872724-.26422163-1.9158873-.28370701-4.54589906-.85657693-7.34693092-1.8308455-2.80103186-.9805039-5.22073512-2.16989098-6.90243274-3.1418213-.84200436-.48479605-1.5091368-.901783-1.9551757-1.21354894-.44835-.30708946-.6879322-.48869312-.67329535-.51207556.03466624-.05611787 1.0553943.57286992 2.76405455 1.47309408 1.70634916.901783 4.12220062 2.03816986 6.89704021 3.01010019 2.77715068.965695 5.37172584 1.57831509 7.26450232 1.93216943 1.89354684.3561926 3.08067283.4980461 3.07373958.56429636"/>
      <path fill="rgb(250,250,250)" fill-rule="evenodd" d="M450.99994296 175.96780742c-.00493721.05018633-.53886103.05018633-1.39511402-.06159231-.85413705-.11101824-2.02919264-.3505439-3.2895914-.7642009-1.25969345-.41517779-2.35857497-.92312425-3.12595821-1.34590604-.76808856-.42202138-1.21102668-.74367011-1.18845659-.78853365.05148803-.10721624 1.93397505.94593623 4.42162275 1.75576105 2.48200517.8250328 4.59019314 1.08432882 4.57749747 1.20447185"/>
      <path fill="rgb(250,250,250)" fill-rule="evenodd" d="M477.99999666 152.98440388c-.00075304.01238243-.12801688.01719781-.37049592.01513408-.28766147-.00687913-.63707225-.01582199-1.05802188-.02682859-.91946243-.02476484-2.24782585-.1066264-3.8856889-.24902426-3.273467-.28135614-7.78267341-.89015855-12.65785751-1.99838531-4.87593714-1.1157938-9.16902095-2.51431956-12.20302106-3.67207601-1.51888266-.57715845-2.73353696-1.07520697-3.5581163-1.44736754-.37727327-.17197808-.68978507-.31437594-.94732492-.43132103-.21461654-.10181103-.32456045-.16097149-.31928917-.172666.00602433-.0110066.12726385.02682858.35242295.10731433.2658233.1004352.58812462.22219568.97744655.36940892.84189926.33294956 2.07086133.79453874 3.5972744 1.34005321 3.05282612 1.0937806 7.34063864 2.44827998 12.19549065 3.55857048 4.854852 1.10341137 9.33619593 1.74936105 12.59309603 2.09469304 1.62882656.17404182 2.95041262.29442648 3.8653568.36184188.41944355.03714727.76659522.06810332 1.0527506.09355608.24021992.02545276.36673072.0447143.36597768.05709672"/>
      <path fill="rgb(250,250,250)" fill-rule="evenodd" d="M487.99933 146.99554788c-.0303591.05749928-.77126578-.44712125-1.98707556-1.21435043-1.2143641-.76808738-2.91375102-1.77818665-4.84733672-2.74451781-1.93503138-.96375657-3.73272396-1.69837422-5.04539373-2.19097998-1.3112241-.49346396-2.13308838-.76980378-2.1193545-.83588504.0101197-.05406648.85511473.11414036 2.19452942.53208288 1.33869186.41794252 3.16529787 1.11136666 5.11623164 2.082847 1.94876525.97405495 3.64453799 2.0382207 4.83215717 2.88182953 1.18906485.84275062 1.88154153 1.44177295 1.85624228 1.48897385"/>
      <path fill="rgb(250,250,250)" fill-rule="evenodd" d="M495.9999917 203.69097918c.00219135.02820601-.4295057.08226754-1.21328056.15670007-.78377486.08148403-1.92254932.13789606-3.33013008.14964856-1.40758075.0180205-3.0854287-.05484502-4.9415069-.2264316-1.85388685-.19195758-3.88600395-.4943887-5.99262714-.9566539-2.1051623-.4771517-4.0810346-1.06791095-5.85311084-1.68452572-1.76623262-.63620227-3.33159098-1.28650754-4.61645582-1.9046893-1.28632575-.61191376-2.31041927-1.1501785-2.99850493-1.56073267-.69100747-.40271917-1.06719018-.63698577-1.05404205-.66205778.01168723-.025072.41051395.16140107 1.12051317.52024422.70634696.36511116 1.74431907.86185037 3.03721888 1.43693961 1.2928998.58135725 2.85825817 1.20032251 4.61937762 1.81301977 1.76696308.59310975 3.73187861 1.1689825 5.82243186 1.6422167 2.09274461.4591312 4.10806132.77096433 5.94880004.98172592 1.84219961.19117408 3.50836033.29302912 4.90936702.31183313 1.40027623.02585551 2.53685934.014103 3.31990375-.0195875.7845053-.02507202 1.21985462-.02585552 1.22204598.0023505"/>
      <path fill="rgb(250,250,250)" fill-rule="evenodd" d="M497.9999162 184.94312777c.00515212.03247838-.22742911.1159942-.65211066.23941204-.42394553.1280576-1.0451435.27096245-1.81648883.41293935-1.54195466.2839538-3.70069119.49367132-6.0817047.36654168-2.38248556-.13362532-4.51840558-.57904305-6.03459966-1.03095646-.75956907-.22456478-1.36825475-.4361382-1.78116004-.60966553-.41511333-.1698155-.64033439-.27838608-.63371024-.3099365.01692838-.0742363.94872532.22270886 2.47007152.58461077 1.51987417.36468577 3.63812978.75071447 5.99559077.88341184 2.35672498.12527374 4.49411703-.0278386 6.03386364-.22363682 1.5397466-.19487026 2.48847194-.38881256 2.5002482-.31272037"/>
      <path fill="rgb(250,250,250)" fill-rule="evenodd" d="M495 217.83828315c0 .01217951-.18538402.02774222-.54003172.04601149-.3920176.01623935-.90860154.03721517-1.55195004.06360412-.67412372.02774222-1.49919254.0514246-2.45835335.04736476-.95842808-.00067664-2.0502154.02029919-3.25557793-.02097582-2.41365602-.03789182-5.28454377-.18742915-8.46318367-.45537841-3.17644166-.290955-6.65843722-.71317808-10.2833177-1.32012374-3.623415-.6245383-7.04092917-1.37493154-10.12138148-2.14697726-3.07385762-.79505146-5.81431709-1.59889923-8.08435544-2.35741215-1.1438121-.35726568-2.15499768-.73550718-3.05114258-1.05014457-.8976104-.31193082-1.6596633-.60491574-2.27809853-.85256581-.59205649-.2361472-1.06614132-.42560627-1.42591822-.56905386-.32387248-.13397463-.49240341-.20975825-.48654147-.22126113.0051292-.01082623.18245305.0426283.5158512.15495046.36710433.12856151.84924934.29704476 1.45156422.5081563.62722816.22802752 1.39587575.50206653 2.29861534.79505145.9012741.29704476 1.91832163.65837027 3.06433196.9993966 2.27663304.72671086 5.018558 1.5041697 8.08801916 2.2795986 3.0767886.75309981 6.48624258 1.49131355 10.09793369 2.11314528 3.61388934.6055924 7.08269553 1.03661178 10.24887878 1.34380613 3.166916.28486524 6.02901084.45943825 8.43607217.52980876 1.2031643.05751436 2.29202065.05413116 3.24898324.07307707.95696258.0223291 1.78129866.0189459 2.45468963.0121795.644814.00135329 1.1606652.00202993 1.5526828.00270657.35464769.00473647.5414972.01285615.54222994.02503566"/>
      <path fill="rgb(250,250,250)" fill-rule="evenodd" d="M493.99962235 230.00699881c.01153244.03140607-.24141252.19890512-.71039862.47584957-.46591078.28360634-1.16016397.6433486-2.03047916 1.04211054-1.73986154.80133066-4.22702553 1.67118366-7.04401744 2.12990264-2.8192984.45205709-5.40333492.40161703-7.25083262.18082284-.92413326-.1084937-1.66912921-.23602139-2.17809445-.36069397-.5105029-.1199141-.7903569-.20080852-.78574393-.23506969.01076362-.08184612 1.14478738.1189624 2.98459678.24649008 1.83904057.13038278 4.39078625.12372088 7.1777938-.322626 2.7854699-.45491219 5.25341314-1.25909795 7.00326947-1.9700172 1.75293165-.70806415 2.80699713-1.26290474 2.83390617-1.1867688"/>
      <path fill="rgb(250,250,250)" fill-rule="evenodd" d="M491.99727776 239.00279446c.0322549.03008026-.22262199.5509437-.7380678 1.29503435-.51354846.74329906-1.30600687 1.69003567-2.299584 2.54178198-.99484204.84937156-1.98715429 1.43039553-2.72775189 1.75890364-.7405976.33088286-1.22062627.43933011-1.2313779.3902518-.03541714-.12427898 1.83093941-.80900069 3.77318982-2.48953733 1.95553184-1.6544143 3.14390322-3.5827173 3.22359177-3.49643444"/>
      <path fill="rgb(0,0,0)" fill-rule="evenodd" d="M440 205.68599475c6.57576744 4.40825224 15.37106527 4.06384593 22.66100566 1.04583724 7.2899404-3.01800869 13.3898347-8.36224444 19.26160053-13.7094492 4.58872469-4.17741095 9.34164377-8.76306213 10.90657616-14.83470774.27825864-1.07849647.31313178-2.49174992-.64805928-3.01875095-1.0047825-.55001092-2.15632281.3496021-2.96494387 1.17053608-7.6314066 7.74394606-16.33298285 14.28395456-24.99895943 20.7920461-3.38850728 2.54519227-6.80752856 5.10819866-10.63485624 6.88961058-3.82732769 1.78066966-8.1428794 2.7441166-12.27098797 1.92318261"/>
      <path fill="rgb(0,0,0)" fill-rule="evenodd" d="M431.47209013 176c3.43159735-2.30902078 6.07600752-4.08880072 9.50760486-6.3978215.33971767-.22888043.69140776-.4700352.88895283-.82093704s.18781747-.84620774-.13618638-1.09602675c-3.44656288 2.51335252-7.76411995 3.89385525-12.08467012 3.86497444-4.31905362-.02960283-8.61565893-1.4685892-12.02630453-4.02815102-1.61552959-1.21299403-3.04922791-2.67580707-4.8420991-3.63103987-1.79287118-.95451078-4.1289913-1.30974475-5.83506238-.2173281L406 164.17114212l1.27132226.81804895 2.26129245-1.31118879L431.47209013 176z"/>
      <path fill="rgb(199,137,118)" fill-rule="evenodd" d="M466.09571945 145.80877162c-6.2358555 1.15992203-12.17508572-3.0858303-12.9267357-9.23998267-.24805942-2.03241684-.4184135-3.50821701-.4184135-3.50821701s-8.84272104.32973884-10.62023126-8.02753587C440.35208161 116.67503184 438 97.1540547 438 97.1540547c9.10124082-6.05785695 20.8474527-6.83186781 30.69959633-2.02366271l1.46220575.71419098 4.75721208 38.16727092c.69561245 5.58586352-3.16126344 10.74350425-8.8232947 11.79691772"/>
      <path fill="rgb(191,101,78)" fill-rule="evenodd" d="M452 132.05195828S457.19514618 131.3734501 462 127c0 0-1.4518876 6.1740799-9.72679534 7L452 132.05195828z"/>
      <path fill="rgb(199,137,118)" fill-rule="evenodd" d="M470 104.64020684c.14157386-.07910725 5.88124725-2.49027036 6.8928281 2.59124465 1.01158086 5.08087186-5.46997121 4.85898568-5.5103079 4.7142773C471.3421835 111.80166357 470 104.64020684 470 104.64020684"/>
      <path fill="rgb(191,101,78)" fill-rule="evenodd" d="M473.31078501 110.57789594c.02593438-.02656681.13226533.06341757.34838515.12255016.21006846.0574186.55758913.06513155.89300709-.12426415.67775175-.37879139 1.10048211-1.61200589.9345021-2.83750745-.0838545-.61874973-.31034806-1.18436584-.6094579-1.63514473-.28873607-.46191982-.66910695-.7558688-1.04342648-.76101076-.37431952-.02570982-.5964907.2313884-.64922393.435353-.06051355.2039646.00518687.33251371-.0293923.3496536-.01556062.01971086-.16425106-.08998439-.15474179-.3779344.00518688-.13883305.05964907-.31194585.19883024-.46791878.14263908-.1585439.37259056-.26395418.63020539-.27766608.53251923-.04884867 1.084057.35565254 1.4134236.85013814.3587589.4927716.62761196 1.12609024.72097572 1.82111245.17894721 1.37119055-.31726389 2.76037798-1.25781734 3.20258694-.45990297.20053661-.8843623.12169316-1.1177717-.00514197-.23859628-.13283408-.29910983-.27852308-.27749785-.29480597"/>
      <path fill="rgb(26,46,53)" fill-rule="evenodd" d="M442.01726237 110.71804358c.12379519.820057.88809593 1.38619727 1.70711773 1.26582193.81812473-.1194349 1.38237962-.87930424 1.25858443-1.70030167-.12379519-.81911657-.888993-1.3871377-1.70711773-1.2677028-.8190218.12037534-1.38327669.88212554-1.25858443 1.70218254"/>
      <path fill="rgb(26,46,53)" fill-rule="evenodd" d="M442.03434329 108.98559434c.18814932.1419481 1.00448701-.80518836 2.36069807-1.08255821 1.35083536-.2969489 2.48126723.23821175 2.59569273.03100016.0583647-.09300048-.15896698-.3752651-.65276296-.6200032-.48765234-.2455539-1.27480768-.41931795-2.11802384-.24065913-.84398412.1794746-1.4929073.6567139-1.83925565 1.07929503-.35479587.4258443-.43773517.77092503-.34634835.83292535"/>
      <path fill="rgb(26,46,53)" fill-rule="evenodd" d="M455.01726237 108.71763745c.12379519.81986348.88809593 1.38587014 1.70711773 1.26646342.81812473-.12034693 1.38237962-.88003694 1.25858443-1.69990041-.12379519-.81986347-.888993-1.38775056-1.70711773-1.26834383-.8190218.12034693-1.38327669.88191735-1.25858443 1.70178082"/>
      <path fill="rgb(26,46,53)" fill-rule="evenodd" d="M455.03337718 106.98560484c.1889087.14194885 1.00674517-.80600842 2.3613588-1.08174814 1.35077403-.29695047 2.4819225.23739722 2.59634281.03018453.0568262-.09218518-.15742392-.37526708-.65426917-.62000648-.48686227-.2455552-1.27398188-.41932017-2.11715975-.2406604-.84317788.17947555-1.49283952.65671738-1.83917215 1.07930074-.35324392.42584655-.43694737.7709291-.34710054.83292975"/>
      <path fill="rgb(26,46,53)" fill-rule="evenodd" d="M450.99990566 116.56218985c-.0100405-.07249362-.95886819-.0554363-2.48335148.02985032-.384886.02913959-.75554797.02416454-.86934035-.18336622-.14224049-.21677015-.06358987-.58847764.03346834-.9914569.17654554-.83367664.36145817-1.70715371.5555746-2.62327409.75220113-3.7291572 1.21824789-6.76962498 1.04086564-6.79378952-.17738225-.02487526-.9304201 2.97792427-1.68178453 6.70637074-.17570883.91825254-.3455607 1.79386178-.50537206 2.63038132-.05856961.3880541-.21001389.84078387.09287467 1.28924931.15646453.22245592.47274042.35038584.72793658.36602172.25519616.0227431.46855688-.00923938.65681635-.03056104 1.51276936-.17910189 2.44318945-.32693202 2.43231224-.39942564"/>
      <path fill="rgb(26,46,53)" fill-rule="evenodd" d="M455.59160018 117.00183417c-.22169027.03266379.06018395 1.63737685-.9873216 3.04443214-1.04445826 1.4095679-2.63209577 1.56199889-2.60390835 1.7889703-.00228546.10469162.40148031.23785936 1.06198018.11641708.6483107-.11390447 1.54878457-.54272133 2.19023888-1.40286763.63840702-.86182137.79991333-1.86351073.7336348-2.53269953-.06323125-.68258932-.29634885-1.04524108-.39462391-1.01425236"/>
      <path fill="rgb(26,46,53)" fill-rule="evenodd" d="M453.02117598 100.85407699c.22780458.38950147 1.68728393-.10916522 3.48847015-.24278343 1.79948618-.17204438 3.31931674.07335902 3.48082-.34932868.07055141-.20086399-.25245508-.54582606-.90271816-.83576886-.64516297-.29168944-1.6260827-.4951734-2.7056044-.40434794-1.0786717.0925721-2.0136905.45849389-2.60360236.85498193-.59586198.39648805-.85851726.79122946-.75736523.97724698"/>
      <path fill="rgb(26,46,53)" fill-rule="evenodd" d="M441.06971424 104.92660325c.32221574.26080842 1.26152846-.23933008 2.46921625-.47329057 1.1994046-.27308176 2.28035971-.19714048 2.44850828-.5607381.07040704-.17566214-.1557238-.45411348-.6643111-.66429439-.50361741-.2101809-1.29134792-.31450427-2.1188377-.1403763-.82666145.17412798-1.48931593.58298353-1.84383607.97419616-.36197501.3927468-.43569532.73486608-.29073966.8645032"/>
      <path fill="rgb(26,46,53)" fill-rule="evenodd" d="M434.13347515 92.3313864c-.28687455-1.01119912-.1212045-2.19081096.59311313-2.95842602.71360044-.76761506 2.00955622-.98228707 2.83503774-.33827105-.65479116-1.30971608.16064975-3.12972994 1.5684866-3.50052705 1.3267948-.34983586 2.67008487.44813686 4.03775929.55149745 1.33468384.101915 2.63565993-.46837529 3.75949098-1.20274148 1.12239667-.7336434 2.13004353-1.64003632 3.27610736-2.33681684 2.39109937-1.45283076 5.35738221-1.91180963 8.07049827-1.24900077 2.71239887.66353166 5.14079193 2.44090023 6.6052865 4.83626398 1.69184267-.92084895 3.91727199-.40115476 5.32510884.91868055 1.40783685 1.3191125 2.08342642 3.28296383 2.22758088 5.2157347.09753735 1.30537929-.03012183 2.61075857-.2208934 3.90963263.02008122.1062518.05092023.2088896.06956708.316587.79751124 4.5811151 1.32177448 10.04187948-.60458812 10.45170786-3.3578666.71340495-3.79104717-5.8395123-3.79104717-5.8395123-4.44512115-.7972499-4.11234668-7.34077074-5.32797758-8.08453335-1.2163481-.74376261-3.80395653-2.51896279-11.5954693 3.6371365-3.02580932 2.39102695-7.50320386 3.21429771-10.05064986 3.13551236-.0738702-.0014456-.14917477.0014456-.22304496-.0021684-.01649529-.0007228-.0365765.0007228-.0530718 0-.02725308-.0014456-.04876867-.01301042-.07673894-.01517883-.81687528-.0513189-1.6258615-.207444-2.40257435-.51318897-.87998768-.34549906-1.72411605-.88254048-2.22471214-1.68990961-.50131327-.80736914-.58737564-1.92120605-.03083901-2.69098952-.7946425-.6823245-1.4795555-1.54028972-1.76643004-2.55148884"/>
      <g>
        <path fill="rgb(138,219,179)" fill-rule="evenodd" d="M49.91795577 177.78313684c9.06357692-9.60694737 23.26517308-13.64263158 35.79465385-10.17357895-10.88369231 7.55705264-23.11432693 11.60673685-36.21801924 11.71873685"/>
        <path fill="none" stroke="rgb(21,39,53)" stroke-linecap="butt" stroke-linejoin="miter" stroke-width="2" d="M49.91795577 177.78313684c9.06357692-9.60694737 23.26517308-13.64263158 35.79465385-10.17357895-10.88369231 7.55705264-23.11432693 11.60673685-36.21801924 11.71873685"/>
      </g>
      <g>
        <path fill="rgb(138,219,179)" fill-rule="evenodd" d="M62.95477647 132.68c-1.47952941-11.03181395 2.58705882-23.44186047 10.42164706-31.45972093C73.63548235 112.15311627 69.25689412 124.456 62.95477647 132.68"/>
        <path fill="none" stroke="rgb(21,39,53)" stroke-linecap="butt" stroke-linejoin="miter" stroke-width="2" d="M62.95477647 132.68c-1.47952941-11.03181395 2.58705882-23.44186047 10.42164706-31.45972093C73.63548235 112.15311627 69.25689412 124.456 62.95477647 132.68"/>
      </g>
      <g>
        <path fill="rgb(138,219,179)" fill-rule="evenodd" d="M55.34851892 153.69197222c5.77143243-10.91927778 15.24551351-19.87988889 26.5285946-25.09216666-3.38156757 12.3276111-14.0348919 22.412-26.62783784 25.20555555"/>
        <path fill="none" stroke="rgb(21,39,53)" stroke-linecap="butt" stroke-linejoin="miter" stroke-width="2" d="M55.34851892 153.69197222c5.77143243-10.91927778 15.24551351-19.87988889 26.5285946-25.09216666-3.38156757 12.3276111-14.0348919 22.412-26.62783784 25.20555555"/>
      </g>
      <g>
        <path fill="rgb(138,219,179)" fill-rule="evenodd" d="M55.46409608 158.2770353c6.49531372.17717646 13.0689804-.0444706 19.351-1.66164706 6.2820196-1.61788236 12.2985098-4.72588236 16.47878431-9.56682353-12.63586274.01341176-25.24270588 3.75811764-35.73256863 10.61364705"/>
        <path fill="none" stroke="rgb(21,39,53)" stroke-linecap="butt" stroke-linejoin="miter" stroke-width="2" d="M55.46409608 158.2770353c6.49531372.17717646 13.0689804-.0444706 19.351-1.66164706 6.2820196-1.61788236 12.2985098-4.72588236 16.47878431-9.56682353-12.63586274.01341176-25.24270588 3.75811764-35.73256863 10.61364705"/>
      </g>
      <g>
        <path fill="rgb(138,219,179)" fill-rule="evenodd" d="M57.3658 143.4047025c-3.535-12.348925-9.36755556-20.8916-19.78044444-27.811725-.78711112 6.008075.79722222 12.26265 4.3851111 17.307925 3.5878889 5.045275 9.15133334 8.84065 15.39533334 10.5038"/>
        <path fill="none" stroke="rgb(21,39,53)" stroke-linecap="butt" stroke-linejoin="miter" stroke-width="2" d="M57.3658 143.4047025c-3.535-12.348925-9.36755556-20.8916-19.78044444-27.811725-.78711112 6.008075.79722222 12.26265 4.3851111 17.307925 3.5878889 5.045275 9.15133334 8.84065 15.39533334 10.5038"/>
      </g>
      <g>
        <path fill="rgb(138,219,179)" fill-rule="evenodd" d="M33.26654375 166.665425c-.1615625-7.4235 4.2246875-14.71875 10.52975-17.51475-.5115 6.597-5.2614375 14.229-10.52975 17.51475"/>
        <path fill="none" stroke="rgb(21,39,53)" stroke-linecap="butt" stroke-linejoin="miter" stroke-width="2" d="M33.26654375 166.665425c-.1615625-7.4235 4.2246875-14.71875 10.52975-17.51475-.5115 6.597-5.2614375 14.229-10.52975 17.51475"/>
      </g>
      <g>
        <path fill="rgb(138,219,179)" fill-rule="evenodd" d="M29.31492308 155.4128c-.78307693-10.34836364-8.55923077-19.92218182-18.93153846-23.3069091 2.3776923 10.352 8.70923076 18.96945455 18.93153846 23.3069091"/>
        <path fill="none" stroke="rgb(21,39,53)" stroke-linecap="butt" stroke-linejoin="miter" stroke-width="2" d="M29.31492308 155.4128c-.78307693-10.34836364-8.55923077-19.92218182-18.93153846-23.3069091 2.3776923 10.352 8.70923076 18.96945455 18.93153846 23.3069091"/>
      </g>
      <g>
        <path fill="rgb(138,219,179)" fill-rule="evenodd" d="M32.68469032 174.39273846c-2.24045161-3.12715384-5.89741935-5.07184615-9.68141935-6.03692308-3.78329032-.96576923-7.73619355-1.05161538-11.64651613-1.13123076 5.27503226 5.6616923 13.19574193 8.87953846 21.03058064 8.54446153"/>
        <path fill="none" stroke="rgb(21,39,53)" stroke-linecap="butt" stroke-linejoin="miter" stroke-width="2" d="M32.68469032 174.39273846c-2.24045161-3.12715384-5.89741935-5.07184615-9.68141935-6.03692308-3.78329032-.96576923-7.73619355-1.05161538-11.64651613-1.13123076 5.27503226 5.6616923 13.19574193 8.87953846 21.03058064 8.54446153"/>
      </g>
      <g>
        <path fill="rgb(138,219,179)" fill-rule="evenodd" d="M37.96805192 200.54396667c-7.06771154-2.38466667-14.94373077-1.7678889-21.62792307 1.69322222C9.655225 205.6983 4.22903269 211.9703 1.44051346 219.45874444c13.26876923-2.75255555 26.3625-9.1941111 36.52753846-18.91477777"/>
        <path fill="none" stroke="rgb(21,39,53)" stroke-linecap="butt" stroke-linejoin="miter" stroke-width="2" d="M37.96805192 200.54396667c-7.06771154-2.38466667-14.94373077-1.7678889-21.62792307 1.69322222C9.655225 205.6983 4.22903269 211.9703 1.44051346 219.45874444c13.26876923-2.75255555 26.3625-9.1941111 36.52753846-18.91477777"/>
      </g>
      <g>
        <path fill="rgb(138,219,179)" fill-rule="evenodd" d="M53.8837 191.27833793c-2.40955556 6.94744828-1.94677778 15.34310345 3.40977778 21.33089655 2.17933333-7.12875862.89055555-15.1875862-3.40977778-21.33089655"/>
        <path fill="none" stroke="rgb(21,39,53)" stroke-linecap="butt" stroke-linejoin="miter" stroke-width="2" d="M53.8837 191.27833793c-2.40955556 6.94744828-1.94677778 15.34310345 3.40977778 21.33089655 2.17933333-7.12875862.89055555-15.1875862-3.40977778-21.33089655"/>
      </g>
      <g>
        <path fill="rgb(138,219,179)" fill-rule="evenodd" d="M63.38257391 188.21317241c.63713044 8.93124138 6.20130435 17.32158621 14.06343479 21.20572414.391.19268966.8426087.37703448 1.24321739.20937931.62086956-.25944827.67704348-1.12806896.60017391-1.81082758-.99634783-8.90013794-7.4216087-17.50744828-15.90682609-19.60427587"/>
        <path fill="none" stroke="rgb(21,39,53)" stroke-linecap="butt" stroke-linejoin="miter" stroke-width="2" d="M63.38257391 188.21317241c.63713044 8.93124138 6.20130435 17.32158621 14.06343479 21.20572414.391.19268966.8426087.37703448 1.24321739.20937931.62086956-.25944827.67704348-1.12806896.60017391-1.81082758-.99634783-8.90013794-7.4216087-17.50744828-15.90682609-19.60427587"/>
      </g>
      <g>
        <path fill="rgb(138,219,179)" fill-rule="evenodd" d="M68.31 187.394c3.86614286 3.77333333 9.50445238 6.01466667 15.19664286 6.04133333 5.69219047.026 11.35559524-2.16333333 15.26454762-5.90066666C89.08811905 186.57733333 77.91704762 185.93933333 68.31 187.394"/>
        <path fill="none" stroke="rgb(21,39,53)" stroke-linecap="butt" stroke-linejoin="miter" stroke-width="2" d="M68.31 187.394c3.86614286 3.77333333 9.50445238 6.01466667 15.19664286 6.04133333 5.69219047.026 11.35559524-2.16333333 15.26454762-5.90066666C89.08811905 186.57733333 77.91704762 185.93933333 68.31 187.394"/>
      </g>
      <path fill="rgb(26,46,53)" fill-rule="evenodd" d="M69.99926571 111.00003898c.00598668.0021998-.02469503.0975242-.0898001.28157361-.07408508.19944797-.1728652.46928935-.300082.81392372-.27763198.73033155-.67499743 1.77596688-1.18386466 3.11490805-.52832393 1.34700709-1.13746794 3.00858469-1.84314707 4.93853714-.35545873.96424296-.7356125 1.995213-1.13746794 3.08777726-.3876371 1.09916365-.79622756 2.2606548-1.22651971 3.47934057-1.73912862 4.8710768-3.66983078 10.71739551-5.75468979 17.22658544-2.04669396 6.52092216-4.19665804 13.72011409-6.31219874 21.3152689-2.087104 7.60542052-3.93623775 14.88600481-5.51148118 21.53231522-1.52959505 6.65657612-2.84591486 12.66494632-3.79555093 17.74060393-.24395694 1.26708125-.47668886 2.4740348-.69669911 3.61646105-.19830856 1.14535932-.3853921 2.22545809-.56125063 3.23662998-.35545873 2.01941073-.66003074 3.75944765-.86432597 5.18858037-.22150691 1.41153437-.39362377 2.51436434-.5148539 3.28502545-.06061508.36076618-.10776013.64380632-.14368017.85278674-.03442337.19211532-.0546284.29037278-.0613634.28963952-.00673501-.00146653.00149667-.10119052.02319836-.29477238.0261917-.20971367.0613634-.49422034.10701178-.85791959.10476679-.7728609.25368529-1.87935719.44525884-3.29529115.18259353-1.43279904.46621219-3.17723555.80221423-5.20177913.16687852-1.01337169.34423372-2.09567025.53281393-3.24322936.21177857-1.14462605.43553049-2.35451266.67050742-3.6237937.9174577-5.08519005 2.20683747-11.1030927 3.71996917-17.76846798 1.55728341-6.65437632 3.39818548-13.94229326 5.48603782-21.55284663 2.11628904-7.5995544 4.27822646-14.80094612 6.34437711-21.31966849 2.1043157-6.5077234 4.0619579-12.34890927 5.83401321-17.21192015.43852383-1.21648598.85684263-2.37504407 1.25196307-3.47200792.41233213-1.0896312.8014659-2.11840145 1.1651563-3.08044462.72588416-1.92408633 1.35448486-3.57906455 1.90451048-4.918739.53730393-1.3279422.9571194-2.36624488 1.2504664-3.09071031.14068682-.33876825.25218862-.60421004.33375704-.80072496.07707842-.17891656.11973347-.26984137.12572014-.26764158"/>
      <path fill="rgb(26,46,53)" fill-rule="evenodd" d="M18.00027903 138.00025509c.0050598-.00441931.05999473.04861236.16408197.15688536.11565248.12374057.26527789.28430869.45321318.48612366.39538693.42940924.9693124 1.07315482 1.68563498 1.92166158 1.4311995 1.69701352 3.45150387 4.21307176 5.58240092 7.58573881 2.13161988 3.3616188 4.31672903 7.6446629 5.83755922 12.7261283 1.56419987 5.06599781 2.53495792 10.82361703 3.50210183 16.8419753 1.92778237 12.04850136 4.29359854 22.83823705 6.00597815 30.64346807.86305668 3.88383345 1.56347704 7.0340621 2.05355445 9.24003237.23347346 1.07389137.41707178 1.91650572.546458 2.51532169.05565776.27252387.09975027.48833331.13372318.65626694.0281903.14804676.03975555.22464806.0332501.22612116-.00578263.0014731-.02891313-.072182-.0693915-.21728254-.04264685-.16572398-.09830461-.37932377-.1676961-.64816489-.14601126-.59513321-.35201725-1.4325917-.613681-2.49911756-.51682205-2.20007786-1.2555523-5.3414679-2.16631563-9.2142531-1.77671131-7.79197309-4.18372867-18.58244533-6.11367953-30.64199496-.9671439-6.01983137-1.92489106-11.75903681-3.46306912-16.80220155-1.49480838-5.05642266-3.63871633-9.31884333-5.73491763-12.68635454-2.09403283-3.37561326-4.07819578-5.91082182-5.47397672-7.63287807-.69825188-.86176468-1.25482947-1.51950473-1.63286853-1.96511809-.17709287-.21139014-.31732151-.38006032-.42646855-.5096933-.09396764-.11637505-.14022864-.17824534-.13589167-.18266464"/>
      <path fill="rgb(26,46,53)" fill-rule="evenodd" d="M70.99999669 187.01322826c.0007248.01268937-.1174174.03508236-.34282982.06419326-.26672594.03060376-.59143579.06792542-.98427672.1127114-.21888922.02164657-.45517362.04553243-.71102758.0716576-.26165235.04030738-.54287427.0836005-.84076656.12987936-.60303257.09255772-1.2915914.18362257-2.04103331.35455576-.37762016.07762905-.77118588.15824384-1.17997238.24259079-.4073369.1059935-.82916979.21571918-1.26477384.32992346-.8799057.20377626-1.78952814.53593902-2.75858409.83749802-1.91129433.68970426-3.968998 1.5772133-6.0201785 2.73194542-2.0446573 1.16966079-3.85375501 2.51697267-5.39830117 3.86129882-.75016672.69866145-1.47279108 1.35328335-2.07075006 2.0474662-.6407221.65387546-1.15967802 1.33238322-1.6394948 1.94744416-.50518473.59490724-.85671213 1.2129539-1.21331312 1.7212749-.36094978.50757456-.62042774.9763346-.83061938 1.36224054-.20149406.34933073-.36747297.6389468-.50373514.87631255-.1195918.19929766-.18699808.30081257-.19859486.29558754-.01159678-.00597147.03479034-.11868287.13336297-.32992346.1210414-.24781582.26817554-.54862839.44575124-.91363421.19279647-.39859532.43560405-.88228401.78350746-1.4040408.34282981-.5239961.68276043-1.15771786 1.18069718-1.76979306.4711192-.63148247.98427672-1.32715819 1.62209963-1.99745518.59505978-.71135082 1.31840894-1.3816478 2.07147485-2.09598436 1.54961976-1.37343704 3.37538783-2.74687408 5.4410643-3.9284778 2.07292446-1.16667505 4.1567209-2.05343767 6.09120879-2.73194542.97992792-.2948411 1.90042235-.61804667 2.79047522-.81137286.44140245-.10748638.86758412-.2112406 1.27926982-.31126264.41313529-.07613618.8117746-.14928663 1.19301876-.21945135.7574147-.15600454 1.45249671-.22915499 2.06205247-.30230544.30079149-.03508236.5841878-.06867185.84801455-.10002204.25802836-.01418223.49721195-.0268716.71755077-.03956096.39574013-.01642153.72262437-.03060376.9915247-.04180026.22758682-.00597146.34645382-.0022393.34717862.01045006"/>
      <path fill="rgb(26,46,53)" fill-rule="evenodd" d="M73.99925032 137.00127784c.01628047.01954023-.23310674.26304156-.69932021.6846596-.52689523.46370468-1.1973546 1.05366932-1.99879777 1.75937224-1.69612903 1.47378426-4.05901733 3.49018568-6.68239315 5.6989832-2.62485587 2.21030063-5.0129049 4.1943855-6.7534352 5.61556146-.83104403.66812555-1.52666413 1.22727675-2.07353994 1.66693192-.49359427.38779841-.7748024.59146773-.79108286.5719275-.01554045-.02104333.2353268-.2637931.70080025-.68616269.52689523-.46370469 1.19809463-1.05442087 1.9995378-1.76087533 1.69760906-1.47303272 4.0582773-3.48868259 6.6809131-5.69748012 2.62189579-2.20729443 5.00920479-4.18987622 6.7497351-5.61180372.83178404-.6688771 1.52666412-1.2280283 2.07427995-1.66768346.49507431-.38779841.77702246-.59297083.79330293-.5734306"/>
      <path fill="rgb(26,46,53)" fill-rule="evenodd" d="M76.9998827 151.00487405c.02775861.10179505-4.87483882 1.74888497-10.9489919 3.67916414-6.07628836 1.93027917-11.02301486 3.41281317-11.05077347 3.31101812-.0277586-.10179506 4.8734153-1.74888498 10.95041542-3.67916415 6.07415309-1.93027917 11.02159134-3.4120478 11.04934995-3.31101811"/>
      <path fill="rgb(26,46,53)" fill-rule="evenodd" d="M57.99774492 145.99951854c-.0217104.013211-.21036632-.2458713-.53227918-.72587078-.36233913-.54238474-.81825758-1.22201703-1.35877174-2.03008956-1.15289724-1.7100899-2.79016104-4.0432984-4.7253814-6.52696545-1.9382149-2.48366706-3.80306361-4.64660051-5.17755668-6.19081903-.6498148-.72807261-1.19706668-1.3394481-1.632772-1.82678703-.38479817-.43302706-.5891754-.68036624-.5697109-.6979809.01871586-.01761466.25827892.19669704.67676565.59889844.41998399.40146746 1.0091594.99963195 1.72335677 1.75119078 1.42839476 1.50385159 3.33217247 3.64843644 5.27862235 6.14164477 1.94195807 2.49394227 3.5515224 4.85944431 4.6497693 6.60990114.54949778.8755954.97921402 1.59265884 1.26070062 2.09687848.2837325.50275175.42971624.78678815.4072572.79999914"/>
      <path fill="rgb(26,46,53)" fill-rule="evenodd" d="M39.99743718 152.0007956c.04005563.03035453-.39254517.73415602-1.07883163 1.87633336-.68762165 1.14147142-1.61958265 2.72908381-2.58492333 4.5221187-.96467309 1.79444673-1.77913757 3.45265104-2.35660623 4.6611848-.57746867 1.2071219-.92795543 1.95963183-.97335181 1.93916017-.03938804-.01905982.23499302-.80757162.75972178-2.04716582.52406116-1.2395942 1.3098191-2.92532936 2.27916535-4.72824712.97001384-1.80150592 1.9386925-3.37641176 2.67905405-4.48682274.73969397-1.11041098 1.24038935-1.76338628 1.27577182-1.73656135"/>
      <path fill="rgb(26,46,53)" fill-rule="evenodd" d="M34.99948796 174.99599566c-.0270735.05526012-1.04349006-.46646045-2.70735004-1.25310456-1.66308644-.78745676-3.98599277-1.81464494-6.61134877-2.7816971-2.62612953-.96380156-5.0526887-1.68299581-6.8202015-2.15758275-1.7675128-.4753996-2.87133809-.73219664-2.86050869-.79395795.00464117-.02763007.28775263.00487589.79364032.08695343.5058877.07963958 1.23532515.22429108 2.13029772.42664065 1.78994513.40469914 4.24280426 1.08326095 6.8851779 2.05275106 2.64005304.9727407 4.95986525 2.04950046 6.59974584 2.90603237.82071382.42826595 1.47589253.79233265 1.9191244 1.06213208.44400541.26736147.6845728.42664065.67142282.45183277"/>
      <path fill="rgb(26,46,53)" fill-rule="evenodd" d="M38.99994096 201.00480575c.00297016.01188395-.10618322.04613767-.3155795.10066401-.25320616.06011878-.55690503.13282057-.92074964.22020252-.86208896.18804596-2.01005584.43690975-3.40157585.73960083-2.86768957.62775193-6.8625549 1.41139327-11.11062637 2.7605706-4.24881402 1.36176032-7.89320045 3.09332105-10.3651162 4.58440666-1.2392993.74309612-2.20460132 1.39881027-2.85655146 1.87207092-.65343522.46976537-1.00985443.73750367-1.02916048.716532-.00816794-.00908772.06979877-.0866829.22870233-.22789213.16038865-.1370149.39057605-.3495278.70986826-.59489632.62670378-.50821343 1.57418485-1.19888037 2.80383113-1.97343398 2.45186716-1.55609778 6.11184694-3.33799053 10.3873924-4.70813952 4.28222831-1.35966315 8.29268698-2.10555548 11.17671243-2.67179053 1.40117303-.25725246 2.55730784-.47046442 3.42607967-.6298491.8108537-.14260734 1.26083296-.2125129 1.26677328-.18804596"/>
      <path fill="rgb(26,46,53)" fill-rule="evenodd" d="M55.98171754 207.99995428c-.12818346.01477847-.8954129-3.55496052-1.71410285-7.97298357-.81868996-4.4195009-1.37820606-8.01214651-1.24908696-8.02692498.12818346-.01477847.89447725 3.5542216 1.7131672 7.9737225.81868996 4.41728413 1.37820607 8.01140758 1.25002261 8.02618605"/>
      <path fill="rgb(26,46,53)" fill-rule="evenodd" d="M73.99809963 200.99902914c-.03894948.03155135-.58692837-.70807093-1.46799246-1.90482085-.88039255-1.19748368-2.0999142-2.8476925-3.47859147-4.64098302-1.38002035-1.7932905-2.65729467-3.39066917-3.58536676-4.54412771-.92807208-1.1541923-1.49955496-1.871802-1.46463474-1.90775587.01678857-.01761005.18198809.13867918.46672221.4365826.28473413.29716966.6863167.73962227 1.17385674 1.29507273.97440853 1.1109009 2.28324536 2.68553325 3.66729497 4.48322627 1.38203499 1.79916053 2.576038 3.4794532 3.4100941 4.71876076.41702805.6207544.746084 1.12851096.96500694 1.48658206.21959448.35733735.33174212.56205423.31361047.57746303"/>
      <path fill="rgb(26,46,53)" fill-rule="evenodd" d="M27 218v8.93438274h2.14858605L36.78911868 252h16.94342256l7.40243831-24.81739855L64 226.93438275V218H27z"/>
      <path fill="rgb(55,90,100)" fill-rule="evenodd" d="M64 226.5c0 .139-7.8359442.251-17.49924893.251C36.833691 226.751 29 226.639 29 226.5s7.83369099-.251 17.50075107-.251C56.1640558 226.249 64 226.361 64 226.5"/>
      <path fill="rgb(26,46,53)" fill-rule="evenodd" d="M75.9999518 170.0054945c.00501907.02414064-.38216607.12638338-1.0855524.29039777-.76289814.18247489-1.76456044.42104128-2.9734385.71001902-2.50594828.61416644-5.94687697 1.54713143-9.68034555 2.78824466-3.73275158 1.24608337-7.04390155 2.5617486-9.41576905 3.57139564-1.14004514.49417324-2.08291266.90243417-2.80207321 1.21413252-.66108278.28968776-1.0317767.44021179-1.04253185.4182012-.01075514-.0220106.3384285-.21442575.98230305-.54387457.64100651-.33086886 1.58315702-.78386099 2.75905264-1.3185053 2.35035721-1.0714187 5.65863915-2.42897505 9.4050139-3.67860852 3.74494074-1.24537335 7.20881374-2.14283738 9.7362723-2.69665221 1.26337078-.27690742 2.2894114-.48068287 3.00283588-.59996607.71342448-.12283329 1.10921373-.17892479 1.1142328-.15478414"/>
      <path fill="rgb(250,250,250)" fill-rule="evenodd" d="M57 239.5005c0 .138-5.14956873.25-11.5.25-6.35254175 0-11.5-.112-11.5-.25 0-.139 5.14745825-.251 11.5-.251 6.35043127 0 11.5.112 11.5.251"/>
      <path fill="rgb(250,250,250)" fill-rule="evenodd" d="M58 238.4995c0 .139-5.5971657.251-12.49963922.251C38.59500101 238.7505 33 238.6385 33 238.4995c0-.138 5.59500101-.25 12.50036078-.25 6.90247352 0 12.49963922.112 12.49963922.25"/>
    </g>
  </g>
</svg>
