<svg xmlns="http://www.w3.org/2000/svg" xmlns:xlink="http://www.w3.org/1999/xlink" width="42.321" height="31.973" viewBox="0 0 42.321 31.973">
  <defs>
    <path id="path-1" fill-rule="evenodd" d="M2.085196 0h37.25824v15.34049524H2.085196V0z"/>
    <mask id="mask-2" maskContentUnits="userSpaceOnUse" maskUnits="userSpaceOnUse">
      <rect width="42.321" height="31.973" x="0" y="0" fill="black"/>
      <use fill="white" xlink:href="#path-1"/>
    </mask>
    <path id="path-5" fill-rule="evenodd" d="M0 4.22544762h42.32067544v15.71428571H0V4.22544762z"/>
    <mask id="mask-6" maskContentUnits="userSpaceOnUse" maskUnits="userSpaceOnUse">
      <rect width="42.321" height="31.973" x="0" y="0" fill="black"/>
      <use fill="white" xlink:href="#path-5"/>
    </mask>
  </defs>
  <g>
    <g>
      <use fill="none" xlink:href="#path-1"/>
      <g mask="url(#mask-2)">
        <path fill="rgb(118,205,38)" fill-rule="evenodd" d="M2.750196 15.34049524c.36784 0 .66576-.29866667.66576-.66666667V2.1656381c0-.45866667.37164-.832.82916-.832h32.9384c.45676 0 .8284.37333333.8284.832v.93104761c0 .3687619.29868.66742858.66576.66742858.36784 0 .66576-.29866667.66576-.66742858V2.1656381c0-1.19466667-.969-2.16609524-2.15992-2.16609524h-32.9384c-1.19168 0-2.15992.97142857-2.15992 2.16609524v12.50819047c0 .368.29792.66666667.665.66666667"/>
      </g>
    </g>
    <path fill="rgb(118,205,38)" fill-rule="evenodd" d="M37.67773438 10.63516908c0-.36608886.29589843-.66259765.6611328-.66259765.36450196 0 .66113282.29650879.66113282.66259765v12.04953003c0 1.18603516-.96228027 2.14968872-2.14562988 2.14968872H24.91625977v3.19503785c0 1.44021606 1.1697998 2.61264038 2.60681152 2.61264038h3.61132812c.36523438 0 .66101075.29650879.66101075.66259765 0 .36608887-.29577637.66259766-.66101075.66259766h-3.57666015c-.01965332.00152588-.03930664.00531006-.0604248.00531006H13.4868164c-.02111817 0-.04003907-.00378418-.0604248-.00531006h-3.595459c-.36450195 0-.66040038-.29650879-.66040038-.66259766 0-.36608886.29589843-.66259765.66040039-.66259765h3.64526367c1.43774414 0 2.60754394-1.17242432 2.60754394-2.61264038v-3.19503785H4.14489746C2.96228027 24.83438783 2 23.87073427 2 22.68469911v-1.41976928c0-.36611939.29589844-.66262818.66113281-.66262818.36450196 0 .66113282.2965088.66113282.66262818v1.41976928c0 .45535279.36901855.82522583.82263183.82522583h32.70947266c.4543457 0 .82336426-.36987304.82336426-.82522583v-1.13308715H5.02722167c-.36535645 0-.66113281-.2965088-.66113281-.66186524 0-.36608887.29577636-.66259765.66113281-.66259765h32.6505127v-9.59197999zm-21.2755127 20.01293946h8.19543457c-.62182617-.69665528-1.00378418-1.61264038-1.00378418-2.61868286v-3.19503785h-6.18859863v3.19503785c0 1.00604248-.38195801 1.92202758-1.00305176 2.61868286z"/>
    <g>
      <use fill="none" xlink:href="#path-5"/>
      <g mask="url(#mask-6)">
        <path fill="rgb(118,205,38)" fill-rule="evenodd" d="M38.00939941 6.40296083c0-1.20074463.96704102-2.17752075 2.15600586-2.17752075 1.18896485 0 2.15527344.97677612 2.15527344 2.17752075 0 1.20001221-.9663086 2.17675782-2.15527344 2.17675782-.43835449 0-.84643554-.1333313-1.1866455-.36114502l-9.33398438 7.2236328c.00292969.04190064.00598145.0822754.00598145.1234131 0 1.20077514-.9663086 2.17752075-2.15527344 2.17752075-1.17077637 0-2.12438965-.94778443-2.1529541-2.12265015l-8.8466797-4.3078003c-.39611815.48913575-.99731444.80227662-1.67028808.80227662-.59594726 0-1.13537597-.24533081-1.52612304-.64154053l-9.0789795 5.66552734c.0588379.19812012.09118653.40686036.09118653.6232605 0 1.20074463-.96704102 2.17752075-2.15600586 2.17752075-1.18811035 0-2.15600586-.97677612-2.15600586-2.17752075 0-1.2000122.9678955-2.17678833 2.15600586-2.17678833.49414062 0 .94909668.17068482 1.31262207.45410156l9.23071289-5.75997924c-.01733399-.11123658-.02941895-.22476197-.02941895-.34133911 0-1.20077515.96716309-2.17752076 2.15600586-2.17752076 1.18896485 0 2.15600586.9767456 2.15600586 2.17752076 0 .04266357-.0045166.0845642-.00671386.12646484l8.75085449 4.2605896c.39001465-.5645752 1.03723144-.93640137 1.76977539-.93640137.65637207 0 1.24401855.29867554 1.63928222.76724243l9.01794434-6.97903442c-.0913086-.24154663-.14331055-.50134277-.14331055-.77410889zm2.15600586.84268189c-.46020507 0-.83435058-.37789917-.83435058-.84265137 0-.46478271.3741455-.84268188.83435058-.84268188.46020508 0 .83435059.37789917.83435059.84268188 0 .4647522-.3741455.84265137-.83435059.84265137zM13.99121094 9.93820864c0 .46478271.3741455.84268188.83435058.84268188.46020508 0 .83435059-.37789917.83435059-.84268188 0-.4647522-.3741455-.84341431-.83435059-.84341431-.46020507 0-.83435058.3786621-.83435058.8434143zm13.50427246 6.4708557c-.46020508 0-.83435059-.3786621-.83435059-.8434143 0-.46401977.37414551-.84268188.83435059-.84268188s.83435058.3786621.83435058.84268188c0 .4647522-.3741455.8434143-.83435058.8434143zM2.15563965 18.60562808c-.46020508 0-.83435059-.37866211-.83435059-.8434143 0-.46478272.37414551-.8426819.83435059-.8426819s.83435058.37789918.83435058.8426819c0 .46475219-.3741455.8434143-.83435058.8434143z"/>
      </g>
    </g>
  </g>
</svg>
