<svg xmlns="http://www.w3.org/2000/svg" xmlns:xlink="http://www.w3.org/1999/xlink" width="42.515" height="47" viewBox="0 0 42.515 47">
  <defs>
    <path id="path-10" fill-rule="evenodd" d="M0 6.22678434h42.515V47H0V6.22678434z"/>
    <mask id="mask-11" maskContentUnits="userSpaceOnUse" maskUnits="userSpaceOnUse">
      <rect width="42.515" height="47" x="0" y="0" fill="black"/>
      <use fill="white" xlink:href="#path-10"/>
    </mask>
  </defs>
  <g>
    <path fill="#ffffff" fill-rule="evenodd" d="M3.7267348 25C3.3254438 25 3 25.44724176 3 26.00037023 3 26.55275823 3.32544379 27 3.7267348 27h1.5465304C5.6745562 27 6 26.55275824 6 26.00037023 6 25.44724176 5.67455621 25 5.2732652 25H3.7267348z"/>
    <path fill="#ffffff" fill-rule="evenodd" d="M36 26c0 .55218357.3122312 1 .69723035 1h1.60605539C38.68828488 27 39 26.55218357 39 26s-.31171512-1-.69671426-1h-1.6060554C36.31223122 25 36 25.44781643 36 26"/>
    <path fill="#ffffff" fill-rule="evenodd" d="M20 41.72660452v1.54625314C20 43.67407673 20.44781643 44 21 44s1-.32592327 1-.72714234v-1.54625314C22 41.32538544 21.55218357 41 21 41s-1 .32538544-1 .72660452"/>
    <path fill="#ffffff" fill-rule="evenodd" d="M22 10.30288958V8.69762642C22 8.3126935 21.55218357 8 21 8s-1 .3126935-1 .69762642v1.60526316C20 10.6878225 20.44781643 11 21 11s1-.3121775 1-.69711042"/>
    <path fill="#ffffff" fill-rule="evenodd" d="M7.63155552 38.23441734l-.39700319.39690013c-.31273644.31265527-.31273644.8204976 0 1.13315285C7.39121727 39.9210946 7.59654328 40 7.8018693 40c.20473258 0 .4100586-.0789054.56672353-.23552968l.39640977-.39630686c.31332987-.31265526.31332987-.82049758 0-1.13315285-.31273645-.31324853-.8201172-.31324853-1.13344708-.00059327"/>
    <path fill="#ffffff" fill-rule="evenodd" d="M33.7765371 13.2234787c-.2985159-.2979716-.78190812-.2979716-1.08042403 0l-.47265017.47211816c-.29795053.298537-.29795053.7819634 0 1.0805004.14982332.14926849.34487632.22390274.5404947.22390274.19561837 0 .39067138-.07463425.53992933-.22390275l.47265017-.47268358c.29795053-.29797159.29795053-.7819634 0-1.07993498"/>
    <path fill="#ffffff" fill-rule="evenodd" d="M33.36844448 38.23448276c-.31273645-.31264368-.82071063-.31264368-1.13344708 0-.31332987.31323693-.31332987.82106044 0 1.13370411l.39640977.39629218C32.7880721 39.92109752 32.99339812 40 33.1981307 40c.20532602 0 .41065203-.07890248.56731697-.23552095.31273644-.31264368.31273644-.82046718 0-1.13311086l-.3970032-.39688543z"/>
    <path fill="#ffffff" fill-rule="evenodd" d="M8.77609725 13.69559686l-.47211817-.47211817c-.298537-.29797159-.78196339-.29797159-1.08050039 0-.29797159.29797159-.29797159.7819634 0 1.07993498l.47268358.47268358c.1492685.1492685.3443353.22390275.5399675.22390275.1956322 0 .39069898-.07463425.53996748-.22390275.298537-.298537.298537-.78196339 0-1.08050039"/>
    <path fill="#ffffff" fill-rule="evenodd" d="M21.86471558 23.66394043c4.58444213 1.81408691 5.12652588 4.39111328 5.13513183 6.17230225.0131836 2.63787841-1.6708374 4.81750488-4.33517456 5.67816162l.00912476 2.14074707c.00354004.7335205-.5942688 1.33337402-1.33242798 1.33691406L19.60467529 39h-.0071106c-.772583 0-1.42715453-.60437012-1.43069457-1.32391357l-.00759888-1.88342286c-1.38308716-.20043945-2.70233154-.6751709-3.61932373-1.31292724-.48028564-.33410645-.66317749-.9484253-.45495605-1.52935791l.65304565-1.82159424c.13882446-.38848877.44683838-.68713379.84454346-.81878662.39212036-.1291504.83187866-.07330322 1.1763916.15057373.91647339.59539795 2.08776855.9329834 3.22668457.92797851.60488891-.00299072 1.12823486-.151062 1.4727478-.4173584.302948-.23388671.45544434-.54351806.45343018-.9210205-.00204468-.38146973-.00558472-1.09204102-2.27423096-1.98461914-2.66079712-1.01275635-5.39151001-2.50823975-5.40820313-5.9025879-.01266479-2.58398437 1.56900025-4.62695312 4.1664734-5.4397583l-.00912476-2.40301513c-.00204468-.34710693.12057495-.67120361.34399414-.91107178.23910522-.25628662.57400513-.39941406.94281006-.4008789l1.70986938-.0079956c.35818482-.00451661.69458008.1286621.94534302.36700439.25585937.24383544.39770508.57495117.39974975.9329834l.00759888 2.1376953c1.07452393.16955567 2.07662964.508667 2.9272461.99432374.575531.328125.82580566 1.0078125.5953064 1.6161499l-.68041993 1.79412842c-.13830566.36553955-.43164062.6517334-.80349731.78540039-.3718567.13366699-.78323365.100708-1.12823487-.09173584-.39871216-.22143555-1.32937622-.73754883-2.80670166-.7340088-.99856567.00494386-1.56900024.37298585-1.565979 1.0107422.00204468.39892578.00405884.8118286 2.59088135 1.85101318zm-.5709839 11.34783936c-.00149535-.30963135.211792-.58044434.51727296-.65570069 2.33148193-.57745361 3.8310852-2.34918213 3.81994629-4.51330566-.00811768-1.60369873-.52233887-3.4432373-4.27792359-4.9296875-.0010376 0-.00204467-.00054932-.00305175-.0010376-2.63342286-1.05810547-3.43844605-1.78015137-3.44451905-3.09265137-.00558471-1.0840454.75790406-2.3536377 2.9272461-2.3640747.0126648-.00054932.02532959-.00054932.0380249-.00054932 1.7949524 0 2.93283081.62133789 3.43185425.89910889l.66723633-1.76025391c-.84051514-.47821045-1.87149048-.78686523-2.98150635-.89160156-.35006714-.03338623-.61755371-.32214356-.6190796-.6682129l-.00961303-2.68621826-1.60397339.00799561.01062012 2.87524414c.00100708.31213379-.21530151.58441162-.52383423.65771484-2.29248047.54400635-3.65478516 2.14019776-3.64416504 4.26794434.01217652 2.43444824 1.82385254 3.6217041 4.54037476 4.65496826 2.19772339.86462403 3.13497925 1.83050537 3.14208984 3.23272705.00402832.79138184-.34298706 1.49694825-.97729492 1.9866333-.59121704.45678711-1.39016724.70062256-2.31069946.70513916h-.03344727c-1.3805542 0-2.81225586-.4144287-3.93746948-1.1399536l-.64593506 1.8026123c-.00152588.00354003-.00253296.00701904-.00305176.01049804.86428833.5848999 2.17697144.9998169 3.52560425 1.1124878.35360718.02941894.62515259.3196411.62667847.66821289l.01065063 2.43688964c.01773071.01348877.04660034.02593995.0623169.02593995l1.70629882-.00799561-.01065063-2.63287353z"/>
    <g>
      <use fill="none" xlink:href="#path-10"/>
      <g mask="url(#mask-11)">
        <path fill="#ffffff" fill-rule="evenodd" d="M42.04835 18.82909759l-2.998-.96226506c-.355-.11410843-.7355.07755422-.851.4282771l-.974 2.96138555c-.115.3507229.079.72713253.434.84074699.069.02272289.1395.03359036.209.03359036.2845 0 .549-.17980723.642-.46186747l.3875-1.17813253c.6755 1.96256627 1.0215 4.0140482 1.0215 6.12283133 0 10.50489156-8.651 19.05166265-19.2845 19.05166265-10.633 0-19.284-8.54677109-19.284-19.05166265 0-10.50538555 8.651-19.05215663 19.284-19.05215663 3.1 0 6.0595.70440964 8.797 2.09346988 2.612 1.32484337 4.9225 3.25875903 6.6805 5.59180723.223.29589156.646.35714458.9455.13683132.299-.22031325.361-.63821686.1385-.93361446-1.881-2.49606024-4.3525-4.56433734-7.1475-5.98254216-2.93-1.4863735-6.0975-2.2406747-9.414-2.2406747-5.5115 0-10.6935 2.12063855-14.591 5.97118072-3.8975 3.85054217-6.044 8.97010843-6.044 14.4156988 0 5.44509638 2.1465 10.56466265 6.044 14.41520481 3.8975 3.85054217 9.0795 5.97118073 14.591 5.97118073 5.512 0 10.694-2.12063856 14.5915-5.97118073 3.8975-3.85054216 6.0435-8.97010843 6.0435-14.41520481 0-2.42986747-.4255-4.79008434-1.263-7.03668675l1.624.52114458c.3545.11410843.736-.0780482.851-.42827711.1155-.3507229-.079-.72713253-.4335-.84074699"/>
      </g>
    </g>
    <path fill="#ffffff" fill-rule="evenodd" d="M27.6208191 5H13.3791809C12.61877442 5 12 4.38665771 12 3.6317749V1.3682251C12 .61383057 12.61877441 0 13.3791809 0h14.2416382C28.38122558 0 29 .61383057 29 1.3682251v2.2635498C29 4.38665771 28.38122559 5 27.6208191 5zM13.3791809 1.35614014c-.00659179 0-.01214599.00500488-.01214599.01202392V3.6317749c0 .00653076.0055542.01208496.012146.01208496h1.70397949V1.35614014h-1.7039795zm5.01736451 1.72503662c.26968384 0 .48825073-.21679688.48825073-.48431397V1.35614014h1.84918213v2.28771972h-4.67434692V1.35614014h1.84869385v1.24072265c0 .2675171.21856689.48431397.48822021.48431397zm9.23641968.55059814V1.36816406c0-.00701904-.00506592-.01202392-.012146-.01202392h-5.91036987v2.28771972h5.91036987c.00708008 0 .012146-.0055542.012146-.01208496z"/>
  </g>
</svg>
