<svg xmlns="http://www.w3.org/2000/svg" xmlns:xlink="http://www.w3.org/1999/xlink" width="73" height="45.825" viewBox="0 0 73 45.825">
  <defs>
    <path id="path-1" fill-rule="evenodd" d="M7.0238425 17.42666687H39.203875v24.3983871H7.0238425v-24.3983871z"/>
    <mask id="mask-2" maskContentUnits="userSpaceOnUse" maskUnits="userSpaceOnUse">
      <rect width="73" height="45.825" x="0" y="0" fill="#ffffff"/>
      <use fill="white" xlink:href="#path-1"/>
    </mask>
    <path id="path-3" fill-rule="evenodd" d="M0 0h32.89242v41.77303846H0V0z"/>
    <mask id="mask-4" maskContentUnits="userSpaceOnUse" maskUnits="userSpaceOnUse">
      <rect width="73" height="45.825" x="0" y="0" fill="#ffffff"/>
      <use fill="white" xlink:href="#path-3"/>
    </mask>
  </defs>
  <g>
    <g>
      <text font-size="0" style="white-space:pre">
        <tspan x="9" y="31.825" fill="#ffffff" font-family="Arial" font-size="20" font-weight="400" style="white-space:pre;text-transform:none">+100</tspan>
      </text>
      <text font-size="0" style="white-space:pre">
        <tspan x="37" y="41.825" fill="#ffffff" font-family="Arial" font-size="8" font-weight="400" style="white-space:pre;text-transform:none">Cổ Phiếu </tspan>
      </text>
    </g>
    <g>
      <g>
        <use fill="none" xlink:href="#path-1"/>
        <g mask="url(#mask-2)"/>
      </g>
      <g>
        <use fill="none" xlink:href="#path-3"/>
        <g mask="url(#mask-4)">
          <path fill="#ffffff" fill-rule="evenodd" d="M31.50971985 40.4185184v-5.15338134c0-.3739624.31019592-.67681885.69134521-.67681885.38197327 0 .69134522.30285644.69134522.67681885v5.83026123c0 .3739624-.30937195.6776123-.69134522.6776123H4.05453491c-.38197326 0-.69134521-.3036499-.69134521-.6776123v-1.7518921H.69100952c-.3811493 0-.69134521-.30291747-.69134521-.67687988V.6768192c0-.3739624.31019592-.67681885.69134521-.67681885h27.0987854c.38197327 0 .69134522.30285644.69134522.67681885v2.16467285h3.71992492c.38197327 0 .69134522.30285644.69134522.67681884v10.1636963c0 .3739624-.30937195.67681884-.69134522.67681884-.38114929 0-.69134521-.30285644-.69134521-.67681885V4.19512973H4.74589539v34.45941162c0 .00402832.00082397.00805664.00082397.01208496 0 .00408936-.00082397.00732422-.00082397.01135254v1.74053955h26.76382446zM1.38237 1.35369907v36.6361084h1.9808197V3.51831088c0-.3739624.3093872-.67681884.69136047-.67681884h23.04389954V1.35369907H1.38237z"/>
        </g>
      </g>
      <path fill="#ffffff" fill-rule="evenodd" d="M28 8.32513462c0-.27625299-.30513919-.5-.68188437-.5H9.68188437c-.37674518 0-.68188437.22374701-.68188437.5 0 .27625298.30513919.5.68188437.5h17.63623126c.37674518 0 .68188437-.22374702.68188437-.5"/>
      <path fill="#ffffff" fill-rule="evenodd" d="M19 11.32543277c0-.27608826-.30793234-.50029815-.68812613-.50029815H9.68812613c-.3801938 0-.68812613.2242099-.68812613.50029815 0 .27549195.30793234.49970185.68812613.49970185h8.62374774c.3801938 0 .68812613-.2242099.68812613-.49970185"/>
      <path fill="#ffffff" fill-rule="evenodd" d="M9.68185517 14.82513462c-.37672905 0-.68185517.22374701-.68185517.5 0 .27625298.30512612.5.68185517.5h4.63628966c.37672905 0 .68185517-.22374702.68185517-.5 0-.27625299-.30512612-.5-.68185517-.5H9.68185517z"/>
    </g>
  </g>
</svg>
