<svg xmlns="http://www.w3.org/2000/svg" xmlns:xlink="http://www.w3.org/1999/xlink" width="41" height="47" viewBox="0 0 41 47">
  <defs>
    <path id="path-6" fill-rule="evenodd" d="M0 15.0876868h10.64008089V18.7876H0v-3.6999132z"/>
    <mask id="mask-7" maskContentUnits="userSpaceOnUse" maskUnits="userSpaceOnUse">
      <rect width="41" height="47" x="0" y="0" fill="black"/>
      <use fill="white" xlink:href="#path-6"/>
    </mask>
  </defs>
  <g>
    <path fill="#ffffff" fill-rule="evenodd" d="M19 32.2723593c0 1.92792092 1.060324 3.70016347 2.7661446 4.6261384.12759085.06849849.26398107.1015023.39974277.1015023.29415034 0 .58012985-.15505566.7316047-.4296723.22124129-.39915933.07228054-.9010664-.33060487-1.12026154-1.1722017-.63579045-1.90066377-1.8531953-1.90066377-3.17770685v-2.44664124c0-.45582627-.37271614-.82571807-.83342598-.82571807C19.37271615 29 19 29.3698918 19 29.82571807v2.44664124z"/>
    <path fill="#ffffff" fill-rule="evenodd" d="M19.99962278 28C20.55186722 28 21 27.65575196 21 27.2315271v-.4630542C21 26.34424805 20.55186722 26 19.99962278 26 19.44737835 26 19 26.34424804 19 26.7684729v.4630542C19 27.65575195 19.44737835 28 19.99962278 28"/>
    <path fill="#ffffff" fill-rule="evenodd" d="M25.27879909 42H21.7212009C21.32307191 42 21 42.44813278 21 43.00037722 21 43.55337608 21.3230719 44 21.72120091 44h3.55759818C25.67692809 44 26 43.55337608 26 43.00037722 26 42.44813278 25.6769281 42 25.27879909 42"/>
    <path fill="#ffffff" fill-rule="evenodd" d="M24.16705956 45h-2.33411912C21.37278014 45 21 45.44813278 21 45.99962278 21 46.55262165 21.37278014 47 21.83294044 47h2.33411912C24.62721986 47 25 46.55262165 25 45.99962278 25 45.44813278 24.62721986 45 24.16705956 45"/>
    <path fill="#ffffff" fill-rule="evenodd" d="M37.85687256 13.10113525c2.1375122 1.0289917 3.05761719 3.45025635 3.0960083 3.55303955.07073975.18988038.0612793.39990235-.0244751.5824585-.08685303.18255615-.2432251.32183838-.43365478.38531494-.06286621.02130127-1.00305176.32965088-2.21374512.32965088-.7670288 0-1.64208984-.12353516-2.47149658-.52233887-.7341919-.3538208-1.3248291-.87225341-1.78570557-1.40356445v.9031372c0 1.28674317-1.03701782 2.3331299-2.31228638 2.3331299-.46090698 0-.8366394.37908935-.8366394.84417724V34.0126953c0 1.73834229-.93850708 3.336792-2.44976807 4.17254639-1.03759765.57287598-1.68328857 1.67150879-1.68328857 2.86553955v.20391846c0 .41168213-.33010864.74530029-.73812866.74530029H21.8711853c-.4074707 0-.73809814-.33361816-.73809814-.7453003v-.20391845c0-1.19464111-.64459229-2.29266357-1.68273926-2.86553955C17.9390564 37.3494873 17 35.7510376 17 34.0126953v-9.39703369c0-2.28314209 1.84082031-4.14050293 4.10357666-4.14050293h1.96328735v-1.81134033c-.69137573-.02978516-1.24465942-.56451416-1.24465942-1.21936035v-.87841797c-.94241333-.18145752-1.84417725-.53582764-2.45648193-.9767456-.4425354-.31903077-.6100769-.89923096-.41748047-1.44403077l.4720459-1.32885742c.1296997-.36621094.41470337-.64587402.7803955-.76837158.36685181-.12127686.76037598-.06848145 1.08102417.14776611.60671997.4083252 1.38769532.64196777 2.1425171.64196777.50708007 0 1.09936523-.18084716 1.09936523-.68914794 0-.19775391 0-.60943604-1.43948364-1.19805909-1.24243165-.49139404-2.12023926-1.00872802-2.7553711-1.62316894-.82608032-.80090332-1.2279663-1.77258301-1.2279663-2.97003174 0-1.99890137 1.11605834-3.52215576 3.01644897-4.17138672V1.1604004C22.11721802.46618652 22.578125 0 23.26391602 0h1.21902465c.78265381 0 1.37380982.4987793 1.37380982 1.1604004v.82165526c.68356323.152771 1.35375976.40551758 1.8753357.71447754.50207519.2965088.69467162.92443848.46868896 1.5265503l-.4909668 1.3092041c-.1291504.34320068-.3996582.6116333-.74255371.7357788-.3428955.12414551-.7203064.09100342-1.03701782-.09100341-.28668213-.16564942-.88342286-.50939942-1.85977173-.50939942-.31448364 0-.84051514.05895997-.84051514.45153809 0 .16125488 0 .40496826 1.6676941 1.10144043 1.64990234.67901611 3.84194946 1.91412353 3.84194946 4.7892456 0 1.9854126-1.190094 3.63391114-3.07989502 4.33428956V17.444458c0 .61669922-.48706055 1.12719726-1.1171875 1.20922851v1.82147217h2.96246338c.40802001 0 .73864746.33361817.73864746.7453003 0 .41058349-.33062745.74420165-.73864746.74420165h-6.40139771c-1.44839478 0-2.62734985 1.1895752-2.62734985 2.65100098v9.3970337c0 1.19409179.6451416 2.29211425 1.68270874 2.86560058 1.35321045.7481079 2.24719238 2.1072998 2.41973877 3.63220215h2.71807861c.17199707-1.52490235 1.06652832-2.88409424 2.41918945-3.63220215 1.03811646-.57348633 1.68328858-1.6715088 1.68328858-2.86560059V20.10614014c0-1.28674317 1.03701782-2.33312989 2.31228637-2.33312989.46090699 0 .8366394-.37854004.8366394-.84417724V13.5032959c0-.01513672.00332642-.02972412.00445557-.0454712-.04232788-.7902832-.07348632-3.79400634 1.69049073-6.03894042 2.0045166-2.55157471 5.48406982-3.050354 5.63104248-3.07055664.19873047-.02697754.3996582.02862549.55664062.15447998.15698242.12579345.25714112.31054687.27606201.51165771.01507569.14941406.32733155 3.68164063-1.6765747 6.23321533-.52435303.66668702-1.14892578 1.19244385-1.78851319 1.6069336.20593262.0668335.41192627.1482544.6151123.246521zM20.39440918 14.489563l.3183899-.89697266c.80102538.46899414 1.7729187.73468018 2.71142577.73468018 1.51629639 0 2.57501221-.89587403 2.57501221-2.1786499 0-1.13061524-.70581055-1.90124512-2.36795044-2.5814209-1.06539917-.42120362-1.7890625-.83911133-2.27999878-1.31427002-.52825928-.51165772-.77429199-1.11431885-.77429199-1.89556885 0-1.4934082.86779785-2.51678467 2.44421387-2.8829956.33453369-.07806397.57165527-.37908936.57165527-.7261963V1.48950196h.7876587v1.11767578c0 .37579346.27664184.69195557.64627074.73858643.47927857.06066895 1.15725708.22576904 1.7328186.51220703l-.33566283.8930664c-.43640137-.23028564-1.23516846-.57232665-2.35348511-.57232665-1.6003418 0-2.31729126.9744873-2.31729126 1.94049072 0 1.18341064.86947632 1.76306152 2.58169555 2.47802734l.00335694.00170899c2.57781982 1.0604248 2.92572021 2.3190918 2.92572021 3.4109497 0 1.49230958-.96688842 2.66668702-2.5232849 3.06378174-.32730103.08428955-.55718995.3814087-.55718995.72174073v1.38165283h-.88562012v-1.2541504c0-.38250732-.28723144-.70263671-.6640625-.74084472-.81213379-.08251953-1.67996216-.35327148-2.23937988-.69250488zm18.85681152-8.4821167c-1.01696777.27911377-2.7503662.93518066-3.8513794 2.33648682-1.09936523 1.40020751-1.33764648 3.2514038-1.37548827 4.31463623 1.01751709-.27972413 2.74926758-.9362793 3.84863281-2.33648682 1.10662842-1.40808106 1.34259033-3.25482178 1.37823486-4.31463623zm-4.7631836 8.12939453c.37353517.6352539 1.01922608 1.49627686 1.95770265 1.94781494.93292236.44934082 2.00616455.41394043 2.73254394.30834961-.37402344-.63580322-1.01971435-1.49676514-1.95715332-1.94836426-.93292236-.44934082-2.00665283-.41339111-2.73309326-.30780029z"/>
    <g>
      <use fill="none" xlink:href="#path-6"/>
      <g mask="url(#mask-7)">
        <path fill="#ffffff" fill-rule="evenodd" d="M9.910725 18.7876c.3179 0 .60995-.19.70125-.4815.11055-.352-.11495-.7185-.50215-.8195l-9.1806-2.3735c-.3872-.1-.79145.104-.90145.456-.11.3525.1144.719.50215.819l9.18115 2.374c.06655.0175.13365.0255.19965.0255"/>
      </g>
    </g>
    <path fill="#ffffff" fill-rule="evenodd" d="M10.9888621 24.03453447l-9.47058882 2.71318772c-.39948373.11401987-.61334875.47936865-.47730523.81560597C1.1493417 27.83115356 1.44621633 28 1.76441981 28c.0818567 0 .1648663-.01164458.246723-.03444856l9.47001236-2.71318772c.40006018-.11499025.6139252-.47985383.47788169-.81657635-.13604352-.33623731-.57069103-.51575796-.97017476-.4012529"/>
    <path fill="#ffffff" fill-rule="evenodd" d="M9.47906145 4.40908568c-.18782684-.36018615-.65269829-.51126728-1.04009115-.33610076-.38680591.17461913-.5482196.60870366-.36097972.9694372l4.4432788 8.54867354c.13441359.258918.41204514.40890434.70082892.40890434.11387002 0 .23008788-.0229906.33867528-.07225619.3868059-.17516652.54880656-.60925105.36097972-.9699846L9.47906145 4.40908568z"/>
  </g>
</svg>
