<svg xmlns="http://www.w3.org/2000/svg" xmlns:xlink="http://www.w3.org/1999/xlink" width="55.579" height="55.431" viewBox="0 0 55.579 55.431">
  <defs>
    <path id="path-1" fill-rule="evenodd" d="M0 0h26.64925v19.9827069H0V0z"/>
    <mask id="mask-2" maskContentUnits="userSpaceOnUse" maskUnits="userSpaceOnUse">
      <rect width="55.579" height="55.431" x="0" y="0" fill="black"/>
      <use fill="white" xlink:href="#path-1"/>
    </mask>
    <path id="path-4" fill-rule="evenodd" d="M27.7687336 0h27.80989033v19.9830062H27.7687336V0z"/>
    <mask id="mask-5" maskContentUnits="userSpaceOnUse" maskUnits="userSpaceOnUse">
      <rect width="55.579" height="55.431" x="0" y="0" fill="black"/>
      <use fill="white" xlink:href="#path-4"/>
    </mask>
  </defs>
  <g>
    <g>
      <use fill="none" xlink:href="#path-1"/>
      <g mask="url(#mask-2)">
        <path fill="rgb(118,205,38)" fill-rule="evenodd" d="M22.7565597 17.4864151c-1.19787598-1.10888673-2.77038574-1.72106934-4.42767334-1.72106934H8.11996302c-4.47698975 0-8.11993408-3.53625489-8.11993408-7.88232422 0-4.34741211 3.64294433-7.88378906 8.11993408-7.88378906h10.40783691c4.47698975 0 8.12145997 3.53637695 8.12145997 7.88378906v11.27062988c0 .33215332-.2050171.63146973-.51800538.7631836-.10943603.04492187-.22351074.0657959-.33605957.0657959-.2158203 0-.42706298-.07922364-.5904541-.227417L22.7565597 17.4864151zM8.11996302 1.6574356c-3.53656006 0-6.41333008 2.79260254-6.41333008 6.225708 0 3.43151856 2.87677002 6.2241211 6.41333008 6.2241211h10.20892334c2.09820557 0 4.09002686.77514649 5.60705566 2.18041992l1.00360108.9309082V7.88314362c0-3.43310547-2.8751831-6.225708-6.4118042-6.225708H8.11996302z"/>
      </g>
    </g>
    <g>
      <use fill="none" xlink:href="#path-4"/>
      <g mask="url(#mask-5)">
        <path fill="rgb(118,205,38)" fill-rule="evenodd" d="M36.24398646-.00040131h10.85949707c4.67199707 0 8.47528076 3.53637695 8.47528076 7.88378906 0 4.34606934-3.8032837 7.88085937-8.47528076 7.88085937H36.44991908c-1.72790528 0-3.3704834.61364747-4.62054444 1.72253418l-2.55480957 2.26733399c-.16894531.1496582-.38934326.22888183-.61456299.22888183-.11907959 0-.23651123-.02087402-.350708-.0657959-.32824707-.13171386-.54058838-.43103027-.54058838-.76318359V7.88338775c0-4.34741211 3.80163574-7.88378906 8.47528076-7.88378906zm.20593262 14.10791015h10.65362548c3.6906128 0 6.692688-2.79260254 6.692688-6.2241211 0-3.43310546-3.0020752-6.225708-6.692688-6.225708h-10.8595581c-3.6906128 0-6.69268799 2.79260254-6.69268799 6.225708v9.33544923l1.0489502-.9309082c1.5847168-1.40527344 3.66168212-2.18041993 5.8496704-2.18041993z"/>
      </g>
    </g>
    <path fill="rgb(118,205,38)" fill-rule="evenodd" d="M24.65768275 39.43111724h-6.31719971c-1.29101562 0-2.3406372-.98815918-2.3406372-2.20178223v-2.59643554c0-1.21362305 1.04962158-2.20178223 2.3406372-2.20178223h6.3171997c1.29101563 0 2.3421631.98815918 2.3421631 2.20178223V37.229335c0 1.21362305-1.05114747 2.20178223-2.3421631 2.20178223zm-6.31719971-5.43823242c-.37634277 0-.6807251.28613281-.6807251.63989258V37.229335c0 .35375977.30438233.63989258.6807251.63989258h.72875977v-.25939941c0-.42993164.3718872-.77941895.83068847-.77941895.4588623 0 .83068848.3494873.83068848.77941895v.25939941h1.5369873v-.25939941c0-.42993164.37182618-.77941895.83068848-.77941895.45880127 0 .83068848.3494873.83068848.77941895v.25939941h.72869873c.37487793 0 .68078613-.28613281.68078613-.63989258V34.6327774c0-.35375977-.3059082-.63989258-.68078613-.63989258h-.72869873v1.59851074c0 .42993164-.37188721.77941895-.83068848.77941895-.4588623 0-.83068848-.3494873-.83068848-.77941895v-1.59851074h-1.5369873v1.59851074c0 .42993164-.37182617.77941895-.83068848.77941895-.45880127 0-.83068847-.3494873-.83068847-.77941895v-1.59851074h-.72875977z"/>
    <path fill="rgb(118,205,38)" fill-rule="evenodd" d="M37.65768275 39.43111724h-6.31719971c-1.29101562 0-2.3406372-.98815918-2.3406372-2.20178223v-2.59643554c0-1.21362305 1.04962158-2.20178223 2.3406372-2.20178223h6.3171997c1.29101563 0 2.3421631.98815918 2.3421631 2.20178223V37.229335c0 1.21362305-1.05114747 2.20178223-2.3421631 2.20178223zm-6.31719971-5.43823242c-.3748169 0-.6807251.28613281-.6807251.63989258V37.229335c0 .35375977.3059082.63989258.6807251.63989258h.72875977v-1.5012207c0-.42993164.3718872-.77941895.83068847-.77941895.4588623 0 .83068848.3494873.83068848.77941895v1.5012207h1.5369873v-1.5012207c0-.42993164.37182618-.77941895.83068848-.77941895.45880127 0 .83068848.3494873.83068848.77941895v1.5012207h.72869873c.3764038 0 .68078613-.28613281.68078613-.63989258V34.6327774c0-.35375977-.30438232-.63989258-.68078613-.63989258h-.72869873v.29455566c0 .43139649-.37188721.78100586-.83068848.78100586-.4588623 0-.83068848-.34960937-.83068848-.78100586v-.29455566h-1.5369873v.29455566c0 .43139649-.37182617.78100586-.83068848.78100586-.45880127 0-.83068847-.34960937-.83068847-.78100586v-.29455566h-.72875977z"/>
    <path fill="rgb(118,205,38)" fill-rule="evenodd" d="M45.08627161 46.19369048h3.32702637c3.07983399 0 5.58654785 2.48413086 5.58654785 5.53625489v2.83666992c0 .47753906-.39050293.86450195-.87231445.86450195-.48339844 0-.87231445-.38696289-.87231445-.86450195v-2.83666992c0-2.1003418-1.7241211-3.8088379-3.84191895-3.8088379h-3.32702637v3.47644044c0 .47595214-.39050293.86291503-.87072753.86291503H12.6518844c-.48181153 0-.87231446-.38696289-.87231446-.86291503v-3.47644043H8.58639368c-2.11938476 0-3.84350585 1.70849609-3.84350585 3.80883789v2.83666992c0 .47753906-.39050293.86450195-.87072754.86450195-.48339844 0-.87231446-.38696289-.87231446-.86450195v-2.83666992c0-3.05212403 2.50512696-5.53625489 5.58654785-5.53625489h3.19317627V28.4070694c0-.477417.39050293-.86437988.87231446-.86437988h14.42138672l-3.29870606-5.82495117c-.23614502-.41503907-.08502197-.94091797.3338623-1.17651368.42034913-.23242187.95098878-.08422851 1.18719483.33081055l3.20581055 5.66259766 3.0625-5.64855957c.22833252-.41967774.75579834-.57727051 1.1809082-.35266114.42358398.22631836.58416748.75061035.35430908 1.17028809l-3.16485595 5.83898926h14.28125c.4802246 0 .87072753.38696289.87072753.86437988v17.7866211zm-1.74304199 4.33947754H34.3603805v-8.4946289c0-.47753907-.39050293-.86450196-.87231445-.86450196H23.37777552c-.4802246 0-.87072754.3869629-.87072754.86450196v8.4946289h-8.98284912V29.27157134h29.81903076v21.26159668zm-19.09155273-.00012207h8.36566162V42.9013321h-8.36566162v7.63171386z"/>
    <path fill="rgb(118,205,38)" fill-rule="evenodd" d="M38.50057293 6.43111724c-.82743577 0-1.5007271.67329132-1.5007271 1.4992729 0 .82888997.67329133 1.5007271 1.5007271 1.5007271.82598158 0 1.4992729-.67183713 1.4992729-1.5007271 0-.82598158-.67329132-1.4992729-1.4992729-1.4992729"/>
    <path fill="rgb(118,205,38)" fill-rule="evenodd" d="M42.49911874 6.43111724c-.82598158 0-1.4992729.67329132-1.4992729 1.4992729 0 .82888997.67329132 1.5007271 1.4992729 1.5007271.82743577 0 1.5007271-.67183713 1.5007271-1.5007271 0-.82598158-.67329133-1.4992729-1.5007271-1.4992729"/>
    <path fill="rgb(118,205,38)" fill-rule="evenodd" d="M47.50057293 6.43111724c-.82743577 0-1.5007271.67329132-1.5007271 1.4992729 0 .82888997.67329133 1.5007271 1.5007271 1.5007271s1.4992729-.67183713 1.4992729-1.5007271c0-.82598158-.67183713-1.4992729-1.4992729-1.4992729"/>
    <path fill="rgb(118,205,38)" fill-rule="evenodd" d="M16.99984583 5.43111724c.55191503 0 1 .44808498 1 1v4c0 .55191503-.44808497 1-1 1-.55191502 0-1-.44808497-1-1v-4c0-.55191502.44808498-1 1-1z"/>
    <path fill="rgb(118,205,38)" fill-rule="evenodd" d="M14.99984583 6.43111724c.55191503 0 1 .44808498 1 1v3c0 .55191503-.44808497 1-1 1-.55191502 0-1-.44808497-1-1v-3c0-.55191502.44808498-1 1-1z"/>
    <path fill="rgb(118,205,38)" fill-rule="evenodd" d="M11.99984583 8.43111724c.55191503 0 1 .44808498 1 1v1c0 .55191503-.44808497 1-1 1-.55191502 0-1-.44808497-1-1v-1c0-.55191502.44808498-1 1-1z"/>
    <path fill="rgb(118,205,38)" fill-rule="evenodd" d="M8.99984583 6.43111724c.55191503 0 1 .44808498 1 1v3c0 .55191503-.44808497 1-1 1-.55191502 0-1-.44808497-1-1v-3c0-.55191502.44808498-1 1-1z"/>
  </g>
</svg>
