<?xml version="1.0" encoding="UTF-8"?>
<svg width="71px" height="55px" viewBox="0 0 71 55" version="1.1" xmlns="http://www.w3.org/2000/svg" xmlns:xlink="http://www.w3.org/1999/xlink">
    <title>Group</title>
    <g id="Page-1" stroke="none" stroke-width="1" fill="none" fill-rule="evenodd">
        <g id="Ve-chung-toi" transform="translate(-745.000000, -2026.000000)">
            <g id="Group" transform="translate(745.000000, 2026.500000)">
                <rect id="Rectangle" fill="#FFFFFF" x="36" y="10.5" width="7" height="11" rx="2"></rect>
                <rect id="Rectangle-Copy-8" fill="#FFFFFF" x="0" y="29.5" width="7" height="4" rx="2"></rect>
                <rect id="Rectangle-Copy-6" stroke="#FFFFFF" stroke-width="1.5" x="48" y="5.5" width="7" height="11" rx="2"></rect>
                <rect id="Rectangle-Copy" stroke="#FFFFFF" stroke-width="1.5" x="24" y="16.5" width="7" height="18" rx="2"></rect>
                <rect id="Rectangle-Copy-4" stroke="#FFFFFF" stroke-width="1.5" x="12" y="26.5" width="7" height="18" rx="2"></rect>
                <line x1="3.5" y1="36" x2="3.5" y2="26" id="Line-2" stroke="#FFFFFF" stroke-width="1.5" stroke-linecap="round"></line>
                <line x1="40" y1="10.5" x2="40" y2="0.5" id="Line-2-Copy-2" stroke="#FFFFFF" stroke-width="1.5" stroke-linecap="square"></line>
                <line x1="15.5" y1="53.5" x2="15.5" y2="45.5" id="Line-2-Copy" stroke="#FFFFFF" stroke-width="1.5" stroke-linecap="round" transform="translate(15.500000, 49.500000) rotate(180.000000) translate(-15.500000, -49.500000) "></line>
                <line x1="15.5" y1="26.5" x2="15.5" y2="16.5" id="Line-2-Copy-3" stroke="#FFFFFF" stroke-width="1.5" stroke-linecap="round"></line>
                <line x1="28" y1="15.5" x2="28" y2="5.5" id="Line-2-Copy-4" stroke="#FFFFFF" stroke-width="1.5" stroke-linecap="round"></line>
                <line x1="11.5" y1="53.5" x2="69.5" y2="53.5" id="Line-8" stroke="#FFFFFF" stroke-width="1.5" stroke-linecap="round"></line>
                <line x1="36" y1="0.5" x2="69" y2="0.5" id="Line-3" stroke="#FFFFFF" stroke-width="1.5" stroke-linecap="round"></line>
                <polyline id="Path-3" stroke="#FFFFFF" stroke-linecap="round" points="51.5 16.5 51.5 23.0865218 65.6828584 23.0865218"></polyline>
            </g>
        </g>
    </g>
</svg>