<svg xmlns="http://www.w3.org/2000/svg" xmlns:xlink="http://www.w3.org/1999/xlink" width="58" height="57.968" viewBox="0 0 58 57.968">
  <defs>
    <path id="path-8" fill-rule="evenodd" d="M0 6.08469872h57.986254v44.71471154H0V6.08469872z"/>
    <mask id="mask-9" maskContentUnits="userSpaceOnUse" maskUnits="userSpaceOnUse">
      <rect width="58" height="57.968" x="0" y="0" fill="black"/>
      <use fill="white" xlink:href="#path-8"/>
    </mask>
    <path id="path-11" fill-rule="evenodd" d="M12.16731257 0h1.61685714v2.72826667h-1.61685714V0z"/>
    <mask id="mask-12" maskContentUnits="userSpaceOnUse" maskUnits="userSpaceOnUse">
      <rect width="58" height="57.968" x="0" y="0" fill="black"/>
      <use fill="white" xlink:href="#path-11"/>
    </mask>
  </defs>
  <g>
    <path fill="rgb(40,40,40)" fill-rule="evenodd" d="M31.9981577 27.90750957l5.56885716-3.2071657c1.01101941.33393548 2.37554603.25323692 3.38432806-.20144529l6.15113722 2.83468762c-.15493908.2978018-.1820674.57271892-.17423654.76121631.00922922.22824445.07187607.44534767.1820674.64408294l-4.95749106 2.85516338c-.33029431.19030408-.45474898.63294172-.27827506.9882563.12221729.24601017.35658362.3860282.59850113.3860282.1082336 0 .21758592-.02770249.31966672-.08641973l5.8345469-3.36073386c.23017123-.13218906.36916892-.39476051.3577023-.6753988-.01118693-.28033718-.17088046-.5293585-.41056058-.63956623-.16081221-.07407406-.2388411-.14212583-.27380028-.18036732.03943396-.0578139.13871802-.16410715.34120158-.28063829.22989155-.13249018.36888924-.39536274.35742263-.67569991-.01118694-.2806383-.17088046-.52905738-.41084026-.63956624l-7.3833783-3.4025887c-.18933891-.08732308-.4052468-.07738632-.58703451.02740137-.76266942.4396265-2.08888078.52213175-2.83812588.17705506-.18905923-.08732307-.40496711-.07738631-.58675484.02710026l-5.83482657 3.36073386c-.33029431.19000296-.45474899.63264061-.27799538.9882563.1767536.3559168.58759385.48961144.91788816.29960847"/>
    <path fill="rgb(40,40,40)" fill-rule="evenodd" d="M19.42519127 33.73577197c.16037251.07399886.23860301.14228236.27352734.18048502-.03911525.0574544-.13857974.16394055-.34058206.28005258-.22994178.13235567-.36880091.39466056-.35762512.67471314.01145517.28035339.17098951.5288211.41043071.63891695l7.37657707 3.39943524c.08493597.03940589.17573923.05895843.26654248.05895843.1098021 0 .21988358-.0288776.31934807-.086332.76246795-.4391802 2.0873573-.52160169 2.83557612-.1768753.18887077.08753522.40484282.07730774.58616994-.02737357l5.84661207-3.36724874c.32996506-.18981007.45429567-.63199836.27799766-.98725303-.17657741-.35555547-.58700813-.4894152-.91697319-.29930431l-5.58118717 3.2144381c-1.0100116-.33419809-2.3734574-.25297983-3.38067504.20093998l-6.14500554-2.83211068c.15450523-.29719865.18132712-.57183668.17378346-.76044352-.00894063-.22771193-.07152503-.44429395-.1821653-.64312827l4.9704305-2.86219151c.32996506-.1904117.45429568-.63229917.27799766-.98755384-.17629801-.35525466-.58700812-.48911438-.91697318-.29930431l-5.84661207 3.36724874c-.22994178.13235568-.36880091.39466057-.35762513.67501395.01117579.28005258.17098952.52852029.41043072.63891695"/>
    <path fill="rgb(40,40,40)" fill-rule="evenodd" d="M28.12058444 28.68220985l1.2157167.50209864c-.82734582.67480632-.67949662 1.33121424.32770699 1.74636554 1.24193326.51189134 2.77194383.22938667 4.24281472-.15460603 1.36722403-.34808611 1.8622902-.26707374 2.19670376-.12938239.49933399.20594353.40300338.57124107-.2377781.90805073-.51853914.27241522-1.2178506.4890417-1.91746692.5940907-.11705998.01721143-.21674387.05875623-.27039636.11187423-.05334765.0525245-.05517672.11187423-.00396297.159354l.4868354.45521236c.07438186.06914243.2274134.10950024.39812588.0866506.67218038-.09050833 1.46934667-.32197224 2.13329627-.61961109l.90477612.373013c.15120248.0623172.4289151.03145535.58011757-.04777653l.7121149-.37419999c.15120248-.07952863.1457153-.1916996-.00548718-.2540168l-.97549987-.40179762c.81637145-.6789608.6828499-1.39531194-.35880104-1.82441042-.71729724-.29585836-1.8455238-.55818412-4.2434244.04955702-1.49190511.37390324-1.90588287.37034226-2.2701711.22018746-.33807167-.13947184-.45665587-.41604154.2252795-.77392036.67888694-.35669182 1.35045763-.48043599 1.63731556-.53325724.10913404-.01988216.19997747-.06083347.24814277-.11157748.04847015-.050744.04938468-.10653275.00243875-.15223203l-.46427696-.4561026c-.07773515-.07656115-.2713109-.10712625-.45421713-.0744839-.62553929.11187422-1.23187342.30149658-1.75376585.5305865l-1.13706703-.46975304c-.15150732-.06261396-.38105463-.04747978-.5322571.0317521l-.70114054.36826502c-.15089763.07952862-.13687482.17775241.01432766.24006962"/>
    <path fill="rgb(40,40,40)" fill-rule="evenodd" d="M56.78009417 33.06902173L27.48610562 49.17280337l-17.3312929-7.62340182c-.420607-.18451967-.9077027.01565257-1.08783731.4476032-.18013461.43255265.014938.93313376.4358379 1.11825546l17.69742015 7.78444264c.10427304.04605467.21528283.06863048.3259997.06863048.13473484 0 .26917677-.0334122.39073102-.10053763L57.562142 34.57106608c.40332579-.22184503.55534183-.7380787.3397661-1.15287171-.21586864-.414492-.71790234-.57071665-1.12181393-.34917264"/>
    <path fill="rgb(40,40,40)" fill-rule="evenodd" d="M56.78009417 37.06887883l-29.29398855 16.1036394-17.3312929-7.62333448c-.420607-.18451805-.9077027.01565242-1.08783731.44759924-.18013461.43284983.014938.93342652.4358379 1.11824558l17.69742015 7.78437388c.10427304.04605426.21528283.06893088.3259997.06893088.13473484 0 .26917677-.03371292.39073102-.10053675L57.562142 38.57090991c.40332579-.22184307.55534183-.73777118.3397661-1.15256052-.21586864-.41478934-.71790234-.5707116-1.12181393-.34947056"/>
    <path fill="rgb(40,40,40)" fill-rule="evenodd" d="M56.78009417 40.06894832L27.48610562 56.172796l-17.3312929-7.6237341c-.420607-.18421942-.9077027.01565263-1.08783731.44790604-.18013461.43255443.014938.9331376.4358379 1.11826005l17.69742015 7.78447457c.10427304.04605485.21528283.06863076.3259997.06863076.13473484 0 .26917677-.03341234.39073102-.10053805L57.562142 41.57099882c.40332579-.22184593.55534183-.73808173.3397661-1.15287644-.21586864-.4147947-.71790234-.57041797-1.12181393-.34917406"/>
    <path fill="rgb(40,40,40)" fill-rule="evenodd" d="M56.78009417 30.06894832L27.48610562 46.172796l-17.3312929-7.6237341c-.420607-.18452043-.9077027.01565263-1.08783731.44790604-.18013461.43255443.014938.9331376.4358379 1.11795904l17.69742015 7.78447457c.10427304.04605485.21528283.06893177.3259997.06893177.13473484 0 .26917677-.03371335.39073102-.10053805L57.562142 31.57069781c.40332579-.22184594.55534183-.73778072.3397661-1.15257543-.21586864-.4147947-.71790234-.57041797-1.12181393-.34917406"/>
    <g>
      <use fill="none" xlink:href="#path-8"/>
      <g mask="url(#mask-9)">
        <path fill="rgb(111,187,70)" fill-rule="evenodd" d="M7.8358215 38.98115072c0 .45092773-.36743164.81640625-.82043457.81640625-2.18023682 0-4.09741211-.57177735-5.37426758-1.48474121v.95397949c0 1.22937011 2.20690918 2.59985351 5.37426758 2.59985351.45300293 0 .82043457.36547852.82043457.81604004 0 .45092774-.36743164.81640625-.82043457.81640625-2.18023682 0-4.09741211-.57177734-5.37426758-1.4847412v.95397948c0 1.22961426 2.20690918 2.59985352 5.37426758 2.59985352.45300293 0 .82043457.36547851.82043457.81640625 0 .45056152-.36743164.81604004-.82043457.81604004-2.18023682 0-4.09741211-.57177735-5.37426758-1.48474121v.85095215c0 1.22998046 2.20690918 2.60021972 5.37426758 2.60021972.45300293 0 .82043457.36547852.82043457.81604004 0 .45117188-.36743164.81628418-.82043457.81628418-3.9338379 0-7.01538086-1.85913086-7.01538086-4.23254394V31.86335286c0-2.37341308 3.08154297-4.2322998 7.01538086-4.2322998.75427246 0 1.47698975.06872559 2.15270996.19592285-.25061035-.44018555-.38745117-.91479492-.38745117-1.41259765 0-2.37353516 3.0812378-4.2322998 7.01507568-4.2322998.86853028 0 1.69537354.0908203 2.45690918.25756835V10.31733236c0-2.37316895 3.08154297-4.23260498 7.01538086-4.23260498 3.81524658 0 6.8283081 1.7489624 7.006958 4.019104.0185547.06842041.0319214.13909912.0319214.21350098V22.5535384l6.94952392-3.6977539c.21984863-.1168213.48083496-.12780762.70996094-.0308838l17.52209473 7.46020508c.28997802.12341309.48309326.40148926.49700927.71484375.01367188.31347657-.15454101.60717774-.43267822.75512696L28.20136105 43.37238607c-.12036133.06433105-.253479.09667969-.38690185.09667969-.10961915 0-.21948243-.02197266-.32305909-.0657959L9.96961056 35.94306478c-.09338379-.03955078-.17486572-.09655762-.24530029-.16381836-.83001709.2039795-1.74353027.31677246-2.70892334.31677246-2.18023682 0-4.09741211-.57202148-5.37426758-1.48498535v.95422363c0 1.22937012 2.20690918 2.59985352 5.37426758 2.59985352.45300293 0 .82043457.36547851.82043457.81604004zM25.2679504 7.7174178c3.16741944 0 5.37457276 1.37017822 5.37457276 2.59991455 0 1.22967529-2.20715332 2.60015869-5.37457275 2.60015869-3.16705323 0-5.37426758-1.3704834-5.37426758-2.6001587 0-1.22973632 2.20721435-2.59991454 5.37426758-2.59991454zm5.3980713 6.3225708c-.0142212.05969238-.02349854.12109375-.02349854.1854248 0 1.22998047-2.20715332 2.60021973-5.37457275 2.60021973-3.16705323 0-5.37426758-1.37023926-5.37426758-2.60021973v-1.16015625c1.27716064.91296387 3.19433594 1.484375 5.37426758 1.484375 2.19329834 0 4.12060546-.57836914 5.39807129-1.5008545v.99121095zm0 2.91687011c-1.27746583.9227295-3.20477295 1.50109864-5.3980713 1.50109864-2.17993163 0-4.09710693-.57165528-5.37426757-1.48461914v.8939209c0 1.22998046 2.20721435 2.60021972 5.37426758 2.60021972 3.16741943 0 5.37457275-1.37023926 5.37457275-2.60021973 0-.0640869.00927734-.12548828.02349854-.18554687v-.72485352zm9.0166626 3.52319336l15.58953857 6.63720703-27.49749756 14.6307373-15.5892334-6.63720702 27.49719238-14.6307373zm-14.4147339 1.61975098c2.19329835 0 4.12060547-.57836914 5.3980713-1.5008545v.72485352c-.0142212.05981446-.02349854.12121582-.02349854.18554688 0 1.22973633-2.20715332 2.60021972-5.37457275 2.60021972-3.16705323 0-5.37426758-1.3704834-5.37426758-2.60021972v-.89428711c1.27716064.91333008 3.19433594 1.48474121 5.37426758 1.48474121zm-6.61975097 2.1352539c-.80737305-.25878906-1.77191162-.42089843-2.85247803-.42089843-3.1673584 0-5.37426758 1.3704834-5.37426758 2.60021973 0 1.22998046 2.20690918 2.60021972 5.37426758 2.60021972 3.16741944 0 5.37457276-1.37023926 5.37457276-2.60021972 0-.75256348-.82995606-1.55651856-2.19818116-2.0682373-.11743164-.01477052-.22705078-.05261231-.32391357-.111084zm7.77020264 1.45178223c-.37353516.0357666-.75750733.05480957-1.15045166.05480957-.93811036 0-1.82641602-.10681152-2.63751221-.30004883.11712646.31152344.18096924.6369629.18096924.97265625 0 .49011231-.13311768.95739747-.37615967 1.3918457l3.9831543-2.11926269zM12.3896545 31.86335286c0-1.22998046-2.20684815-2.60021972-5.37426758-2.60021972-3.1673584 0-5.37426758 1.37023926-5.37426758 2.60021972 0 1.22973633 2.20690918 2.59985352 5.37426758 2.59985352 3.16741943 0 5.37426758-1.37011719 5.37426758-2.59985352zm1.64117431 0c0 .14624024-.01190185.29077149-.03485107.43334961l3.26947021-1.73974609c-.47296142.05859375-.96392822.08972168-1.46972656.08972168-.75427246 0-1.47668457-.06872559-2.15264892-.196167.25054931.4404297.38775634.91503907.38775634 1.4128418z"/>
      </g>
    </g>
    <g>
      <use fill="none" xlink:href="#path-11"/>
      <g mask="url(#mask-12)">
        <path fill="rgb(40,40,40)" fill-rule="evenodd" d="M12.97559829 2.72826667c.44657142 0 .80857142-.42233334.80857142-.94333334V.94326667c0-.521-.362-.94366667-.80857142-.94366667-.44628572 0-.80828572.42266667-.80828572.94366667v.84166666c0 .521.362.94333334.80828572.94333334"/>
      </g>
    </g>
    <path fill="rgb(40,40,40)" fill-rule="evenodd" d="M13.49979565 7.96833333c.2761972 0 .50008835-.30979721.50008835-.69142438v-.61715123c0-.3818715-.22389115-.69142439-.50008835-.69142439-.2760205 0-.49991165.3095529-.49991165.69142439v.61715123c0 .38162717.22389115.69142438.49991165.69142438"/>
    <path fill="rgb(40,40,40)" fill-rule="evenodd" d="M10.69123297 4.96833333h.61730206c.3819648 0 .69134897-.22393071.69134897-.5 0-.27624602-.30938416-.5-.69134897-.5h-.61730206c-.38172043 0-.69134897.22375398-.69134897.5 0 .27606929.30962854.5.69134897.5"/>
    <path fill="rgb(40,40,40)" fill-rule="evenodd" d="M15.69139286 4.96833333h.61698228c.3821625 0 .69150886-.22393071.69150886-.5 0-.27624602-.30934637-.5-.69150886-.5h-.61698228c-.38191815 0-.69150886.22375398-.69150886.5 0 .27606929.30959071.5.69150886.5"/>
    <path fill="rgb(40,40,40)" fill-rule="evenodd" d="M43.499884 8.96833333c.27606928 0 .5-.30959071.5-.6912645v-.61722664c0-.38191814-.22393072-.69150886-.5-.69150886s-.5.30959072-.5.69150886v.61722664c0 .38167379.22393072.6912645.5.6912645"/>
    <path fill="rgb(40,40,40)" fill-rule="evenodd" d="M43.499884 14.96833333c.27606928 0 .5-.30959071.5-.6912645v-.61722664c0-.38191814-.22393072-.69150886-.5-.69150886s-.5.30959072-.5.69150886v.61722664c0 .38167379.22393072.6912645.5.6912645"/>
    <path fill="rgb(40,40,40)" fill-rule="evenodd" d="M40.69123297 10.96833333h.61705768c.3819648 0 .69159335-.22389114.69159335-.50008835 0-.2761972-.30962854-.49991165-.69159335-.49991165h-.61705768c-.38172043 0-.69134897.22371444-.69134897.49991165 0 .2761972.30962854.50008835.69134897.50008835"/>
    <path fill="rgb(40,40,40)" fill-rule="evenodd" d="M45.6911485 10.96833333h.61722664c.3821625 0 .69150886-.22389114.69150886-.50008835 0-.2761972-.30934637-.49991165-.69150886-.49991165h-.61722663c-.3816738 0-.69126451.22371444-.69126451.49991165 0 .2761972.30959071.50008835.6912645.50008835"/>
    <path fill="rgb(40,40,40)" fill-rule="evenodd" d="M4.49979565 14.96833333c.2761972 0 .50008835-.30959071.50008835-.6912645v-.61722664c0-.38191814-.22389115-.69150886-.50008835-.69150886-.2760205 0-.49991165.30959072-.49991165.69150886v.61722664c0 .38167379.22389115.6912645.49991165.6912645"/>
    <path fill="rgb(40,40,40)" fill-rule="evenodd" d="M4.49979565 19.96833333c.2761972 0 .50008835-.30959071.50008835-.6912645v-.61722664c0-.38191814-.22389115-.69150886-.50008835-.69150886-.2760205 0-.49991165.30959072-.49991165.69150886v.61722664c0 .38167379.22389115.6912645.49991165.6912645"/>
    <path fill="rgb(40,40,40)" fill-rule="evenodd" d="M1.69123297 16.96833333h.61730206c.3819648 0 .69134897-.22393071.69134897-.5 0-.27624602-.30938416-.5-.69134897-.5h-.61730206c-.38172043 0-.69134897.22375398-.69134897.5 0 .27606929.30962854.5.69134897.5"/>
    <path fill="rgb(40,40,40)" fill-rule="evenodd" d="M6.69123297 16.96833333h.61730206c.3819648 0 .69134897-.22393071.69134897-.5 0-.27624602-.30938416-.5-.69134897-.5h-.61730206c-.38172043 0-.69134897.22375398-.69134897.5 0 .27606929.30962854.5.69134897.5"/>
    <path fill="rgb(40,40,40)" fill-rule="evenodd" d="M12.999884 13.96833333c.5522388 0 1-.4477612 1-1s-.4477612-1-1-1-1 .4477612-1 1 .4477612 1 1 1"/>
    <path fill="rgb(40,40,40)" fill-rule="evenodd" d="M50.999884 17.96833333c.5522388 0 1-.4474848 1-1 0-.5522388-.4477612-1-1-1s-1 .4477612-1 1c0 .5525152.4477612 1 1 1"/>
  </g>
</svg>
