<svg xmlns="http://www.w3.org/2000/svg" width="89" height="90" viewBox="0 0 89 90">
  <g>
    <path fill="rgb(118,205,38)" fill-rule="evenodd" d="M87.64009438 0H1.36082262C.60888559 0 0 .61218944 0 1.36820652v54.26358696C0 56.38781056.6088856 57 1.36082262 57H32.0325173c.75193703 0 1.36173961-.61218944 1.36173961-1.36820652s-.60980258-1.36820652-1.36173961-1.36820652H2.72164524V2.73641304h83.55762652v51.52717392H81.0597284c-.75102003 0-1.36082261.61218944-1.36082261 1.36820652S80.30870837 57 81.0597284 57h6.58036598C88.3911144 57 89 56.38781056 89 55.63179348V1.36820652C89 .61218944 88.3911144 0 87.64009438 0"/>
    <path fill="rgb(118,205,38)" fill-rule="evenodd" d="M67.44293213 48.0270996h6.20257568c.39050293 0 .76190186.16845704 1.01824951.46118165.25823975.29345703.375.68359375.3248291 1.07006836l-5.23449706 39.26757812C69.66375732 89.49780273 69.08984375 90 68.41101074 90H45.58874512c-.67883301 0-1.25274658-.50219727-1.34216309-1.17407227l-5.23449707-39.26757812c-.05200195-.38647461.06567383-.77661133.32385254-1.07006836.2564087-.2927246.62774658-.46118164 1.01831055-.46118164h6.2034912l-.33392333-2.83007813c-.04382324-.3828125.07659912-.76757812.33392334-1.05639648.25640869-.2890625.625-.45410156 1.01184082-.45410156h2.45074463v-4.33398438c0-.74731445.605896-1.35253906 1.35314941-1.35253906.74816895 0 1.3540039.6052246 1.3540039 1.35253906v4.33398438h8.54479981v-4.33398438c0-.74731445.60675049-1.35253906 1.3540039-1.35253906.74725343 0 1.35400391.6052246 1.35400391 1.35253906v4.33398438h2.45074463c.38690186 0 .75457764.16503906 1.01098633.45410156.25817871.28881836.37866211.67358398.33392334 1.05639648l-.33300781 2.83007813zM46.77490234 87.29492189h20.4508667l4.87322998-36.5625h-4.9736328l-2.88409425 24.5246582c-.08758545.74291992-.76281738 1.27148437-1.5036621 1.18579101-.7418213-.08642578-1.27374268-.75927734-1.18707276-1.5012207l3.35766601-28.54882812H49.0914917l3.35772705 28.54882812c.08666992.74194336-.44439697 1.41479492-1.18707275 1.5012207-.05383301.00634766-.1067505.00927735-.15966797.00927735-.67700196 0-1.26190186-.50585938-1.34399414-1.19506836l-2.88323975-24.5246582h-4.9744873l4.8741455 36.5625z"/>
    <path fill="rgb(118,205,38)" fill-rule="evenodd" d="M56.50048828 17C60.08496094 17 63 19.91601563 63 23.50048828 63 27.08398438 60.08496094 30 56.50048828 30 52.9159546 30 50 27.08398437 50 23.50048828 50 19.91601563 52.91595459 17 56.50048828 17zm0 2.73706055c-2.07489014 0-3.7625122 1.68847656-3.7625122 3.76342773 0 2.07495117 1.68762206 3.76245117 3.7625122 3.76245117s3.7625122-1.6875 3.7625122-3.76245117-1.68762206-3.76342773-3.7625122-3.76342773z"/>
    <path fill="rgb(118,205,38)" fill-rule="evenodd" d="M81.78110543 37.92457496c-.34455062-1.01081916-1.0602971-1.82225657-2.01585083-2.28500773-.95555372-.4618238-2.03055165-.51653786-3.02653264-.15486862l-6.92868326 2.51499227L66.1486141 34c-1.74480433-1.90664606-4.22097478-3-6.79361941-3h-5.71035227c-2.57172583 0-5.04789628 1.09335394-6.79361943 3l-3.66050578 3.99969088-6.92868326-2.51499227c-.9968998-.36166924-2.07189773-.30695518-3.02745145.15486862-.95463492.46275116-1.6703814 1.27418857-2.01585083 2.28500773-.69828925 2.04760433.328931 4.2454405 2.33926901 5.0030912l7.91363864 2.98423492c.70563967.26615147 1.49029628-.09551777 1.75399235-.80680062.26369608-.7122102-.09371777-1.50510046-.79935744-1.77125193L34.5124356 40.3496136c-.6137595-.23183926-.92798967-.90324575-.71574649-1.52921175.106581-.30973724.32525579-.55734157.61651591-.69829984.29309773-.14095827.62019112-.15857805.92523326-.0472952l7.7794936 2.82380215c.51452892.18639877 1.09061756.04451314 1.46273223-.36166924l4.27334649-4.6683153c1.23119421-1.3446677 2.97691735-2.11622875 4.79063182-2.11622875h5.71035227c1.81371446 0 3.5603564.77156105 4.79155062 2.11622875l4.27334648 4.6683153c.37119587.40618238.9472845.548068 1.46273224.36166924l7.77949359-2.82380216c.30412335-.11128284.63213554-.09459042.92431446.0472952.29217893.14095828.51085372.3885626.61559711.69829985.21408079.625966-.10014938 1.2973725-.71390888 1.52921175l-7.91363864 2.98423493c-.70563967.26615147-1.06305351 1.05904173-.79935744 1.77125193.20397397.5527048.7240157.89489954 1.2762155.89489954.15895268 0 .32066177-.02874807.47777686-.08809892l7.91271983-2.98423493c2.01033802-.7576507 3.03847707-2.95548686 2.33926901-5.00309119"/>
    <path fill="rgb(118,205,38)" fill-rule="evenodd" d="M43 11.5c0-.82884097-.60333165-1.5-1.3484099-1.5H26.34931854C25.60424028 10 25 10.67115903 25 11.5s.60424028 1.5 1.34931853 1.5H41.6515901C42.39666835 13 43 12.32884097 43 11.5"/>
    <path fill="rgb(118,205,38)" fill-rule="evenodd" d="M11.34214554 13h10.3148045C22.39947128 13 23 12.32783019 23 11.5c0-.82884097-.60052873-1.5-1.34304995-1.5h-10.3148045C10.60143314 10 10 10.67115903 10 11.5c0 .82783019.60143314 1.5 1.34214554 1.5"/>
    <path fill="rgb(118,205,38)" fill-rule="evenodd" d="M31.28568334 18C30.57526532 18 30 18.67216981 30 19.5c0 .82884097.57526532 1.5 1.28568334 1.5h1.42776695C33.42386831 21 34 20.32884097 34 19.5c0-.82783019-.57613169-1.5-1.2865497-1.5h-1.42776696z"/>
    <path fill="rgb(118,205,38)" fill-rule="evenodd" d="M10.39260137 21h16.21479726C27.37689534 21 28 20.32783019 28 19.5c0-.82884097-.62310466-1.5-1.39260137-1.5H10.39260137C9.62404307 18 9 18.67115903 9 19.5c0 .82783019.62404307 1.5 1.39260137 1.5"/>
    <path fill="rgb(118,205,38)" fill-rule="evenodd" d="M40 27.5c0-.82884097-.61455616-1.5-1.37257047-1.5H19.37442154C18.6154817 26 18 26.67115903 18 27.5c0 .82783019.6154817 1.5 1.37442154 1.5h19.253008C39.38544383 29 40 28.32783019 40 27.5"/>
    <path fill="rgb(118,205,38)" fill-rule="evenodd" d="M10.4437804 29h4.1134121C15.35399582 29 16 28.32783019 16 27.5c0-.82884097-.64600417-1.5-1.4428075-1.5h-4.1134121C9.64697707 26 9 26.67115903 9 27.5c0 .82783019.64697707 1.5 1.4437804 1.5"/>
    <path fill="rgb(118,205,38)" fill-rule="evenodd" d="M28 35.5c0-.82884097-.60457599-1.5-1.34915905-1.5H11.3500682C10.60457599 34 10 34.67115903 10 35.5c0 .82783019.60457599 1.5 1.35006819 1.5h15.30077276C27.39542401 37 28 36.32783019 28 35.5"/>
    <path fill="rgb(118,205,38)" fill-rule="evenodd" d="M10.4098423 42C9.63176895 42 9 42.67216981 9 43.5c0 .82884097.63176895 1.5 1.4098423 1.5h7.18126543C18.36918108 45 19 44.32884097 19 43.5c0-.82783019-.63081892-1.5-1.40889227-1.5H10.4098423z"/>
  </g>
</svg>
