<svg xmlns="http://www.w3.org/2000/svg" xmlns:xlink="http://www.w3.org/1999/xlink" width="89.126" height="78.61" viewBox="0 0 89.126 78.61">
  <defs>
    <path id="path-2" fill-rule="evenodd" d="M0 24.1474h89.1264v54.463H0v-54.463z"/>
    <mask id="mask-3" maskContentUnits="userSpaceOnUse" maskUnits="userSpaceOnUse">
      <rect width="89.126" height="78.61" x="0" y="0" fill="black"/>
      <use fill="white" xlink:href="#path-2"/>
    </mask>
    <path id="path-5" fill-rule="evenodd" d="M18.7675 0h2.481v3.5889h-2.481V0z"/>
    <mask id="mask-6" maskContentUnits="userSpaceOnUse" maskUnits="userSpaceOnUse">
      <rect width="89.126" height="78.61" x="0" y="0" fill="black"/>
      <use fill="white" xlink:href="#path-5"/>
    </mask>
  </defs>
  <g>
    <path fill="rgb(118,205,38)" fill-rule="evenodd" d="M74.2478 5.5l5.17 1.67-75.402 38.575c-.611.312-.852 1.059-.54 1.67.219.429.655.675 1.106.675.189 0 .383-.044.563-.136l75.386-38.567-1.662 5.144c-.21.652.148 1.351.8 1.562.127.041.255.06.382.06.523 0 1.009-.334 1.179-.859l2.587-8.007c.101-.313.074-.654-.076-.946-.15-.293-.41-.515-.723-.616l-8.007-2.586c-.653-.211-1.352.147-1.562.799-.211.652.148 1.352.799 1.562"/>
    <g>
      <use fill="none" xlink:href="#path-2"/>
      <g mask="url(#mask-3)">
        <path fill="rgb(118,205,38)" fill-rule="evenodd" d="M84.71740723 75.95239258h3.07995605c.73498535 0 1.3289795.5949707 1.3289795 1.32910156 0 .73486328-.59399415 1.32885742-1.3289795 1.32885742H1.32836914c-.73303223 0-1.3289795-.59399414-1.3289795-1.32885742 0-.73413086.59594727-1.32910156 1.3289795-1.32910156H4.8684082V68.1274414H3.73242187c-.68603515 0-1.24108886-.5559082-1.24108886-1.2409668v-5.18701172c0-.6850586.5550537-1.23999023 1.24108887-1.23999023H4.8684082v-3.88598633c0-.6850586.55395508-1.2409668 1.23999024-1.2409668h19.93701172c.68493652 0 1.23999023.5559082 1.23999023 1.2409668v5.12597656c0 .68603516-.55505371 1.2409668-1.23999023 1.2409668h-2.86303711v2.70605468h2.8630371c.68493653 0 1.23999024.55493165 1.23999024 1.23999024v9.06591797H32.234375V66.8864746c0-.6850586.55395508-1.23999023 1.23999023-1.23999023h2.86206055v-2.7060547h-2.86206055c-.68603515 0-1.23999023-.55493163-1.23999023-1.24096679V51.28344727c0-.6850586.55395508-1.2409668 1.23999023-1.2409668h2.86206055v-2.70507813h-2.86206055c-.68603515 0-1.23999023-.5559082-1.23999023-1.2409668v-5.12695312c0-.6850586.55395508-1.23999023 1.23999023-1.23999023h19.93701172c.6850586 0 1.2409668.55493164 1.2409668 1.23999023v3.8869629h1.13500977c.68505859 0 1.24108886.55493163 1.24108886 1.23999023v5.18701172c0 .68505859-.55603027 1.23999023-1.24108886 1.23999023h-1.13500977v7.93603516h1.13500977c.68505859 0 1.24108886.55493164 1.24108886 1.23999023v5.18701172c0 .6850586-.55603027 1.2409668-1.24108886 1.2409668h-1.13500977v7.82495117h7.6459961V68.1274414h-1.13598633c-.68395997 0-1.23999024-.5559082-1.23999024-1.2409668v-5.18701172c0-.6850586.55603027-1.23999023 1.23999024-1.23999023h1.13598632V36.94140625h-1.13598632c-.68395997 0-1.23999024-.55493164-1.23999024-1.23999023V30.5144043c0-.6850586.55603027-1.23999024 1.23999024-1.23999024h1.13598632v-3.88598633c0-.68603515.55603028-1.2409668 1.23999024-1.2409668h19.93811035c.68493652 0 1.2409668.55493165 1.2409668 1.2409668v5.12597657c0 .68603515-.55603028 1.2409668-1.2409668 1.2409668h-2.86206055v2.70507812h2.86206055c.68493652 0 1.2409668.5559082 1.2409668 1.2409668v25.99804687c0 .68603516-.55603028 1.2409668-1.2409668 1.2409668h-2.86206055v2.70605468h2.86206055c.68493652 0 1.2409668.55493165 1.2409668 1.23999024v9.06591797zM82.2364502 26.62841797v2.6459961H64.7803955v-2.6459961h17.4560547zM71.727417 34.46044922h-1.77905274v-2.70605469h1.77905273v2.70605469zm1.77197265 0h4.63305664v-2.70605469h-4.63305664v2.70605469zm-8.875-2.70507813h-2.2199707v2.70507813h5.77197265v-2.70507813h-1.77893066v1.32202149c0 .48901367-.39709473.88500976-.88598633.88500976-.4901123 0-.88708496-.39599609-.88708496-.88500976v-1.32202149zm17.61206055 7.85107422v-2.66503906H64.7803955v2.66503906h17.4560547zm-17.4560547 5.25h17.4560547v-2.7680664H64.7803955v2.7680664zm-30.06604003-2.6459961v2.6459961h17.45605469v-2.6459961h-17.4560547zm5.99194336 5.12695313h-1.88793946v2.70507813h5.43994141v-2.70507813h-1.77893066v1.3840332c0 .48901368-.39697266.88500977-.88598633.88500977-.48999024 0-.88708496-.3959961-.88708496-.88500976v-1.3840332zm5.32409668 2.70507813h1.77905273v-2.70507813h-1.77905273v2.70507813zm8.5159912-2.70507813H49.5814209v2.70507813h4.96496582v-2.70507813zm18.44006349 1.3840332c0 .48901368-.39709473.88500977-.8861084.88500977-.4888916 0-.8869629-.3959961-.8869629-.88500976v-1.3840332h-6.4329834v2.75708007h9.98498536v-2.75708008H72.9864502v1.3840332zm5.32995605 1.37304688h-1.77905273v-2.75708008h1.77905273v2.75708008zm1.77294922 0h2.14697265v-2.75708008h-2.14697265v2.75708008zm-45.375 2.42895508h17.45605469v2.66601563h-17.4560547V52.5234375zm30.06604004 2.80908203H82.2364502v-2.75708008H64.7803955v2.75708008zm-39.97595215 5.12695313v-2.64501954H7.34838867v2.64501954h17.45605469zm17.64990234-.51904297c.48999024 0 .88598633-.39697266.88598633-.8869629v-1.23901367h1.77905274v2.62402344h-10.4050293v-2.62402343h6.8540039v1.23901367c0 .48999023.39697266.88696289.88598633.88696289zm6.21606446.49804687h-1.7779541v-2.62402343h1.7779541v2.62402343zm1.77294921 0h1.72802735v-2.62402343h-1.72802735v2.62402343zm20.77001954-2.62402343h-6.4329834v2.64501953h9.98498535v-2.64501954H72.9864502v1.38305665c0 .48999023-.39709473.88696289-.8861084.88696289-.4888916 0-.8869629-.39697266-.8869629-.8869629v-1.38305664zm5.3239746 2.64501953h1.77905274v-2.64501954h-1.77905273v2.64501954zm3.55200196 0h2.14697265v-2.64501954h-2.14697265v2.64501954zM4.9724121 62.94042969h1.92004394v1.32202148c0 .48901367.3959961.88598633.88598633.88598633.48901367 0 .88598633-.39697266.88598633-.88598633V62.9404297h1.77893067v2.70605468H4.9724121V62.9404297zm7.243042 2.70605468h1.77905273V62.9404297H12.2154541v2.70605468zm8.48693847 0h-4.93603516V62.9404297h4.93603516v2.70605468zm18.1159668 0V62.9404297h15.72802734v2.70605468H38.81835937zm39.3140869-2.70605468H62.40441896v2.70605468h15.72802734V62.9404297zm-53.32800292 7.85205078V68.1274414H7.34838867v2.66503906h17.45605469zm16.76391601-2.66503906h-6.8540039v2.66503906h10.4050293V68.1274414h-1.77905274v1.42407226c0 .48999024-.3959961.8869629-.88598633.8869629-.48901367 0-.88598632-.39697266-.88598632-.8869629v-1.42407226zm7.10205079 2.66503906h-1.7779541V68.1274414h1.7779541v2.66503906zm1.77294921 0h1.72802735V68.1274414h-1.72802735v2.66503906zM82.2364502 68.1274414v2.66503906H64.7803955V68.1274414h17.4560547zM13.65234375 73.2734375H7.34838867v2.67895508h9.85498047V73.2734375h-1.77893066v1.3840332c0 .48901367-.3959961.88598633-.8861084.88598633-.48999024 0-.88598633-.39697265-.88598633-.88598633v-1.3840332zm7.10205078 2.67895508H18.9753418V73.2734375h1.77905273v2.67895508zm1.77294922 0h2.27697754V73.2734375h-2.27697754v2.67895508zm12.18701172 0h17.45605469V73.2734375h-17.4560547v2.67895508zM71.2133789 73.2734375h-6.4329834v2.67895508h9.98498535V73.2734375H72.9864502v1.3840332c0 .48901367-.39709473.88598633-.8861084.88598633-.4888916 0-.8869629-.39697265-.8869629-.88598633v-1.3840332zm5.3239746 2.67895508h1.77905274V73.2734375h-1.77905273v2.67895508zm5.69799805 0h-2.14697265V73.2734375h2.14697265v2.67895508z"/>
      </g>
    </g>
    <g>
      <use fill="none" xlink:href="#path-5"/>
      <g mask="url(#mask-6)">
        <path fill="rgb(118,205,38)" fill-rule="evenodd" d="M20.0085 3.5889c.685 0 1.24-.556 1.24-1.241v-1.107c0-.686-.555-1.241-1.24-1.241-.686 0-1.241.555-1.241 1.241v1.107c0 .685.555 1.241 1.241 1.241"/>
      </g>
    </g>
    <path fill="rgb(118,205,38)" fill-rule="evenodd" d="M20.0085 11.1841c.685 0 1.24-.555 1.24-1.241v-1.107c0-.685-.555-1.241-1.24-1.241-.686 0-1.241.556-1.241 1.241v1.107c0 .686.555 1.241 1.241 1.241"/>
    <path fill="rgb(118,205,38)" fill-rule="evenodd" d="M15.657 6.8325h1.107c.686 0 1.242-.555 1.242-1.241 0-.685-.556-1.24-1.242-1.24h-1.107c-.686 0-1.24.555-1.24 1.24 0 .686.554 1.241 1.24 1.241"/>
    <path fill="rgb(118,205,38)" fill-rule="evenodd" d="M23.2517 6.8325h1.108c.685 0 1.241-.555 1.241-1.241 0-.685-.556-1.24-1.241-1.24h-1.108c-.685 0-1.24.555-1.24 1.24 0 .686.555 1.241 1.24 1.241"/>
    <path fill="rgb(118,205,38)" fill-rule="evenodd" d="M53.4119 5.7944c.685 0 1.24-.555 1.24-1.241v-1.107c0-.685-.555-1.241-1.24-1.241-.686 0-1.241.556-1.241 1.241v1.107c0 .686.555 1.241 1.241 1.241"/>
    <path fill="rgb(118,205,38)" fill-rule="evenodd" d="M53.4119 13.3896c.685 0 1.24-.555 1.24-1.24v-1.108c0-.685-.555-1.24-1.24-1.24-.686 0-1.241.555-1.241 1.24v1.108c0 .685.555 1.24 1.241 1.24"/>
    <path fill="rgb(118,205,38)" fill-rule="evenodd" d="M49.0603 9.0386h1.107c.686 0 1.241-.556 1.241-1.241s-.555-1.24-1.241-1.24h-1.107c-.686 0-1.241.555-1.241 1.24 0 .685.555 1.241 1.241 1.241"/>
    <path fill="rgb(118,205,38)" fill-rule="evenodd" d="M56.655 9.0386h1.108c.685 0 1.241-.556 1.241-1.241s-.556-1.24-1.241-1.24h-1.108c-.685 0-1.24.555-1.24 1.24 0 .685.555 1.241 1.24 1.241"/>
    <path fill="rgb(118,205,38)" fill-rule="evenodd" d="M7.3162 24.2583c.686 0 1.241-.556 1.241-1.241v-1.107c0-.686-.555-1.241-1.241-1.241-.685 0-1.24.555-1.24 1.241v1.107c0 .685.555 1.241 1.24 1.241"/>
    <path fill="rgb(118,205,38)" fill-rule="evenodd" d="M7.3162 31.8535c.686 0 1.241-.556 1.241-1.241v-1.107c0-.685-.555-1.241-1.241-1.241-.685 0-1.24.556-1.24 1.241v1.107c0 .685.555 1.241 1.24 1.241"/>
    <path fill="rgb(118,205,38)" fill-rule="evenodd" d="M2.9656 27.5019h1.107c.685 0 1.241-.556 1.241-1.241s-.556-1.24-1.241-1.24h-1.107c-.686 0-1.241.555-1.241 1.24 0 .685.555 1.241 1.241 1.241"/>
    <path fill="rgb(118,205,38)" fill-rule="evenodd" d="M10.5603 27.5019h1.107c.686 0 1.242-.556 1.242-1.241s-.556-1.24-1.242-1.24h-1.107c-.685 0-1.24.555-1.24 1.24 0 .685.555 1.241 1.24 1.241"/>
    <path fill="rgb(118,205,38)" fill-rule="evenodd" d="M23.4988 26.1709c.876 0 1.586-.71 1.586-1.586 0-.877-.71-1.587-1.586-1.587-.876 0-1.587.71-1.587 1.587 0 .876.711 1.586 1.587 1.586"/>
  </g>
</svg>
