<svg xmlns="http://www.w3.org/2000/svg" xmlns:xlink="http://www.w3.org/1999/xlink" width="107.439" height="91.509" viewBox="0 0 107.439 91.509">
  <defs>
    <path id="path-1" fill-rule="evenodd" d="M44.39410526 0h17.2923158v17.29193684h-17.2923158V0z"/>
    <mask id="mask-2" maskContentUnits="userSpaceOnUse" maskUnits="userSpaceOnUse">
      <rect width="107.439" height="91.509" x="0" y="0" fill="black"/>
      <use fill="white" xlink:href="#path-1"/>
    </mask>
    <path id="path-16" fill-rule="evenodd" d="M94.78206979 24.11705222h12.65699688v57.76756014H94.78206979V24.11705222z"/>
    <mask id="mask-17" maskContentUnits="userSpaceOnUse" maskUnits="userSpaceOnUse">
      <rect width="107.439" height="91.509" x="0" y="0" fill="black"/>
      <use fill="white" xlink:href="#path-16"/>
    </mask>
  </defs>
  <g>
    <g>
      <use fill="none" xlink:href="#path-1"/>
      <g mask="url(#mask-2)">
        <path fill="rgb(118,205,38)" fill-rule="evenodd" d="M61.68643188 8.64647019c0 4.76708984-3.87854003 8.64550781-8.64663696 8.64550781-4.76715088 0-8.64569092-3.87841797-8.64569092-8.64550781 0-4.76733399 3.87854004-8.64672852 8.64569092-8.64672852 4.76809693 0 8.64663696 3.87939453 8.64663696 8.64672852zm-3.31106567-.00024414c0-2.9416504-2.39398193-5.3347168-5.33557129-5.3347168-2.9406128 0-5.33462524 2.3930664-5.33462524 5.3347168 0 2.94140625 2.39401245 5.33447265 5.33462524 5.33447265 2.94158936 0 5.3355713-2.3930664 5.3355713-5.33447265z"/>
      </g>
    </g>
    <path fill="rgb(118,205,38)" fill-rule="evenodd" d="M53.5 55.50926316c-.82808924 0-1.5.73755822-1.5 1.64655398v32.70689204c0 .90993772.67191076 1.64655398 1.5 1.64655398s1.5-.73661626 1.5-1.64655398V57.15581714c0-.90899576-.67191076-1.64655398-1.5-1.64655398"/>
    <path fill="rgb(118,205,38)" fill-rule="evenodd" d="M48.951628 18.56263704l-2.4133565.63010061c-2.3609126.61691466-4.3519083 2.06831235-5.67143463 4.0122999-.77448422-1.01155166-1.74095062-1.7301866-3.70666087-2.24443912l-2.1108675-.55098484c-.87468956-.22792878-1.76810908.30045156-1.9966147 1.1801436-.22663263.87969205.298743 1.77916304 1.17343256 2.00709181l2.111804.55098485c1.60890434.42006707 1.80369602.74971613 2.62687816 2.13612586.11425281.19119645.2388071.39934628.37272638.61879836-.02341246.11961552-.05057091.23828918-.07023738.35884654l-4.50455755 25.5393249c-.0065555.0395579-.01217448.07817393-.01685697.11773181-.19947417 1.9308016.79227769 3.71090648 2.38994404 4.59624965l-2.119296 27.50026585c-.06930088.90606397.604978 1.69816355 1.50588952 1.76880263.04214243.00282556.08522136.00470927.12736379.00470927.8475311 0 1.56395241-.65647254 1.6304438-1.5192112l2.10243902-27.2761045c.94492694-.20720797 1.80088653-.70356526 2.44987995-1.41089794l3.04642947 33.43018138c.07772937.85426197.79040469 1.4966067 1.6276343 1.4966067.04963442 0 .09926884-.00282557.15077625-.00753484.89997502-.08288319 1.56301592-.88440131 1.48060406-1.78952343l-3.58117008-39.31017862.32871095-3.60353508c.01685698-.097011.02715846-.19402201.02622196-.29009116l1.42909664-15.6545626c.08241186-.9051221-.58062904-1.70569838-1.48060405-1.78952342-.90278451-.08194134-1.6969352.58394975-1.77934706 1.48907186l-1.43846162 15.76287585-1.86456842 7.3134997c-.0046825.02166266-.00936498.04426716-.01404748.06687167-.15358574.72805348-.8475311 1.21028295-1.57987288 1.09914413-.7239133-.11019697-1.23617796-.75913468-1.18560704-1.48907187l4.49519256-25.48658106c.001873-.01130225.0046825-.02354636.0065555-.03484861.03839643-.25053328.09458634-.49353172.15920473-.73276275.01217448-.0433253.02715845-.08570876.03465044-.12903406.64899343-2.21429978 2.40399153-3.95296307 4.66750828-4.5435058l2.41242001-.63104247c.87468956-.22792878 1.40006519-1.12645791 1.17343256-2.0070918-.22663262-.87969205-1.12098864-1.4080724-1.9956782-1.17920176"/>
    <path fill="rgb(118,205,38)" fill-rule="evenodd" d="M52 22.00937043v.99978545c0 .82814847.67124464 1.50010728 1.49957082 1.50010728.82918454 0 1.50042918-.6719588 1.50042918-1.50010728v-.99978545c0-.82814846-.67124464-1.50010727-1.50042918-1.50010727-.82832618 0-1.49957082.6719588-1.49957082 1.50010727"/>
    <path fill="rgb(118,205,38)" fill-rule="evenodd" d="M53.49957082 43.50926316C54.32875536 43.50926316 55 42.7684027 55 41.85322214V28.16530417c0-.91423317-.67124464-1.65604101-1.50042918-1.65604101C52.67124464 26.50926316 52 27.251071 52 28.16530417v13.68791797c0 .91518056.67124464 1.65604102 1.49957082 1.65604102"/>
    <path fill="rgb(118,205,38)" fill-rule="evenodd" d="M84 12.00926316c0 4.13574219-3.3651123 7.5-7.5 7.5s-7.5-3.36425781-7.5-7.5c0-4.13476563 3.3651123-7.5 7.5-7.5s7.5 3.36523437 7.5 7.5zm-3.19598389 0c0-2.37329102-1.9298706-4.30395508-4.30401611-4.30395508-2.37322998 0-4.3039856 1.93066406-4.3039856 4.30395508 0 2.37329101 1.93075562 4.30493164 4.3039856 4.30493164 2.3741455 0 4.30401611-1.93164063 4.30401611-4.30493164z"/>
    <path fill="rgb(118,205,38)" fill-rule="evenodd" d="M75.5 52.50926316c-.82808924 0-1.5.73702278-1.5 1.64535865v30.7092827c0 .90833586.67191076 1.64535865 1.5 1.64535865.82894737 0 1.5-.73702279 1.5-1.64535866V54.15462181c0-.90833587-.67105263-1.64535865-1.5-1.64535865"/>
    <path fill="rgb(118,205,38)" fill-rule="evenodd" d="M92.97611668 50.60812561c-.0038347-.03930576-.00958676-.07767568-.01725617-.11698144l-4.03506663-22.2021424c-.5598667-3.47668855-3.17321706-6.29360175-6.66567316-7.17985318l-2.16181404-.5465373c-.89444456-.22834779-1.80902132.29760079-2.04197955 1.17168614-.23295823.87502121.30485892 1.7678236 1.20026216 1.99429968l2.16181403.54747316c2.20207842.55870338 3.85100088 2.3377572 4.19900021 4.53326496.00191735.01123022.0038347.02339629.00671073.03556236l4.0245212 22.14599131c.03259498.52407688-.348958.98825925-.8848578 1.06780663-.54740391.07861153-1.0641302-.26952525-1.17821262-.79640968-.00479338-.02152458-.01054543-.04398502-.01629749-.0655096l-1.66521994-6.34226603-1.28654299-13.68776491c-.08532215-.9002892-.90211397-1.56567966-1.8214841-1.47958132-.9212875.08235494-1.60003.87876462-1.51566652 1.77811797l1.27887358 13.60260242c.00095868.08141908.01054543.16377402.02300822.24612896l.29431349 3.13042347-3.20677071 36.28858009c-.0795701.89935335.6030071 1.69201962 1.52525327 1.7696953.04889247.0037434.09778494.00655096.14571873.00655096.86089091 0 1.5914019-.64293002 1.66809597-1.4954908l2.54911908-28.84481678 1.84832703 24.49310703c.06423128.86098344.79857698 1.51607953 1.66905465 1.51607953.04122306 0 .0834048-.0018717.12462786-.00467926.92224616-.06644546 1.6153688-.85068907 1.54730281-1.75097827l-1.8933848-25.09860299c.13709065-.00842266.27322262-.01029436.41127195-.0308831 2.32478892-.34345752 3.95549654-2.40233095 3.71295155-4.6848729"/>
    <path fill="rgb(118,205,38)" fill-rule="evenodd" d="M73.94792691 21.58935625c-.22212702-.8795786-1.0977848-1.4078908-1.95600285-1.17904969l-2.06982001.5509138c-2.09001338.55750592-3.0290049 1.35703722-3.8238892 2.51066012-1.2887039-2.07746295-3.3080405-3.6350893-5.72573713-4.27923466l-2.36445958-.63001937c-.85730017-.22884111-1.73387583.2994711-1.95600285 1.17999143-.2230449.8795786.29188592 1.77799187 1.1491861 2.00589125l2.36537745.63001936c2.4984701.66580522 4.36911009 2.78752963 4.7637986 5.40554731.00183576.0113008.00367153.02354333.00550729.03484412L68.7426279 53.3022144c.05048342.72984306-.45251497 1.37869708-1.16203642 1.48887984-.71778237.1111245-1.39701377-.37198453-1.54754613-1.09900239-.0045894-.02260159-.01009669-.04426145-.01560397-.06686304l-1.87890091-7.52162132c-.00734304-.03201892-.022947-.0602709-.0330437-.0913481l-.66546319-16.37673654c-.03763309-.90877232-.78386975-1.61978072-1.67054209-1.57551927-.88483658.03766932-1.5723289.80423996-1.5356137 1.71207056l.83527105 20.51376952-3.00422212 39.44919457c-.06884102.90594713.5911149 1.6988863 1.47411571 1.76951627.04314038.00376693.08536287.00470867.12666748.00470867.82976377 0 1.53194217-.65544616 1.59802955-1.51807357l2.56088596-33.63022648c.73063269.91913139 1.7816056 1.5331413 2.94639566 1.69229417l2.05421605 27.20760755c.0651695.86262741.76826578 1.5190153 1.59802955 1.5190153.0413046 0 .0835271-.00188347.1257496-.00470867.88300081-.07062997 1.5438746-.8626274 1.47503359-1.76857454l-2.09276702-27.71049296c1.36213432-.94079125 2.17996564-2.59635783 1.99914323-4.38188356-.00367152-.03955279-.0091788-.07816384-.01652184-.11771662L67.51358622 27.3499369c.24599191-.39270265.45710438-.75244465.64068043-1.06698347.80681676-1.38623095.99773585-1.71489576 2.57465416-2.1358504l2.06982-.5509138c.85821806-.22789937 1.37223101-1.12631264 1.1491861-2.00683298"/>
    <path fill="rgb(118,205,38)" fill-rule="evenodd" d="M76.50042918 21.50926316C75.67124464 21.50926316 75 22.25491274 75 23.17600928v.66650775c0 .92014303.67124464 1.66674613 1.50042918 1.66674613.82832618 0 1.49957082-.7466031 1.49957082-1.66674613v-.66650775c0-.92109654-.67124464-1.66674612-1.49957082-1.66674612"/>
    <path fill="rgb(118,205,38)" fill-rule="evenodd" d="M76.50042918 26.50926316c-.82918454 0-1.50042918.7466476-1.50042918 1.66684546V40.8424177c0 .92019786.67124464 1.66684546 1.50042918 1.66684546.82832618 0 1.49957082-.7466476 1.49957082-1.66684546V28.17610862c0-.92019787-.67124464-1.66684546-1.49957082-1.66684546"/>
    <path fill="rgb(118,205,38)" fill-rule="evenodd" d="M99 17.00975144c0 3.58398437-2.9154663 6.49951172-6.49954224 6.49951172C88.91638184 23.50926316 86 20.5937358 86 17.00975144c0-3.58422852 2.91638184-6.50048828 6.50045776-6.50048828C96.0845337 10.50926316 99 13.42552292 99 17.00975144zm-3.20123291 0c0-1.8190918-1.48016357-3.29833984-3.29830933-3.29833984-1.81814575 0-3.29830932 1.47924804-3.29830932 3.29833984 0 1.81811523 1.48016357 3.29736328 3.29830932 3.29736328 1.81814576 0 3.29830933-1.47924805 3.29830933-3.29736328z"/>
    <path fill="rgb(118,205,38)" fill-rule="evenodd" d="M93.49957082 54.50926316c-.82832618 0-1.49957082.7436159-1.49957082 1.66007738v23.68079494c0 .91646148.67124464 1.65912768 1.49957082 1.65912768.82918454 0 1.50042918-.7426662 1.50042918-1.65912768V56.16934054c0-.91646148-.67124464-1.66007738-1.50042918-1.66007738"/>
    <g>
      <use fill="none" xlink:href="#path-16"/>
      <g mask="url(#mask-17)">
        <path fill="rgb(118,205,38)" fill-rule="evenodd" d="M107.41853333 49.3212949c-.00373333-.03933333-.00933333-.07773015-.0168-.11706349l-3.2536-18.40238095c-.46946666-2.99214286-2.65906666-5.4158254-5.58133333-6.17720635l-1.74346667-.45420635c-.8708-.22850794-1.76213333.29780952-1.988 1.17250794-.22773333.87563492.29586667 1.76906349 1.16853334 1.99569841l1.74346666.45514286C99.4152 28.22832665 100.664 29.61248538 100.9272 31.32161237c.00186667.0121746.00373333.0243492.00653333.0355873l3.2424 18.34150793c.00933334.28469842-.19413333.53287302-.47693333.5768889-.29493333.04401586-.57306667-.14984128-.63466667-.44109525-.01026666-.04963492-.02333333-.09926984-.03826666-.14796825l-1.4336-4.61042857-1.99173334-11.9882381c-.1484-.89155555-.98933333-1.49653968-1.87786666-1.3457619-.88853334.14890476-1.48866667.99269841-1.34026667 1.88425397l1.91893333 11.55557142c-.0028.17231746.01306667.34650794.0672.5188254l.04293334.13579365.29586666 1.78779365-2.58066666 32.49401588c-.07186667.90092063.59826666 1.68946031 1.49613333 1.76157142.0448.00374604.08866667.00468254.1316.00468254.84186667 0 1.55586667-.649 1.624-1.50590476l2.18026667-27.44155555c.60293333.38771428 1.3076.61809523 2.05333333.61809523.1904 0 .38173333-.01404761.57493333-.04307936 2.02253334-.30811111 3.44306667-2.1483492 3.2312-4.19087302"/>
      </g>
    </g>
    <path fill="rgb(118,205,38)" fill-rule="evenodd" d="M38 12.00926316c0 4.13574219-3.3651123 7.5-7.5 7.5s-7.5-3.36425781-7.5-7.5c0-4.13476563 3.3651123-7.5 7.5-7.5s7.5 3.36523437 7.5 7.5zm-3.19598389 0c0-2.37329102-1.93078613-4.30395508-4.30401611-4.30395508-2.3741455 0-4.30490112 1.93066406-4.30490112 4.30395508 0 2.37329101 1.93075561 4.30493164 4.30490112 4.30493164 2.37322998 0 4.30401611-1.93164063 4.30401611-4.30493164z"/>
    <path fill="rgb(118,205,38)" fill-rule="evenodd" d="M31.50042918 52.50926316C30.67124464 52.50926316 30 53.24628594 30 54.1546218v30.7092827c0 .90833586.67124464 1.64535865 1.50042918 1.64535865C32.32875536 86.50926316 33 85.77224037 33 84.8639045V54.15462181c0-.90833587-.67124464-1.64535865-1.49957082-1.64535865"/>
    <path fill="rgb(118,205,38)" fill-rule="evenodd" d="M27.9031986 20.56229711l-2.16173311.54747577c-3.49136675.8853198-6.10557793 3.70224641-6.66542367 7.17988738l-4.0349156 22.20131232c-.00766913.03930595-.01342097.07767605-.01725553.116982-.2425359 2.28348869 1.38906931 4.34143607 3.71281258 4.68489523.1390028.02058883.27512967.0233964.41125655.03088325L17.25462589 80.4224556c-.06806344.90122935.62503326 1.6854767 1.54820354 1.75098661.04218016.00374343.08340168.00467928.1246232.00467928.86948644 0 1.6047633-.6550992 1.66899217-1.51515089l1.84825785-24.49415957 2.54902367 28.84589006c.07573256.85162897.80717485 1.49456206 1.6670749 1.49456206.04889063 0 .09778127-.00187171.14571327-.00561514.92221165-.07767605 1.6047633-.8703461 1.52519618-1.77063958l-3.20569204-36.28781712.29334383-3.13043838c.01342096-.08329118.02300736-.16471066.023966-.24613013l1.27882571-13.60360308c.08340168-.89935764-.59531541-1.69483525-1.51560978-1.77812644-.92317029-.08329118-1.73801425.58023073-1.82237457 1.47958837l-1.28649483 13.68876598-1.66515762 6.34136038c-.00575184.02152469-.01150368.04398523-.01629688.06644577-.11407816.52688694-.63270238.87596124-1.17720988.79547762-.53683838-.0786119-.91741844-.54279649-.88578332-1.06687586l4.02437057-22.14703268c.00287592-.01216612.0047932-.0233964.00671048-.03462667.3479863-2.19551822 1.99684704-3.97551636 4.19884304-4.53328655l2.16173312-.54841163c.89536972-.22647715 1.43316674-1.1192838 1.20117587-1.99430917-.2329495-.87408952-1.14749203-1.39910475-2.04286176-1.17169174"/>
    <path fill="rgb(118,205,38)" fill-rule="evenodd" d="M30 23.17600928v.66650775c0 .92014303.67191076 1.66674613 1.5 1.66674613s1.5-.7466031 1.5-1.66674613v-.66650775c0-.92109654-.67191076-1.66674612-1.5-1.66674612s-1.5.74564958-1.5 1.66674612"/>
    <path fill="rgb(118,205,38)" fill-rule="evenodd" d="M31.5 42.50926316c.82808924 0 1.5-.7466476 1.5-1.66684546V28.17610862c0-.92019787-.67191076-1.66684546-1.5-1.66684546s-1.5.7466476-1.5 1.66684546V40.8424177c0 .92019786.67191076 1.66684546 1.5 1.66684546"/>
    <path fill="rgb(118,205,38)" fill-rule="evenodd" d="M22 17.00975144c0 3.58398437-2.91636658 6.49951172-6.50045776 6.49951172C11.91545105 23.50926316 9 20.5937358 9 17.00975144c0-3.58422852 2.91545105-6.50048828 6.49954224-6.50048828C19.08363342 10.50926316 22 13.42552292 22 17.00975144zm-3.20213318 0c0-1.8190918-1.48016357-3.29833984-3.29832458-3.29833984-1.81814576 0-3.29830933 1.47924804-3.29830933 3.29833984 0 1.81811523 1.48016357 3.29736328 3.29830933 3.29736328 1.818161 0 3.29832458-1.47924805 3.29832458-3.29736328z"/>
    <path fill="rgb(118,205,38)" fill-rule="evenodd" d="M14.49957082 54.50926316c-.82832618 0-1.49957082.7436159-1.49957082 1.66007738v23.68079494c0 .91646148.67124464 1.65912768 1.49957082 1.65912768.82918454 0 1.50042918-.7426662 1.50042918-1.65912768V56.16934054c0-.91646148-.67124464-1.66007738-1.50042918-1.66007738"/>
    <path fill="rgb(118,205,38)" fill-rule="evenodd" d="M12.94561564 24.73947123c-.23198619-.8782275-1.14651024-1.4047879-2.0428205-1.17723859l-1.78974466.45603891c-3.00239971.76445285-5.25132364 3.19791408-5.7335098 6.20212915L.03778927 48.69702864c-.00766897.03949203-.01342069.07804377-.01629655.1175358-.21760688 2.05076466 1.24045505 3.89842745 3.3177859 4.20778168.19939308.02914888.3959103.04325317.5914689.04325317.76593786 0 1.4887378-.23131045 2.10896532-.62058903l2.2383791 27.55227235c.0699793.86036207.80332406 1.51198055 1.66799984 1.51198055.04505517 0 .09011034-.00094029.13612413-.00470143.92219301-.07240206 1.60952398-.86412321 1.5357102-1.76867874L8.96829877 47.11076546l.30388273-1.79312618.04409655-.1382221c.05464137-.17395298.07189654-.34884626.06806206-.52185896l1.97188257-11.6012537c.15242068-.89515267-.46493099-1.74235072-1.3775378-1.89185626-.9126068-.14950554-1.77536535.4560389-1.92778602 1.35119157L6.0052025 44.55318643l-1.47244124 4.6280897c-.01533793.0488949-.02971724.09873008-.03930345.14856526-.06422758.29242907-.35085514.48706836-.651862.4428749-.29142067-.04419346-.50039996-.29336936-.49081375-.57921643l3.33120658-18.41550932c.00191724-.01128343.0047931-.02350716.00671035-.03573088.270331-1.7160227 1.55296537-3.105766 3.26602038-3.54299919l1.79070328-.4560389c.89631026-.22754932 1.4331378-1.12458255 1.20019299-2.00375034"/>
  </g>
</svg>
