<svg xmlns="http://www.w3.org/2000/svg" xmlns:xlink="http://www.w3.org/1999/xlink" width="89" height="87" viewBox="0 0 89 87">
  <defs>
    <path id="path-4" fill-rule="evenodd" d="M54.21261457 64.69412083h31.04208075V87H54.21261457V64.69412083z"/>
    <mask id="mask-5" maskContentUnits="userSpaceOnUse" maskUnits="userSpaceOnUse">
      <rect width="89" height="87" x="0" y="0" fill="black"/>
      <use fill="white" xlink:href="#path-4"/>
    </mask>
    <path id="path-8" fill-rule="evenodd" d="M.84699247 64.69412083h31.04235127V87H.84699247V64.69412083z"/>
    <mask id="mask-9" maskContentUnits="userSpaceOnUse" maskUnits="userSpaceOnUse">
      <rect width="89" height="87" x="0" y="0" fill="black"/>
      <use fill="white" xlink:href="#path-8"/>
    </mask>
  </defs>
  <g>
    <path fill="rgb(118,205,38)" fill-rule="evenodd" d="M42.99951172 57C38.03692627 57 34 52.96289062 34 48c0-4.96289063 4.03692627-9 8.99951172-9C47.96307373 39 52 43.03710938 52 48c0 4.96289063-4.03692627 9-9.00048828 9zm0-2.69506836c3.47717285 0 6.30566406-2.82763672 6.30566406-6.30493164 0-3.4765625-2.82849121-6.30517578-6.30566406-6.30517578-3.47619629 0-6.30377197 2.82861328-6.30377197 6.30517578 0 3.47729492 2.82757568 6.30493164 6.30377197 6.30493164z"/>
    <path fill="rgb(118,205,38)" fill-rule="evenodd" d="M55.89845116 70.9721521c.74229926-.15216893 1.22323922-.89113305 1.07458505-1.6509831C55.69150123 62.76099763 50.01738121 58 43.48242724 58c-3.13631154 0-6.20655456 1.1109326-8.64623184 3.12791676-2.4387057 2.0159896-4.14579968 4.8554816-4.80551329 7.99433861-.15837013.75686635.31188228 1.50279245 1.05223835 1.66590162.73841288.16310917 1.469053-.3182618 1.62839472-1.07612272 1.08430101-5.16081401 5.61388107-8.90635758 10.77111206-8.90635758 5.23204389 0 9.77619788 3.8131742 10.80317473 9.06648305C54.41579582 70.5385204 54.9880658 71 55.6283475 71c.08841522 0 .17877364-.00895111.27010366-.0278479"/>
    <path fill="rgb(118,205,38)" fill-rule="evenodd" d="M69.99902344 63C65.03619384 63 61 58.96289062 61 54c0-4.96289063 4.03619385-9 8.99902344-9C74.96282959 45 79 49.03710938 79 54c0 4.96289063-4.03717041 9-9.00097656 9zm0-2.69506836c3.47735595 0 6.30603027-2.82763672 6.30603027-6.30493164 0-3.4765625-2.82867432-6.30517578-6.30603027-6.30517578-3.4763794 0-6.30407715 2.82861328-6.30407715 6.30517578 0 3.47729492 2.82769775 6.30493164 6.30407715 6.30493164z"/>
    <g>
      <use fill="none" xlink:href="#path-4"/>
      <g mask="url(#mask-5)">
        <path fill="rgb(118,205,38)" fill-rule="evenodd" d="M83.2758303 75.6037875C81.9968 69.28262083 76.3337697 64.69412083 69.81061818 64.69412083c-3.12921212 0-6.19345454 1.07045834-8.62836363 3.01395834-2.4349091 1.9435-4.13866667 4.67954166-4.79612122 7.70595833l-2.1430303 9.95229167c-.1580606.73025.31418182 1.44804166 1.05212121 1.60329166.0969697.020125.1929697.03066667.2860606.03066667.63321213 0 1.20048486-.43604167 1.33721213-1.07141667l2.1420606-9.94845833c1.08315152-4.97279167 5.6038788-8.58283333 10.75006061-8.58283333 5.22278788 0 9.7580606 3.67425 10.78109091 8.73233333l1.952 9.77883333c.14642424.733125.8659394 1.210375 1.60678788 1.06566667.74181818-.14470833 1.22375758-.85579167 1.07830303-1.58795833l-1.9529697-9.78266667z"/>
      </g>
    </g>
    <path fill="rgb(118,205,38)" fill-rule="evenodd" d="M25 54c0 4.96289063-4.03790283 9-9.00048828 9C11.03790283 63 7 58.96289062 7 54c0-4.96289063 4.03790283-9 8.99951172-9C20.96209717 45 25 49.03710938 25 54zm-2.69476318 0c0-3.4765625-2.82855225-6.30517578-6.30566407-6.30517578-3.47619629 0-6.30474853 2.82861328-6.30474853 6.30517578 0 3.47729492 2.82855224 6.30493164 6.30474853 6.30493164 3.47711182 0 6.30566407-2.82763672 6.30566407-6.30493164z"/>
    <g>
      <use fill="none" xlink:href="#path-8"/>
      <g mask="url(#mask-9)">
        <path fill="rgb(118,205,38)" fill-rule="evenodd" d="M29.91020606 75.6037875c-1.2790303-6.32116667-6.9420606-10.90966667-13.46521212-10.90966667-3.12921212 0-6.19345455 1.07045834-8.62836364 3.01395834-2.43490909 1.94445833-4.13769697 4.67954166-4.7961212 7.70595833L.87747878 85.36632917c-.1580606.73025.31418182 1.44804166 1.0530909 1.60329166.096.020125.192.03066667.28606061.03066667.63224243 0 1.19951515-.43604167 1.33624243-1.07141667l2.1420606-9.94845833c1.08315152-4.97279167 5.6038788-8.58283333 10.7500606-8.58283333 5.22375759 0 9.75903031 3.67425 10.78109092 8.73329166l1.9529697 9.777875c.14545454.733125.864 1.210375 1.60678787 1.06566667.74084849-.14470833 1.22375758-.85579167 1.07733334-1.58795833l-1.9529697-9.78266667z"/>
      </g>
    </g>
    <path fill="rgb(118,205,38)" fill-rule="evenodd" d="M87.64157438 0H1.35842562C.60791955 0 0 .60608324 0 1.35528282v51.28943436C0 53.39295624.60791955 54 1.35842562 54c.75146949 0 1.36035246-.60704376 1.36035246-1.35528282V2.70960512h83.56340727v49.93511206c0 .74823906.60888297 1.35528282 1.35938903 1.35528282C88.39208045 54 89 53.39295624 89 52.64471718V1.35528282C89 .60608324 88.39208045 0 87.64157438 0"/>
    <path fill="rgb(118,205,38)" fill-rule="evenodd" d="M9.38727755 11h7.2254449C17.3786255 11 18 10.3278979 18 9.49946827S17.3786255 8 16.61272245 8h-7.2254449C8.6213745 8 8 8.67103864 8 9.49946827 8 10.32789791 8.6213745 11 9.38727755 11"/>
    <path fill="rgb(118,205,38)" fill-rule="evenodd" d="M9.34253092 17H25.6565176C26.39866794 17 27 16.32896136 27 15.49946827 27 14.6721021 26.39866794 14 25.6565176 14H9.34253092C8.60133206 14 8 14.6721021 8 15.49946827 8 16.32896137 8.60133206 17 9.34253092 17"/>
    <path fill="rgb(118,205,38)" fill-rule="evenodd" d="M9.39594375 23h11.2081125C21.37474383 23 22 22.32896136 22 21.49946827 22 20.67103864 21.37474383 20 20.60405625 20H9.39594375C8.62525617 20 8 20.67103864 8 21.49946827 8 22.32896137 8.62525617 23 9.39594375 23"/>
    <path fill="rgb(118,205,38)" fill-rule="evenodd" d="M79.59687808 10.40187697c-.53571244-.53648462-1.40393604-.53551097-1.93867622.00097366l-14.1297801 14.17059385-6.74064306-4.9646735c-.5104338-.37583133-1.21142957-.35246357-1.6956125.05549842l-11.25385018 9.48925434-8.33805781-6.13598203c-.52404538-.38459424-1.243514-.35051627-1.72672466.08276079L16.45767422 38.60188452c-.56488009.50630128-.61349283 1.3748027-.10889255 1.94049702C16.62004078 40.8461623 16.99435891 41 17.3715938 41c.32570538 0 .65238302-.11489144.91294733-.34954261l16.48652592-14.75965593 8.31277918 6.11650891c.51043381.37583133 1.21142958.35246358 1.6956125-.05647207l11.25287793-9.48828068 6.82036795 5.02406653c.54640724.40212005 1.30476605.34467433 1.78311545-.13631188L79.59882259 12.3443213c.53571243-.53745828.53474018-1.40693336-.00194451-1.94244433"/>
  </g>
</svg>
