<svg xmlns="http://www.w3.org/2000/svg" xmlns:xlink="http://www.w3.org/1999/xlink" width="275" height="250.948" viewBox="0 0 275 250.948">
  <defs>
    <path id="path-27" fill-rule="evenodd" d="M0 242.9475h131v-148H0v148z"/>
    <mask id="mask-28" maskContentUnits="userSpaceOnUse" maskUnits="userSpaceOnUse">
      <rect width="275" height="250.948" x="0" y="0" fill="black"/>
      <use fill="white" xlink:href="#path-27"/>
    </mask>
    <path id="path-41" fill-rule="evenodd" d="M218.57479318 74.2987963h56.07672955v33.733h-56.07672955v-33.733z"/>
    <mask id="mask-42" maskContentUnits="userSpaceOnUse" maskUnits="userSpaceOnUse">
      <rect width="275" height="250.948" x="0" y="0" fill="black"/>
      <use fill="white" xlink:href="#path-41"/>
    </mask>
    <path id="path-44" fill-rule="evenodd" d="M183 250.9475h92v-177h-92v177z"/>
    <mask id="mask-45" maskContentUnits="userSpaceOnUse" maskUnits="userSpaceOnUse">
      <rect width="275" height="250.948" x="0" y="0" fill="black"/>
      <use fill="white" xlink:href="#path-44"/>
    </mask>
    <path id="path-69" fill-rule="evenodd" d="M122.00784286 79.35723333H130.8947V82.9475h-8.88685714v-3.59026667z"/>
    <mask id="mask-70" maskContentUnits="userSpaceOnUse" maskUnits="userSpaceOnUse">
      <rect width="275" height="250.948" x="0" y="0" fill="black"/>
      <use fill="white" xlink:href="#path-69"/>
    </mask>
    <path id="path-72" fill-rule="evenodd" d="M121.40186667 0h18.972v4.2875h-18.972V0z"/>
    <mask id="mask-73" maskContentUnits="userSpaceOnUse" maskUnits="userSpaceOnUse">
      <rect width="275" height="250.948" x="0" y="0" fill="black"/>
      <use fill="white" xlink:href="#path-72"/>
    </mask>
  </defs>
  <g>
    <g>
      <path fill="rgb(255,255,255)" fill-rule="evenodd" d="M70.15081016 137.93100279L71 101.000985c0-.00911145-.00656252-.01692126-.01575004-.0182229-12.07503328-.30588447-24.2708169 1.37843257-34.97034638 5.04774457-.01575004.00520655-.01837505.0182229-.00656252.028636l34.11459402 31.88357484c.01050003.0104131.02887508.00260328.02887508-.01171472"/>
      <path fill="rgb(21,0,53)" fill-rule="evenodd" d="M69.67504883 138.53246094l.42340088.41503906 1.0701294-.46191406L72 100.87767578l-.0166626-.87060547-.83789062-.02050781c-12.17279053-.3305664-24.0914917 1.44970703-34.50134278 5.11132813l-.47088623.18261718L36 106.25560547l33.67504883 32.27685547zm-.18096924-2.57470703l-30.9522705-29.66601563c9.67718505-3.21142578 20.65411376-4.78271484 31.72210693-4.58447265l-.76983643 34.25048828z"/>
      <path fill="rgb(229,76,76)" fill-rule="evenodd" d="M70.02595913 153.9451589L113 128.10593765v-.02865814c-11.53883305-7.02254697-26.7366054-10.7298682-42.14205077-11.12977951-.0090857 0-.01687344.00781586-.01687344.01693436L70 153.93082983c0 .01302643.01427752.02084229.02595913.01432907"/>
      <path fill="rgb(21,0,53)" fill-rule="evenodd" d="M69.00915527 154.44701172l.91650391.50048828 43.64874268-26.1821289L114 128.47923827v-.98779297l-.4216919-.25488281C102.2774048 120.3796289 87.07025147 116.369375 70.73638917 115.9475l-.87213135.015625L69 153.91673828l.00915527.53027344zm1.77423096-2.06298828l.78985596-34.66210938c15.10009765.50976563 29.1609497 4.140625 39.86785888 10.28417969l-40.65771484 24.37792969z"/>
      <path fill="rgb(21,0,53)" fill-rule="evenodd" d="M70 153.6297155l.0454175 29.30121915c0 .01294452.01297644.02071123.02465523.01423897l42.92084377-24.01855987c.00519057-.0025889.0090835-.00906116.0090835-.01423897v-30.9477623c0-.01294451-.01427407-.02200568-.02595286-.01423897l-42.96626128 25.66510302c-.00519057.0025889-.00778586.00776671-.00778586.01423898"/>
      <path fill="rgb(21,0,53)" fill-rule="evenodd" d="M69.05480957 183.44359375l.87841797.50390625 43.50811767-24.2211914L114 159.49583983v-31.54492187l-.01043701-.55175781-.92675781-.45166016-43.57202149 25.88769531L69 153.08763671l.0456543 29.84472657.00915527.51123047zm1.73602295-1.96142578l-.04309082-27.37792969 41.50323486-24.65771484v28.96289062l-41.46014404 23.0727539z"/>
      <path fill="rgb(57,161,255)" fill-rule="evenodd" d="M129.98675147 197.33949098v-28.37390609c0-.01033422-.00776712-.01808489-.01682876-.01808489l-59.87542277 1.10447028c-.00906164 0-.01682875.00775067-.01682875.01679312L70 206.64675222l.13851362-.0051671 12.94390314 33.29558066c.0064726.00387533.01165068.00645889.01812328.01033422 10.54515802-1.50750505 20.5375561-4.63360806 28.77976345-9.38218438 11.51604785-6.63457235 17.48507849-14.77406619 18.0158316-23.4638575l.05048627-.4547059s.0854383-8.55932172.0401301-9.30726124"/>
      <path fill="rgb(21,0,53)" fill-rule="evenodd" d="M82.33990479 240.67796875l.54345703.26953125.27038574-.03759766c11.02844238-1.57568359 21.12988281-4.8671875 29.21624756-9.51904296 11.55627441-6.64990235 17.96166992-15.03125 18.52197265-24.19384766l.05462647-.5415039.00292969-.31640626c.0158081-1.68847656.07696533-8.20800781.03735351-9.05078125v-28.44042968l-.01690674-.90039063-61.885437 1.14013672L69 207.54710938l.42510986-.015625 12.7756958 32.82373046.13909913.32275391zm-11.51586915-34.35009766l-.08062744-.20507812.0767212-35.33251953 58.42602539-1.07666016v27.59667969l.00128173.05175781c.0324707.5288086-.00653076 5.83642578-.03637695 9.19091797l-.05334473.49658203c-.52648925 8.59765625-6.6315918 16.49414063-17.6586914 22.83935547-7.73150635 4.44873047-17.37402344 7.62597656-27.92144776 9.2055664L70.82403564 206.3278711z"/>
      <path fill="rgb(21,0,53)" fill-rule="evenodd" d="M129.89664783 207.10072896l.05048357-.4547126s.08413928-8.55944795.04012796-9.3073985v-28.3743245c0-.00904258-.0077667-.01679336-.01682785-.01679336l-12.82541574.23639888c-.00388335 0-.00647225.0012918-.0103556.0038754-9.89477976 7.53763639-30.51667097 23.4693707-30.61504921 23.54558673-.0025889.00258359-.00129445.00258359-.0025889.00516718l-3.43029388 10.7619621c-.00129445.0012918-.00129445.0025836-.00129445.00516719L83 239.7160235l.08543373.22089732c.0025889.00775078.01423896.01162617.02588901.01033437 10.54200503-1.50881907 20.52998523-4.63367639 28.77045723-9.38103093 11.5154318-6.63467019 17.48414315-14.77557585 18.01486786-23.46549531"/>
      <path fill="rgb(21,0,53)" fill-rule="evenodd" d="M82 239.75902344l.42822266 1.18847656.67803955-.09716797c11.0380249-1.57421875 21.1506958-4.86328125 29.24206543-9.50976562 11.56121826-6.64111328 17.97503662-15.00927735 18.54510498-24.2006836l.05206299-.51513672.00360107-.38574218c.0170288-1.8125.07824707-8.31054688.03674316-8.95361328v-28.43798829l-.01696777-.89990234-13.76593018.2524414-.30322265.00390626-.2355957.17724609c-9.5386963 7.24316406-28.9453125 22.18603516-30.66979981 23.515625l-.52062988.17333984.05206299.51171875-3.39691163 10.61669922L82 239.75902344zm1.7453003-.75488281l.08331298-35.40673829 3.32922363-10.40625c2.17608643-1.67529296 20.7576294-15.98095703 30.33013916-23.2626953l11.75512696-.2163086.0026245 27.62646484c.03118897.52832031-.0078125 5.83154297-.03778075 9.18359375l-.052063.49609375c-.52838134 8.58935547-6.64025878 16.48095703-17.67956542 22.82128906-7.68920898 4.41503907-17.26568604 7.578125-27.73101807 9.16455079z"/>
      <path fill="rgb(255,255,255)" fill-rule="evenodd" d="M70 170.55564396l13.02132214 33.3812965c.00388967.0077364.01166901.0116046.01944835.0103152 10.56175347-1.5047307 20.56858054-4.62379116 28.82505564-9.36362838 23.81126964-13.67280575 24.16782282-35.69963908 1.10207346-49.63419318-.00388967-.0025788-.01296557-.0025788-.0181518 0l-42.943265 25.58557945c-.00259312.0077364-.00388968.012894-.00648279.02063041"/>
      <path fill="rgb(21,0,53)" fill-rule="evenodd" d="M82.19110107 204.306875l.27185059.640625.67773438-.09667969c11.03704833-1.5678711 21.1453247-4.84326172 29.230896-9.47216797 11.90338134-6.81201171 18.51776122-15.9189453 18.62701415-25.64404296.1079712-9.56640625-6.10839844-18.61279297-17.56689453-25.50878907l-.57885742-.27832031-.36810303.36376953-42.99176025 25.53173828-.29266358.18310547L69 170.59837891 82.19110107 204.306875zm1.3735962-1.26220703l-12.5576172-32.08740234 42.02008057-24.95556641c10.57006836 6.4975586 16.32855225 14.90332031 16.23101807 23.71386719-.1027832 9.09033203-6.40887451 17.67382812-17.75683594 24.1689453-7.729187 4.42285157-17.36914062 7.58447267-27.9366455 9.16015626z"/>
      <path fill="rgb(57,161,255)" fill-rule="evenodd" d="M82.98002333 226.83488604l-10.48709532-12.98056696c-.00129823-.0012956-.00259646-.0025912-.00259646-.00388679l-2.53284513-6.51813877c-.00259646-.0025912-.00519292-.00647798-.00778937-.00906917l-41.03183148-23.64201876-.02596459-1.56248765h-2.68084326c-.00259645 0-.00519291 0-.00778937-.0012956L24.17153968 180.9475h-.01687698c-.66599157.38220054-1.30472032.77606144-1.93436148 1.17121794l-16.212286 9.81672381c-.0038947.0025912-.00778938.00777357-.00778938.01425155v14.16603645c-.04284156 9.17799544 6.00950288 18.36376446 18.16222624 25.3664558 15.94744725 9.1883602 38.4171979 12.32499585 58.82146594 9.41508934.01038583-.0012956.0181752-.00777358.01557875-.01425155l-.01557875-.04016345V226.8452508c0-.00388678-.00129823-.00777357-.00389469-.01036476"/>
      <path fill="rgb(21,0,53)" fill-rule="evenodd" d="M23.64263916 232.31078125C35.62927246 239.22875 51.42401123 242.9475 67.85388184 242.9475c5.10437011-.00146484 10.27252197-.35888672 15.40429687-1.09277344l.40081787-.10546875L84 241.00414063l-.08068848-.21191407v-13.89111328l-.00518798-.37207031-10.61358643-13.09521484-2.53527832-6.51416016-.12231445-.24072266-40.9354248-23.6225586-.02990724-1.93164062h-3.31750488l-1.83636474-1.06005859-.2199707-.1171875h-.46722413l-.20172119.1171875c-.67675781.39013672-1.32879639.79052734-1.95355225 1.18603516l-16.23461914 9.84472656-.44641113.26513672v14.72509765c-.046875 9.9482422 6.5737915 19.2607422 18.64239502 26.22509766zm-16.90100098-26.2211914v-13.74414063l15.855896-9.61425781c.48675537-.30712891.97869873-.61132813 1.48498535-.91064453l1.55786133.89892578.2277832.14697265h2.09533692l.01953125 1.20458985 41.29980468 23.83154297 2.37524414 6.11914062 10.51721192 13.18066406v13.04980469c-20.6583252 2.79003906-42.68719483-.81054687-57.66070557-9.44921875-11.50372314-6.63769531-17.81591797-15.41308594-17.77294922-24.7133789z"/>
      <path fill="rgb(21,0,53)" fill-rule="evenodd" d="M48 239.15993712c10.0148611 1.87056846 20.6972051 2.27442663 31 1.20516405V221.450436l-6.83057502-8.2989648c-.0013088-.00256418-.00261758-.00384627-.00261758-.00512836L70.5033353 208.9475H48v30.21243712z"/>
      <path fill="rgb(21,0,53)" fill-rule="evenodd" d="M47.69561768 240.13109375C53.95623779 241.33714844 60.5211792 241.9475 67.09381104 241.9475c3.72875976 0 7.460083-.19628906 11.13897705-.59082031L79 241.27513672v-20.15820313l-6.77722168-8.49072265L70.42871094 207.9475H47v32.04882813l.69561768.13476562zm29.59088134-.4165039c-9.522583.94628906-19.37005615.5493164-28.57427978-1.15332032v-28.88134765h20.54394531l1.35418701 3.53466796.0012207.1435547 6.67492676 8.36865234v17.98779296z"/>
      <path fill="rgb(21,0,53)" fill-rule="evenodd" d="M28 232.67877584c3.44602899 1.6790997 7.13692754 3.10115521 11 4.26872416v-30H28v25.73127584z"/>
      <path fill="rgb(21,0,53)" fill-rule="evenodd" d="M38.87524414 237.61498047L40 237.9475v-32H27v27.11621094l.49060059.23291015c3.50866699 1.67089844 7.3383789 3.12304688 11.38464355 4.31835938zm-.62243652-1.97851563c-3.3546753-1.04199218-6.54498291-2.26708984-9.50695801-3.64648437V207.6608789h9.506958v27.97558593z"/>
      <path fill="rgb(255,255,255)" fill-rule="evenodd" d="M82.99872136 226.87400547L69.9608087 193.33265211l-.00778925-.0077732-45.7774446-26.37446396c-.00519283-.0038866-.01298209-.0038866-.01687671 0-24.21419366 13.95548314-24.21159724 36.57808308.00778925 50.53227069 15.94590074 9.18792113 38.41530154 12.3244069 58.81925188 9.41463943.01168388-.00259106.01687671-.01295533.01298209-.0233196"/>
      <path fill="rgb(21,0,53)" fill-rule="evenodd" d="M23.63964844 218.32982422C35.6237793 225.23509766 51.41699219 228.9475 67.8347168 228.9475c5.09442138 0 10.25128174-.35839844 15.37042236-1.08789062l.42932129-.10107422L84 226.97826172l-13.25775146-33.98339844-.1235962-.24169922-46.10345459-26.55761718-.45141601-.24804688-.43322754.25048828C11.61523438 173.12132813 4.99871826 182.37865234 5 192.26390625c0 9.88671875 6.62042236 19.14404297 18.63964844 26.06591797zM6.74066162 192.26439453c0-9.12353515 6.15338135-17.74609375 17.3361206-24.31396484l45.18243409 26.02685547 12.5682373 32.31982422c-20.5559082 2.70263671-42.42578125-.89404297-57.31744384-9.47021485-11.4572754-6.60107422-17.76806641-15.32226562-17.76934815-24.5625z"/>
      <path fill="rgb(100,221,166)" fill-rule="evenodd" d="M36.05943075 95.9479903c-4.29337568 1.4866165-8.3461968 3.29356812-12.04864502 5.42739232-.01438097.00915243-.01438097.02222734 0 .03007228l45.9629137 26.53943849c.01830307.01045992.03529877-.0130749.0209178-.0261498L36.0777338 95.95191277c-.00522945-.00392247-.01176626-.00522996-.01830306-.00392247"/>
      <path fill="rgb(21,0,53)" fill-rule="evenodd" d="M69.35290527 128.53685547l.70007325.41064453L71 127.67064453 36.5635376 95.39330078 36.09979248 94.9475l-.51202393.25439453c-4.40576171 1.52001953-8.48760986 3.3515625-12.13323974 5.44042969L23 100.91136719l.01959229 1.02001953 46.33331298 26.60546875zM63.87860107 123.385l-38.24664306-21.96044922c3.08917236-1.67089844 6.47613525-3.15673828 10.09295654-4.4272461L63.87860107 123.385z"/>
      <path fill="rgb(100,221,166)" fill-rule="evenodd" d="M24 100.96418649v65.44363486c0 .00651959.00260934.01173526.00782801.0143431l45.96607862 26.52299216c.01174202.00651959.02609337-.00130392.02609337-.0143431l-.08741279-65.50883075c0-.00651959-.00260933-.01173526-.007828-.0143431L24.0247887 100.9498434c-.01043735-.00651959-.0247887.00130392-.0247887.0143431"/>
      <path fill="rgb(21,0,53)" fill-rule="evenodd" d="M69.69647217 193.70482422l.44689941.24267578L71 193.42601563l-.08477783-66-.00897217-.51757813-45.5873413-26.70410156-.44561768-.25683594L24 100.46507813v65.94287109l.00769043.51757812 45.68878174 26.77929688zm-.41870117-2.25927734l-43.55944825-25.53076172v-63.46142578l43.47729493 25.46533203.08215332 63.52685547z"/>
      <path fill="rgb(57,161,255)" fill-rule="evenodd" d="M102 150.9475l5-2.88209374V131.9475l-5 2.78314862V150.9475z"/>
      <path fill="rgb(21,0,53)" fill-rule="evenodd" d="M101 133.91673828V152.9475l6-4.109375V129.9475l-6 3.96923828zM102.60638428 149.76v-14.83935547l2.78723144-1.84521484v14.77441406L102.60638428 149.76z"/>
      <use fill="none" xlink:href="#path-27"/>
      <g mask="url(#mask-28)">
        <path fill="rgb(57,161,255)" fill-rule="evenodd" d="M125 215.9475h2v-30h-2v30z"/>
        <path fill="rgb(57,161,255)" fill-rule="evenodd" d="M97 151.9475h2v-14h-2v14z"/>
        <path fill="rgb(21,0,53)" fill-rule="evenodd" d="M28.97054492 168.9475H27l.02798233-65H29l-.02945508 65z"/>
        <path fill="rgb(21,0,53)" fill-rule="evenodd" d="M55.9705666 184.9475H54l.02796174-65H56l-.0294334 65z"/>
        <path fill="rgb(21,0,53)" fill-rule="evenodd" d="M77 212.9475h2v-23h-2v23z"/>
        <path fill="rgb(57,161,255)" fill-rule="evenodd" d="M87 237.9475h2v-34h-2v34z"/>
        <path fill="rgb(21,0,53)" fill-rule="evenodd" d="M16.15960637 233.9475c-10.05335589-5.44231764-13.920735-14.21883083-15.32966864-18.96533885C.27838856 213.12753104 0 211.16296818 0 209.14279229V198.9475h1.75005766l-.00130699 10.1952923c0 1.8546301.25486277 3.6549405.75936035 5.35049146C3.84123933 218.98371314 7.49819328 227.2842822 17 232.42913476L16.15960637 233.9475z"/>
        <path fill="rgb(21,0,53)" fill-rule="evenodd" d="M2 195.9475H0l.00149365-8H2v8z"/>
      </g>
    </g>
    <g>
      <path fill="rgb(34,178,38)" fill-rule="evenodd" d="M271.95040518 90.9475l-50.90469987.07751105c-.57863941.00129185-1.04700002.46765001-1.04570262 1.0438155l.01816357 104.63862794h.01427137c.11287361 1.54505363 1.27144984 3.14824055 3.4757287 4.41554625l15.31967316 8.80783917c4.24249078 2.43772258 10.65942028 2.702552 14.33235343.5916677l17.37864346-9.99117457c1.764461-1.01410293 2.55068407-2.3950915 2.44559485-3.82387855H273v-104.716139c0-.57745733-.469658-1.04381549-1.04959482-1.04381549"/>
      <path fill="rgb(21,0,53)" fill-rule="evenodd" d="M238.56433105 211.69847656c2.56237793 1.48925782 5.78082276 2.24902344 8.85430909 2.24902344 2.60247802 0 5.1013794-.54492187 7.00891113-1.65332031l17.33459473-10.05957031c1.59564209-.9248047 2.64904785-2.20263672 3.05151367-3.63720704H275V91.5754297c0-1.44824219-1.17376709-2.62792969-2.6140747-2.62792969l-50.78344727.078125C220.16729736 89.03197266 219 90.2106836 219 91.6530664l.01940918 105.36865235.01550293 1.5756836h.31707764c.58752441 1.60791015 1.93988037 3.07666015 3.93023681 4.23291015l15.2821045 8.86816406zm-16.40283203-14.79101562l-.0090332-.12207031-.01812744-104.61132813 49.73132324-.0756836v103.34863282h-.13201904l.12298584 1.68847656c.0802002 1.11865235-.85931397 1.90820313-1.66033936 2.37402344l-17.3359375 10.05810547c-3.166687 1.84472656-9.00177002 1.5727539-12.7288208-.59423828l-15.28216553-8.86669922c-1.62799072-.94873047-2.61022949-2.11279297-2.6878662-3.19921875z"/>
      <path fill="rgb(21,0,53)" fill-rule="evenodd" d="M271.97090157 90.94750267L249 90.98240987V211.9475c1.70329146-.16807171 3.29336938-.597301 4.54762283-1.33293797l17.03927493-9.99897404c1.73000477-1.01489457 2.50087454-2.39566833 2.3978375-3.82557075H273V91.99084015c0-.57661526-.46048656-1.04463034-1.02909843-1.04333748"/>
      <path fill="rgb(255,255,255)" fill-rule="evenodd" d="M270.52080395 95.3363808L253.1488343 105.4966601c-3.67281956 2.14820337-10.0859879 1.88017065-14.32555257-.60044583l-15.31638384-8.95807373c-4.23956467-2.48061649-4.69996401-6.2317606-1.02714445-8.37996396l17.37196964-10.16027928c3.67152266-2.14820336 10.084691-1.87885677 14.32555257.60044583l15.31508694 8.95807373c4.23956467 2.48061649 4.70126091 6.2317606 1.02844135 8.37996396"/>
      <g>
        <use fill="none" xlink:href="#path-41"/>
        <g mask="url(#mask-42)">
          <path fill="rgb(21,0,53)" fill-rule="evenodd" d="M238.15942383 105.79320313c2.56500244 1.4814453 5.78552246 2.23876953 8.86224365 2.23876953 2.6038208 0 5.1079712-.5419922 7.0187378-1.64794922l17.35131835-10.02392578c2.10125733-1.21337891 3.26068116-2.97119141 3.26068116-4.94921875 0-2.2607422-1.56488038-4.46191407-4.28668213-6.03320313l-15.29797364-8.83935547c-4.73748779-2.73925781-11.71612548-3.0024414-15.88098144-.5913086l-17.35266113 10.02441407c-2.09991456 1.2133789-3.25933838 2.97216797-3.25933838 4.94921875 0 2.26074219 1.56359863 4.46191406 4.28668213 6.03271485l15.29797363 8.83984375zm2.59613037-27.12890625c1.41851807-.81933594 3.36431885-1.21875 5.41497803-1.21875 2.54815673 0 5.262146.61572265 7.32843017 1.80810546l15.29797364 8.83837891c1.7022705.98535156 2.72045898 2.22558594 2.72045898 3.31835938 0 1.03710937-.9210205 1.78662109-1.69311523 2.23486328l-17.35266114 10.02197265c-3.18029785 1.84033203-9.0137329 1.56445313-12.74334717-.58984375l-15.29803466-8.8383789c-1.70220948-.98535157-2.72045899-2.22460938-2.72045899-3.31835938 0-1.03710937.92108154-1.7866211 1.69317627-2.23486328l17.3526001-10.02148437z"/>
        </g>
      </g>
      <use fill="none" xlink:href="#path-44"/>
      <g mask="url(#mask-45)">
        <path fill="rgb(21,0,53)" fill-rule="evenodd" d="M239 210.9475h3v-106h-3v106z"/>
        <path fill="rgb(57,161,255)" fill-rule="evenodd" d="M266 198.9475h2v-98h-2v98z"/>
        <path fill="rgb(255,190,0)" fill-rule="evenodd" d="M236.95040513 181.9475l-50.90470245.0774178C185.46706323 182.02620808 185 182.49200514 185 183.06747741l.01816357 51.65831322h.01427138c.11287361 1.5431947 1.2714499 3.14445273 3.47572886 4.41023366l15.32097134 8.79724197c4.2411936 2.43478961 10.65812342 2.6993004 14.33105677.59095582l17.37864434-9.97915362c1.76446109-1.0128828 2.5506842-2.39220983 2.44689236-3.81927783H238v-51.73573102c0-.57676256-.46965803-1.04255962-1.04959487-1.04255962"/>
        <path fill="rgb(21,0,53)" fill-rule="evenodd" d="M202.56433105 249.68919922c2.56494141 1.49560547 5.78338624 2.25830078 8.85687256 2.25830078 2.60247803 0 5.09881592-.54833984 7.00634766-1.66015625l17.33459473-10.10009766c1.59564209-.92724609 2.64904785-2.20996093 3.05151367-3.65185546H239v-53.95214844c0-.70800781-.27307129-1.37011719-.77001953-1.86914063-.49176026-.49365234-1.14526367-.76660156-1.84020996-.76660156h-.01031494l-50.76794434.078125c-1.44036865 0-2.61151123 1.18359375-2.61151123 2.63720703l.01940918 52.29101563.01550293 1.58154297h.31707764c.58624267 1.6142578 1.93988037 3.08886718 3.93023681 4.24902343l15.2821045 8.90478516zm-16.40283203-14.84863281l-.0090332-.12402344-.01812744-51.52978516 49.73132324-.0756836v50.26123048h-.13201904l.12298584 1.69677734c.0802002 1.12207031-.85931397 1.91455078-1.66168213 2.38330078l-17.33459473 10.10009766c-3.17053222 1.84716797-8.99920654 1.56884766-12.7288208-.59814453l-15.28216553-8.90625c-1.62799072-.94921875-2.61022949-2.11816406-2.6878662-3.20751953z"/>
        <path fill="rgb(21,0,53)" fill-rule="evenodd" d="M235.97095612 181.9475L213 181.98367846V249.9475c1.70447318-.16667933 3.29319483-.5956525 4.5486538-1.3308505l17.03837185-9.99300752c1.72991308-1.01428897 2.49947-2.3955309 2.39771041-3.82458007H237v-51.80755492c0-.57756327-.46173415-1.04400699-1.02904388-1.04400699"/>
        <path fill="rgb(255,255,255)" fill-rule="evenodd" d="M235.5207983 185.33665765L218.14878914 195.497082c-3.67282792 2.14823404-10.08601086 1.8788836-14.32558518-.6004544l-15.31512179-8.95820164c-4.24087122-2.4806519-4.70127161-6.23184957-1.0284437-8.3800836l17.37200919-10.16042436c3.67153102-2.14823404 10.08601085-1.8788836 14.32558517.6004544l15.3151218 8.95820164c4.23957431 2.4806519 4.7012716 6.23184957 1.02844369 8.3800836"/>
        <path fill="rgb(21,0,53)" fill-rule="evenodd" d="M202.55755615 196.69115234c2.56402588 1.49316407 5.78265381 2.25634766 8.8538208 2.25634766 2.59899903 0 5.0970459-.54736328 7.005188-1.65771484l17.3272705-10.10595703C237.84216309 185.96117188 239 184.19066406 239 182.19701172c0-2.27734375-1.56018066-4.49560547-4.28070068-6.08300781l-15.27685547-8.90478516c-4.73095703-2.76611328-11.69726563-3.02978516-15.8590088-.59863281l-17.32861327 10.10205078C184.1578369 177.93675782 183 179.70824219 183 181.70189453c0 2.27734375 1.5614624 4.49560547 4.28070068 6.0805664l15.27685547 8.90869141zm2.5925293-27.34228515c1.41394043-.82714844 3.35705566-1.22802735 5.4074707-1.22802735 2.54467774 0 5.25488281.62060547 7.31829834 1.82373047l15.27679444 8.90625c1.69989013.99316407 2.71673584 2.2446289 2.71673584 3.3461914 0 1.04394532-.9197998 1.79882813-1.69213868 2.24951173l-17.3272705 10.10302734c-3.17077637 1.84863281-8.99743653 1.57324219-12.72576905-.59570312l-15.27685547-8.90771485c-1.6998291-.99414062-2.7166748-2.24316406-2.7166748-3.34423828 0-1.04541015.9197998-1.80175781 1.6907959-2.2524414l17.32861328-10.10058594z"/>
        <path fill="rgb(21,0,53)" fill-rule="evenodd" d="M204 248.9475h3v-53h-3v53z"/>
        <path fill="rgb(57,161,255)" fill-rule="evenodd" d="M231 235.9475h2v-44h-2v44z"/>
      </g>
    </g>
    <g>
      <path fill="rgb(162,237,201)" fill-rule="evenodd" d="M98.02091688 23.43023468L140.85737158 19.9475c.00522922 0 .01045844.00129182.01438036.00387545l6.26721896 4.19581685c.00261461.00258363.00653653.00387545.01045844.00387545 9.36814583.75571208 18.36763172 3.09777365 25.52381792 7.01197472 2.5348639 1.38611806 4.70368248 2.90141768 6.56659175 4.50068532.00522922.00516726.01176574.00645907.01830227.00516726l7.69218114-1.3628654c.01307305-.00258362.0261461.0077509.0261461.02196087L187 50.34133588l-.01960957.01162634c-.01307305 6.78461518-4.52850365 13.571814-13.59335478 18.761037-18.17676523 10.40557413-47.67217497 10.45078767-65.88031552.09817798-2.09691681-1.19105392-3.92322155-2.47641038-5.53774291-3.81989853-.00522922-.00387545-.00784383-.01033453-.00784383-.0167936l-.0248388-15.99267631c0-.01033453.00784384-.02066905.01830228-.02196087l20.36388607-3.60674897c.02353148-.00387545.02483879-.03746265.0013073-.04392173l-24.27795649-6.25238718c-.01045844-.00258363-.01699496-.01162634-.01699496-.02196087L98 23.45219554c0-.01162634.00915113-.02066905.02091688-.02196086"/>
      <path fill="rgb(255,190,0)" fill-rule="evenodd" d="M186.97653398 33.77715431c0-.01431695-.01303667-.02472928-.02737702-.0221262l-7.67078046 1.37312578c-.00651834.00130155-.01303668 0-.01825135-.00520616-1.8577264-1.61000625-4.02051104-3.13801541-6.54701894-4.53456893C168.10985573 28.04516764 162.73744133 26.16964702 157 24.9475v50c5.98644186-1.31065181 11.60785677-3.33715119 16.42360508-6.12244898 9.0396315-5.2282903 13.54249956-12.06658684 13.55553624-18.90097876L187 49.91105686l-.02346602-16.13390255z"/>
      <path fill="rgb(21,39,53)" fill-rule="evenodd" d="M187.97918701 51.06615234L188 50.3644922l-.0234375-16.50195313-.90771484-.68261718-.5456543.12109375-7.07806397 1.25048828c-1.93914794-1.609375-4.03845214-3.02294922-6.3161621-4.26660157-6.99731446-3.82080078-15.84259034-6.27148437-25.5968628-7.08740234l-6.35003662-4.25-.44281006.04614258L97 22.62816406l.02215576 1.03564453.0234375 16.65625.78265381.29296875 19.28198242 4.96435547-16.1720581 2.85839844.02862549 17.33203125.3139038.34716797c1.84014893 1.53955078 3.75323487 2.85791016 5.7913208 4.015625 18.42895508 10.4609375 48.38983155 10.41699219 66.78753663-.10009766 8.80749511-5.03515625 13.7901001-11.7446289 14.1040039-18.95654297l.015625-.0078125zM99.3637085 38.65111328L99.340271 24.6481836l41.23364257-3.3461914 6.33184815 4.1303711c9.68780517.78515624 18.3182373 3.1508789 25.10192871 6.85595702 2.33892822 1.27734375 4.47210693 2.73730469 6.33966064 4.3383789l.46362305.39746095.61334229-.14794922 6.23675537-1.1015625-.00128174 14.60009765c-.01171875 6.625-4.6140747 12.90527344-12.96185303 17.67675782-17.76086426 10.15234375-46.68249512 10.19482422-64.46942139.09667968-1.76464843-1.00390625-3.42895507-2.13085937-4.95269775-3.359375l-.01428223-14.45898437 20.26776123-3.5649414.08465577-1.84521485-.8959961-.2631836-23.35424804-6.00537109z"/>
      <path fill="rgb(255,255,255)" fill-rule="evenodd" d="M140.32718232 34.38985182L98.01685728 23.51339834c-.0156947-.00387016-.02223417-.02322099-.01177103-.03612154 2.9427583-3.69342739 7.35820367-7.10046257 13.47914095-9.85472994 18.08030706-8.1312165 44.57951867-7.46167796 61.18190711 1.60353834 18.8676584 10.30237901 19.1122343 27.38270685.71280146 37.89794494-18.18493847 10.39268286-47.6936109 10.43654473-65.91124669.09933423-2.08739656-1.18427046-3.90798303-2.46271494-5.5193067-3.79792184-.01307892-.0116105-.00915524-.03225137.00784736-.03870165l38.37356837-14.95431725c.02092628-.00903038.01961838-.03741159-.00261579-.04257181"/>
      <path fill="rgb(21,39,53)" fill-rule="evenodd" d="M173.86297607 54.03978516c9.18988038-5.24707032 14.20916748-12.28271485 14.13623047-19.81298828-.03643799-3.42871094-1.12335205-6.74462891-3.17346191-9.8256836-2.50836182-3.77001953-6.45898438-7.1911621-11.69171143-10.04760742-16.88153076-9.2133789-43.50610351-9.9140625-61.93139648-1.63208008-5.96557617 2.67919922-10.62432861 6.0900879-13.84594727 10.13623047L97 23.30296875l.2954712 1.1484375.58966064.22167969 38.84606933 9.98388672-35.5449829 13.84472656-.26947022 1.28173828.51940918.45458984c1.7402954 1.44335938 3.64465332 2.75244141 5.67138672 3.90332032 18.42138671 10.44824218 48.36657714 10.40185547 66.75543212-.1015625zm-32.35198974-20.50976563l-.83050537-.21826172-40.3651123-10.37109375c2.94439696-3.19750976 6.913208-5.9230957 11.84790038-8.140625 17.81872559-8.01000976 43.54901123-7.3413086 59.84869385 1.55395508 8.74731445 4.7722168 13.59997559 11.12670899 13.66766357 17.89575195.06634522 6.67041016-4.54290771 12.99658204-12.97650146 17.81396485-17.75097656 10.13867187-46.65740967 10.18261719-64.43841553.09765625-1.33416748-.75732422-2.60986328-1.58642578-3.8112793-2.4765625l37.14605713-14.46728516-.08850097-1.6875z"/>
      <path fill="rgb(255,255,255)" fill-rule="evenodd" d="M102.05073759 49.61102748L139.974626 34.94889706c.01553833-.00633517.03107666.01013629.0233075.02407367l-13.05349356 24.97326223-.00258972.00126704c-7.14374803-1.18087673-13.87961486-3.3589101-19.52261902-6.53536715-2.03552146-1.14666679-3.8159553-2.380759-5.39180112-3.67186778-.04532014-.03674402-.03237153-.10769799.0233075-.12923759"/>
      <path fill="rgb(21,39,53)" fill-rule="evenodd" d="M126.23242188 60.80638672l.8416748.14111328L141 34.1896875 139.89562988 32.9475l-.80908203.35839844-38.8303833 15.08203125L100 49.713125l.52148438.48828125c1.72393798 1.41796875 3.60986328 2.7084961 5.61999511 3.84521484 5.61090088 3.17236329 12.55749512 5.50976563 20.09094239 6.75976563zm-.44830323-2.40039063c-6.94006347-1.23291015-13.31420898-3.42041015-18.48071289-6.3408203-1.34094238-.75927735-2.6231079-1.5888672-3.828125-2.47753907l33.71490479-13.08886719-11.4060669 21.90722656z"/>
      <path fill="rgb(162,237,201)" fill-rule="evenodd" d="M139.90625309 34.95906513c.00898943-.01775421.05393658-.01394974.05393658.00380447L140 60.94615067l-.0012842.00126816c-4.38427344.00634079-8.76084165-.3588886-12.9987158-1.07032501l12.90625309-24.9180287z"/>
      <path fill="rgb(21,39,53)" fill-rule="evenodd" d="M139.84777832 61.9475L141 61.94603516l-.04400635-28.53173828L139.1435547 32.9475l-.41949463.83642578L125 60.57835938l1.54833984.2626953c4.35894776.74072266 8.83306885 1.11279298 13.29943848 1.10644532zm-1.18585205-22.98632812l.02978516 20.67773437c-3.42163086-.04638672-6.84197998-.32177734-10.2027588-.81835937l10.17297364-19.859375z"/>
      <path fill="rgb(162,237,201)" fill-rule="evenodd" d="M140.03733923 60.94622957L140 34.96332399c0-.0190565.04605172-.02159737.05227493-.0038113L149 60.38469797c-2.95477804.36207354-5.9556078.55899073-8.96017148.56280203l-.00248929-.00127043z"/>
      <path fill="rgb(21,39,53)" fill-rule="evenodd" d="M149.57452393 61.36498047L151 61.19115234 140.9486084 32.9475l-1.93963623.32421875L139 34.26585938 139.03985596 61.9475l1.1439209-.00146484c3.08355712-.00244141 6.2442627-.19970703 9.39074707-.5810547zm-8.2775879-20.60644531l6.57452393 18.4736328c-2.19146728.22558595-4.38427734.359375-6.54626465.39697267l-.02825927-18.87060547z"/>
      <path fill="rgb(21,39,53)" fill-rule="evenodd" d="M127.97887715 59.9475L126 59.95136505 126.02001112 75.9475 128 75.9449233 127.97887715 59.9475z"/>
      <path fill="rgb(21,39,53)" fill-rule="evenodd" d="M108.97887715 26.9475L107 26.95136505 107.02112285 42.9475 109 42.94363495 108.97887715 26.9475z"/>
      <path fill="rgb(21,39,53)" fill-rule="evenodd" d="M117 78.69759183c-8.62826766-1.5787927-15.37304762-6.06703808-18.6257467-8.60236317-1.50205513-1.1712379-2.45169069-2.9351659-2.60952485-4.83665972L95.33331507 59.9475 93 60.12749265l.43141338 5.3123546c.20518442 2.53403943 1.47574944 4.88422922 3.4828739 6.44630832 3.42368609 2.66646259 10.52753877 7.38998408 19.65298405 9.06134443L117 78.69759183z"/>
      <g>
        <use fill="none" xlink:href="#path-69"/>
        <g mask="url(#mask-70)">
          <path fill="rgb(21,39,53)" fill-rule="evenodd" d="M130.8947 80.59723333l-8.56928571-1.24-.31757143 2.35066667 8.56928571 1.24.31757143-2.35066667z"/>
        </g>
      </g>
      <g>
        <use fill="none" xlink:href="#path-72"/>
        <g mask="url(#mask-73)">
          <path fill="rgb(21,39,53)" fill-rule="evenodd" d="M140.37386667.15625c-9.89333334-.83-18.60666667 1.90625-18.972 2.02375l.764 2.1075c.084-.02875 8.62133333-2.7 17.99466666-1.91625l.21333334-2.215z"/>
        </g>
      </g>
      <path fill="rgb(21,39,53)" fill-rule="evenodd" d="M119.10144928 3.9475L112 6.69688842 112.90131125 8.9475 120 6.19811158 119.10144928 3.9475z"/>
    </g>
  </g>
</svg>
